<svg xmlns="http://www.w3.org/2000/svg" width="1920" height="1001" fill="none"><g clip-path="url(#a)" opacity=".7"><path stroke="#DBDBDB" stroke-miterlimit="10" d="M212.719-12h-91.555c-4.265 0-7.723 3.425-7.723 7.65v90.7c0 4.225 3.458 7.65 7.723 7.65h91.555c4.265 0 7.722-3.425 7.722-7.65v-90.7c0-4.225-3.457-7.65-7.722-7.65ZM324.791-12h-90.699a7.65 7.65 0 0 0-7.651 7.65v90.7a7.65 7.65 0 0 0 7.651 7.65h90.699a7.65 7.65 0 0 0 7.65-7.65v-90.7a7.65 7.65 0 0 0-7.65-7.65ZM437.719-12h-91.555c-4.265 0-7.723 3.425-7.723 7.65v90.7c0 4.225 3.458 7.65 7.723 7.65h91.555c4.265 0 7.722-3.425 7.722-7.65v-90.7c0-4.225-3.457-7.65-7.722-7.65ZM324.791 99h-90.699c-4.225 0-7.651 3.458-7.651 7.723v91.554c0 4.265 3.426 7.723 7.651 7.723h90.699c4.225 0 7.65-3.458 7.65-7.723v-91.554c0-4.265-3.425-7.723-7.65-7.723ZM437.719 99h-91.555a7.723 7.723 0 0 0-7.723 7.723v91.554a7.723 7.723 0 0 0 7.723 7.723h91.555a7.723 7.723 0 0 0 7.722-7.723v-91.554A7.723 7.723 0 0 0 437.719 99ZM550.687-12h-92.491a6.754 6.754 0 0 0-6.755 6.754v92.492A6.754 6.754 0 0 0 458.196 94h92.491a6.754 6.754 0 0 0 6.754-6.754V-5.246A6.754 6.754 0 0 0 550.687-12ZM662.687-12h-92.491a6.754 6.754 0 0 0-6.755 6.754v92.492A6.754 6.754 0 0 0 570.196 94h92.491a6.754 6.754 0 0 0 6.754-6.754V-5.246A6.754 6.754 0 0 0 662.687-12ZM776.687-12h-92.491a6.754 6.754 0 0 0-6.755 6.754v92.492A6.754 6.754 0 0 0 684.196 94h92.491a6.754 6.754 0 0 0 6.754-6.754V-5.246A6.754 6.754 0 0 0 776.687-12ZM887.654-12h-90.425a7.79 7.79 0 0 0-7.788 7.788v90.424A7.79 7.79 0 0 0 797.229 94h90.425a7.787 7.787 0 0 0 7.787-7.788V-4.212A7.787 7.787 0 0 0 887.654-12ZM1000.58-12h-91.278c-4.341 0-7.861 3.487-7.861 7.788v90.424c0 4.301 3.52 7.788 7.861 7.788h91.278c4.34 0 7.86-3.487 7.86-7.788V-4.212c0-4.301-3.52-7.788-7.86-7.788ZM1113.58-12h-91.28c-4.34 0-7.86 3.487-7.86 7.788v90.424c0 4.301 3.52 7.788 7.86 7.788h91.28c4.34 0 7.86-3.487 7.86-7.788V-4.212c0-4.301-3.52-7.788-7.86-7.788ZM212.719 99h-91.555a7.723 7.723 0 0 0-7.723 7.723v91.554a7.723 7.723 0 0 0 7.723 7.723h91.555a7.723 7.723 0 0 0 7.722-7.723v-91.554A7.723 7.723 0 0 0 212.719 99ZM548.425 99h-87.967c-4.98 0-9.017 4.075-9.017 9.101v88.798c0 5.026 4.037 9.101 9.017 9.101h87.967c4.98 0 9.016-4.075 9.016-9.101v-88.798c0-5.026-4.036-9.101-9.016-9.101ZM660.425 99h-87.967c-4.98 0-9.017 4.075-9.017 9.101v88.798c0 5.026 4.037 9.101 9.017 9.101h87.967c4.98 0 9.016-4.075 9.016-9.101v-88.798c0-5.026-4.036-9.101-9.016-9.101ZM774.425 99h-87.967c-4.98 0-9.017 4.075-9.017 9.101v88.798c0 5.026 4.037 9.101 9.017 9.101h87.967c4.98 0 9.016-4.075 9.016-9.101v-88.798c0-5.026-4.036-9.101-9.016-9.101ZM548.425 211h-87.967a9.017 9.017 0 0 0-9.017 9.016v87.968a9.017 9.017 0 0 0 9.017 9.016h87.967a9.016 9.016 0 0 0 9.016-9.016v-87.968a9.016 9.016 0 0 0-9.016-9.016ZM660.425 211h-87.967a9.017 9.017 0 0 0-9.017 9.016v87.968a9.017 9.017 0 0 0 9.017 9.016h87.967a9.016 9.016 0 0 0 9.016-9.016v-87.968a9.016 9.016 0 0 0-9.016-9.016ZM774.425 211h-87.967a9.017 9.017 0 0 0-9.017 9.016v87.968a9.017 9.017 0 0 0 9.017 9.016h87.967a9.016 9.016 0 0 0 9.016-9.016v-87.968a9.016 9.016 0 0 0-9.016-9.016ZM887.654 99h-90.425c-4.301 0-7.788 3.52-7.788 7.861v91.278c0 4.341 3.487 7.861 7.788 7.861h90.425c4.301 0 7.787-3.52 7.787-7.861v-91.278c0-4.341-3.486-7.861-7.787-7.861ZM1000.58 99h-91.278a7.86 7.86 0 0 0-7.861 7.861v91.278a7.86 7.86 0 0 0 7.861 7.861h91.278c4.34 0 7.86-3.52 7.86-7.861v-91.278a7.86 7.86 0 0 0-7.86-7.861ZM1113.58 99h-91.28c-4.34 0-7.86 3.52-7.86 7.861v91.278a7.86 7.86 0 0 0 7.86 7.861h91.28c4.34 0 7.86-3.52 7.86-7.861v-91.278a7.86 7.86 0 0 0-7.86-7.861ZM212.719 211h-91.555c-4.265 0-7.723 3.425-7.723 7.651v90.698c0 4.226 3.458 7.651 7.723 7.651h91.555c4.265 0 7.722-3.425 7.722-7.651v-90.698c0-4.226-3.457-7.651-7.722-7.651ZM324.791 211h-90.699a7.65 7.65 0 0 0-7.651 7.651v90.698a7.65 7.65 0 0 0 7.651 7.651h90.699a7.65 7.65 0 0 0 7.65-7.651v-90.698a7.65 7.65 0 0 0-7.65-7.651ZM437.719 211h-91.555c-4.265 0-7.723 3.425-7.723 7.651v90.698c0 4.226 3.458 7.651 7.723 7.651h91.555c4.265 0 7.722-3.425 7.722-7.651v-90.698c0-4.226-3.457-7.651-7.722-7.651ZM887.654 211h-90.425a7.79 7.79 0 0 0-7.788 7.788v90.424a7.79 7.79 0 0 0 7.788 7.788h90.425a7.787 7.787 0 0 0 7.787-7.788v-90.424a7.787 7.787 0 0 0-7.787-7.788ZM774.425 323h-87.967a9.017 9.017 0 0 0-9.017 9.016v87.968a9.017 9.017 0 0 0 9.017 9.016h87.967a9.016 9.016 0 0 0 9.016-9.016v-87.968a9.016 9.016 0 0 0-9.016-9.016ZM887.654 323h-90.425a7.79 7.79 0 0 0-7.788 7.788v90.424a7.79 7.79 0 0 0 7.788 7.788h90.425a7.787 7.787 0 0 0 7.787-7.788v-90.424a7.787 7.787 0 0 0-7.787-7.788ZM1000.58 211h-91.278c-4.341 0-7.861 3.487-7.861 7.788v90.424c0 4.301 3.52 7.788 7.861 7.788h91.278c4.34 0 7.86-3.487 7.86-7.788v-90.424c0-4.301-3.52-7.788-7.86-7.788ZM1113.58 211h-91.28c-4.34 0-7.86 3.487-7.86 7.788v90.424c0 4.301 3.52 7.788 7.86 7.788h91.28c4.34 0 7.86-3.487 7.86-7.788v-90.424c0-4.301-3.52-7.788-7.86-7.788ZM212.719 323h-91.555c-4.265 0-7.723 3.425-7.723 7.651v90.698c0 4.226 3.458 7.651 7.723 7.651h91.555c4.265 0 7.722-3.425 7.722-7.651v-90.698c0-4.226-3.457-7.651-7.722-7.651ZM324.791 323h-90.699a7.65 7.65 0 0 0-7.651 7.651v90.698a7.65 7.65 0 0 0 7.651 7.651h90.699a7.65 7.65 0 0 0 7.65-7.651v-90.698a7.65 7.65 0 0 0-7.65-7.651ZM437.719 323h-91.555c-4.265 0-7.723 3.425-7.723 7.651v90.698c0 4.226 3.458 7.651 7.723 7.651h91.555c4.265 0 7.722-3.425 7.722-7.651v-90.698c0-4.226-3.457-7.651-7.722-7.651ZM548.425 323h-87.967a9.017 9.017 0 0 0-9.017 9.016v87.968a9.017 9.017 0 0 0 9.017 9.016h87.967a9.016 9.016 0 0 0 9.016-9.016v-87.968a9.016 9.016 0 0 0-9.016-9.016ZM660.425 323h-87.967a9.017 9.017 0 0 0-9.017 9.016v87.968a9.017 9.017 0 0 0 9.017 9.016h87.967a9.016 9.016 0 0 0 9.016-9.016v-87.968a9.016 9.016 0 0 0-9.016-9.016ZM1000.58 323h-91.278c-4.341 0-7.861 3.487-7.861 7.788v90.424c0 4.301 3.52 7.788 7.861 7.788h91.278c4.34 0 7.86-3.487 7.86-7.788v-90.424c0-4.301-3.52-7.788-7.86-7.788ZM1113.58 323h-91.28c-4.34 0-7.86 3.487-7.86 7.788v90.424c0 4.301 3.52 7.788 7.86 7.788h91.28c4.34 0 7.86-3.487 7.86-7.788v-90.424c0-4.301-3.52-7.788-7.86-7.788ZM212.719 433h-91.555c-4.265 0-7.723 3.49-7.723 7.795v92.41c0 4.305 3.458 7.795 7.723 7.795h91.555c4.265 0 7.722-3.49 7.722-7.795v-92.41c0-4.305-3.457-7.795-7.722-7.795ZM98.79-12H8.093a7.65 7.65 0 0 0-7.65 7.65v90.7A7.65 7.65 0 0 0 8.091 94H98.79a7.65 7.65 0 0 0 7.65-7.65v-90.7a7.65 7.65 0 0 0-7.65-7.65ZM98.79 99H8.093c-4.225 0-7.65 3.458-7.65 7.723v91.554c0 4.265 3.425 7.723 7.65 7.723H98.79c4.225 0 7.65-3.458 7.65-7.723v-91.554c0-4.265-3.425-7.723-7.65-7.723ZM98.79 211H8.093a7.65 7.65 0 0 0-7.65 7.651v90.698A7.65 7.65 0 0 0 8.091 317H98.79a7.65 7.65 0 0 0 7.65-7.651v-90.698a7.65 7.65 0 0 0-7.65-7.651ZM98.79 323H8.093a7.65 7.65 0 0 0-7.65 7.651v90.698A7.65 7.65 0 0 0 8.091 429H98.79a7.65 7.65 0 0 0 7.65-7.651v-90.698a7.65 7.65 0 0 0-7.65-7.651ZM98.79 433H8.093c-4.225 0-7.65 3.49-7.65 7.795v92.41c0 4.305 3.425 7.795 7.65 7.795H98.79c4.225 0 7.65-3.49 7.65-7.795v-92.41c0-4.305-3.425-7.795-7.65-7.795ZM324.791 433h-90.699c-4.225 0-7.651 3.49-7.651 7.795v92.41c0 4.305 3.426 7.795 7.651 7.795h90.699c4.225 0 7.65-3.49 7.65-7.795v-92.41c0-4.305-3.425-7.795-7.65-7.795ZM437.719 433h-91.555c-4.265 0-7.723 3.49-7.723 7.795v92.41c0 4.305 3.458 7.795 7.723 7.795h91.555c4.265 0 7.722-3.49 7.722-7.795v-92.41c0-4.305-3.457-7.795-7.722-7.795ZM551.889 433h-94.896c-3.066 0-5.552 2.533-5.552 5.657v96.686c0 3.124 2.486 5.657 5.552 5.657h94.896c3.067 0 5.552-2.533 5.552-5.657v-96.686c0-3.124-2.485-5.657-5.552-5.657ZM663.889 433h-94.896c-3.066 0-5.552 2.533-5.552 5.657v96.686c0 3.124 2.486 5.657 5.552 5.657h94.896c3.067 0 5.552-2.533 5.552-5.657v-96.686c0-3.124-2.485-5.657-5.552-5.657ZM777.889 433h-94.896c-3.066 0-5.552 2.533-5.552 5.657v96.686c0 3.124 2.486 5.657 5.552 5.657h94.896c3.067 0 5.552-2.533 5.552-5.657v-96.686c0-3.124-2.485-5.657-5.552-5.657ZM887.654 433h-90.425c-4.301 0-7.788 3.552-7.788 7.935v92.13c0 4.383 3.487 7.935 7.788 7.935h90.425c4.301 0 7.787-3.552 7.787-7.935v-92.13c0-4.383-3.486-7.935-7.787-7.935ZM1000.58 433h-91.278c-4.341 0-7.861 3.552-7.861 7.935v92.13c0 4.383 3.52 7.935 7.861 7.935h91.278c4.34 0 7.86-3.552 7.86-7.935v-92.13c0-4.383-3.52-7.935-7.86-7.935ZM1113.58 433h-91.28c-4.34 0-7.86 3.552-7.86 7.935v92.13c0 4.383 3.52 7.935 7.86 7.935h91.28c4.34 0 7.86-3.552 7.86-7.935v-92.13c0-4.383-3.52-7.935-7.86-7.935ZM212.719 550h-91.555c-4.265 0-7.723 3.425-7.723 7.651v90.698c0 4.226 3.458 7.651 7.723 7.651h91.555c4.265 0 7.722-3.425 7.722-7.651v-90.698c0-4.226-3.457-7.651-7.722-7.651ZM324.791 550h-90.699a7.65 7.65 0 0 0-7.651 7.651v90.698a7.65 7.65 0 0 0 7.651 7.651h90.699a7.65 7.65 0 0 0 7.65-7.651v-90.698a7.65 7.65 0 0 0-7.65-7.651ZM437.719 550h-91.555c-4.265 0-7.723 3.425-7.723 7.651v90.698c0 4.226 3.458 7.651 7.723 7.651h91.555c4.265 0 7.722-3.425 7.722-7.651v-90.698c0-4.226-3.457-7.651-7.722-7.651ZM324.791 660h-90.699c-4.225 0-7.651 3.49-7.651 7.795v92.41c0 4.305 3.426 7.795 7.651 7.795h90.699c4.225 0 7.65-3.49 7.65-7.795v-92.41c0-4.305-3.425-7.795-7.65-7.795ZM437.719 660h-91.555c-4.265 0-7.723 3.49-7.723 7.795v92.41c0 4.305 3.458 7.795 7.723 7.795h91.555c4.265 0 7.722-3.49 7.722-7.795v-92.41c0-4.305-3.457-7.795-7.722-7.795ZM550.687 550h-92.491a6.754 6.754 0 0 0-6.755 6.754v92.492a6.754 6.754 0 0 0 6.755 6.754h92.491a6.754 6.754 0 0 0 6.754-6.754v-92.492a6.754 6.754 0 0 0-6.754-6.754ZM662.687 550h-92.491a6.754 6.754 0 0 0-6.755 6.754v92.492a6.754 6.754 0 0 0 6.755 6.754h92.491a6.754 6.754 0 0 0 6.754-6.754v-92.492a6.754 6.754 0 0 0-6.754-6.754ZM776.687 550h-92.491a6.754 6.754 0 0 0-6.755 6.754v92.492a6.754 6.754 0 0 0 6.755 6.754h92.491a6.754 6.754 0 0 0 6.754-6.754v-92.492a6.754 6.754 0 0 0-6.754-6.754ZM887.654 550h-90.425a7.79 7.79 0 0 0-7.788 7.788v90.424a7.79 7.79 0 0 0 7.788 7.788h90.425a7.787 7.787 0 0 0 7.787-7.788v-90.424a7.787 7.787 0 0 0-7.787-7.788ZM1000.58 550h-91.278c-4.341 0-7.861 3.487-7.861 7.788v90.424c0 4.301 3.52 7.788 7.861 7.788h91.278c4.34 0 7.86-3.487 7.86-7.788v-90.424c0-4.301-3.52-7.788-7.86-7.788ZM1113.58 550h-91.28c-4.34 0-7.86 3.487-7.86 7.788v90.424c0 4.301 3.52 7.788 7.86 7.788h91.28c4.34 0 7.86-3.487 7.86-7.788v-90.424c0-4.301-3.52-7.788-7.86-7.788ZM212.719 660h-91.555c-4.265 0-7.723 3.49-7.723 7.795v92.41c0 4.305 3.458 7.795 7.723 7.795h91.555c4.265 0 7.722-3.49 7.722-7.795v-92.41c0-4.305-3.457-7.795-7.722-7.795ZM548.425 660h-87.967c-4.98 0-9.017 4.113-9.017 9.186v89.628c0 5.073 4.037 9.186 9.017 9.186h87.967c4.98 0 9.016-4.113 9.016-9.186v-89.628c0-5.073-4.036-9.186-9.016-9.186ZM660.425 660h-87.967c-4.98 0-9.017 4.113-9.017 9.186v89.628c0 5.073 4.037 9.186 9.017 9.186h87.967c4.98 0 9.016-4.113 9.016-9.186v-89.628c0-5.073-4.036-9.186-9.016-9.186ZM774.425 660h-87.967c-4.98 0-9.017 4.113-9.017 9.186v89.628c0 5.073 4.037 9.186 9.017 9.186h87.967c4.98 0 9.016-4.113 9.016-9.186v-89.628c0-5.073-4.036-9.186-9.016-9.186ZM548.425 772h-87.967c-4.98 0-9.017 4.075-9.017 9.101v88.798c0 5.026 4.037 9.101 9.017 9.101h87.967c4.98 0 9.016-4.075 9.016-9.101v-88.798c0-5.026-4.036-9.101-9.016-9.101ZM660.425 772h-87.967c-4.98 0-9.017 4.075-9.017 9.101v88.798c0 5.026 4.037 9.101 9.017 9.101h87.967c4.98 0 9.016-4.075 9.016-9.101v-88.798c0-5.026-4.036-9.101-9.016-9.101ZM774.425 772h-87.967c-4.98 0-9.017 4.075-9.017 9.101v88.798c0 5.026 4.037 9.101 9.017 9.101h87.967c4.98 0 9.016-4.075 9.016-9.101v-88.798c0-5.026-4.036-9.101-9.016-9.101ZM887.654 660h-90.425c-4.301 0-7.788 3.552-7.788 7.935v92.13c0 4.383 3.487 7.935 7.788 7.935h90.425c4.301 0 7.787-3.552 7.787-7.935v-92.13c0-4.383-3.486-7.935-7.787-7.935ZM1000.58 660h-91.278c-4.341 0-7.861 3.552-7.861 7.935v92.13c0 4.383 3.52 7.935 7.861 7.935h91.278c4.34 0 7.86-3.552 7.86-7.935v-92.13c0-4.383-3.52-7.935-7.86-7.935ZM1113.58 660h-91.28c-4.34 0-7.86 3.552-7.86 7.935v92.13c0 4.383 3.52 7.935 7.86 7.935h91.28c4.34 0 7.86-3.552 7.86-7.935v-92.13c0-4.383-3.52-7.935-7.86-7.935ZM212.719 772h-91.555a7.723 7.723 0 0 0-7.723 7.723v91.554a7.723 7.723 0 0 0 7.723 7.723h91.555a7.723 7.723 0 0 0 7.722-7.723v-91.554a7.723 7.723 0 0 0-7.722-7.723ZM324.791 772h-90.699c-4.225 0-7.651 3.458-7.651 7.723v91.554c0 4.265 3.426 7.723 7.651 7.723h90.699c4.225 0 7.65-3.458 7.65-7.723v-91.554c0-4.265-3.425-7.723-7.65-7.723ZM437.719 772h-91.555a7.723 7.723 0 0 0-7.723 7.723v91.554a7.723 7.723 0 0 0 7.723 7.723h91.555a7.723 7.723 0 0 0 7.722-7.723v-91.554a7.723 7.723 0 0 0-7.722-7.723ZM887.654 772h-90.425c-4.301 0-7.788 3.52-7.788 7.861v91.278c0 4.341 3.487 7.861 7.788 7.861h90.425c4.301 0 7.787-3.52 7.787-7.861v-91.278c0-4.341-3.486-7.861-7.787-7.861ZM774.425 884h-87.967c-4.98 0-9.017 4.075-9.017 9.101v88.798c0 5.026 4.037 9.101 9.017 9.101h87.967c4.98 0 9.016-4.075 9.016-9.101v-88.798c0-5.026-4.036-9.101-9.016-9.101ZM887.654 884h-90.425c-4.301 0-7.788 3.52-7.788 7.861v91.278c0 4.341 3.487 7.861 7.788 7.861h90.425c4.301 0 7.787-3.52 7.787-7.861v-91.278c0-4.341-3.486-7.861-7.787-7.861ZM1000.58 772h-91.278a7.86 7.86 0 0 0-7.861 7.861v91.278a7.86 7.86 0 0 0 7.861 7.861h91.278c4.34 0 7.86-3.52 7.86-7.861v-91.278a7.86 7.86 0 0 0-7.86-7.861ZM1113.58 772h-91.28c-4.34 0-7.86 3.52-7.86 7.861v91.278a7.86 7.86 0 0 0 7.86 7.861h91.28c4.34 0 7.86-3.52 7.86-7.861v-91.278a7.86 7.86 0 0 0-7.86-7.861ZM212.719 884h-91.555a7.723 7.723 0 0 0-7.723 7.723v91.554a7.723 7.723 0 0 0 7.723 7.723h91.555a7.723 7.723 0 0 0 7.722-7.723v-91.554a7.723 7.723 0 0 0-7.722-7.723ZM324.791 884h-90.699c-4.225 0-7.651 3.458-7.651 7.723v91.554c0 4.265 3.426 7.723 7.651 7.723h90.699c4.225 0 7.65-3.458 7.65-7.723v-91.554c0-4.265-3.425-7.723-7.65-7.723ZM437.719 884h-91.555a7.723 7.723 0 0 0-7.723 7.723v91.554a7.723 7.723 0 0 0 7.723 7.723h91.555a7.723 7.723 0 0 0 7.722-7.723v-91.554a7.723 7.723 0 0 0-7.722-7.723ZM548.425 884h-87.967c-4.98 0-9.017 4.075-9.017 9.101v88.798c0 5.026 4.037 9.101 9.017 9.101h87.967c4.98 0 9.016-4.075 9.016-9.101v-88.798c0-5.026-4.036-9.101-9.016-9.101ZM660.425 884h-87.967c-4.98 0-9.017 4.075-9.017 9.101v88.798c0 5.026 4.037 9.101 9.017 9.101h87.967c4.98 0 9.016-4.075 9.016-9.101v-88.798c0-5.026-4.036-9.101-9.016-9.101ZM1000.58 884h-91.278a7.86 7.86 0 0 0-7.861 7.861v91.278a7.86 7.86 0 0 0 7.861 7.861h91.278c4.34 0 7.86-3.52 7.86-7.861v-91.278a7.86 7.86 0 0 0-7.86-7.861ZM1113.58 884h-91.28c-4.34 0-7.86 3.52-7.86 7.861v91.278a7.86 7.86 0 0 0 7.86 7.861h91.28c4.34 0 7.86-3.52 7.86-7.861v-91.278a7.86 7.86 0 0 0-7.86-7.861ZM98.79 550H8.093a7.65 7.65 0 0 0-7.65 7.651v90.698A7.65 7.65 0 0 0 8.091 656H98.79a7.65 7.65 0 0 0 7.65-7.651v-90.698a7.65 7.65 0 0 0-7.65-7.651ZM98.79 660H8.093c-4.225 0-7.65 3.49-7.65 7.795v92.41c0 4.305 3.425 7.795 7.65 7.795H98.79c4.225 0 7.65-3.49 7.65-7.795v-92.41c0-4.305-3.425-7.795-7.65-7.795ZM98.79 772H8.093c-4.225 0-7.65 3.458-7.65 7.723v91.554c0 4.265 3.425 7.723 7.65 7.723H98.79c4.225 0 7.65-3.458 7.65-7.723v-91.554c0-4.265-3.425-7.723-7.65-7.723ZM98.79 884H8.093c-4.225 0-7.65 3.458-7.65 7.723v91.554c0 4.265 3.425 7.723 7.65 7.723H98.79c4.225 0 7.65-3.458 7.65-7.723v-91.554c0-4.265-3.425-7.723-7.65-7.723ZM1342.79 551h-90.7a7.653 7.653 0 0 0-7.65 7.651v90.698a7.653 7.653 0 0 0 7.65 7.651h90.7c4.23 0 7.65-3.425 7.65-7.651v-90.698a7.647 7.647 0 0 0-7.65-7.651ZM1454.79 551h-90.7a7.653 7.653 0 0 0-7.65 7.651v90.698a7.653 7.653 0 0 0 7.65 7.651h90.7c4.23 0 7.65-3.425 7.65-7.651v-90.698a7.647 7.647 0 0 0-7.65-7.651ZM1568.65 551h-92.41c-4.31 0-7.8 3.425-7.8 7.651v90.698c0 4.226 3.49 7.651 7.8 7.651h92.41c4.3 0 7.79-3.425 7.79-7.651v-90.698c0-4.226-3.49-7.651-7.79-7.651ZM1454.79 662h-90.7c-4.22 0-7.65 3.49-7.65 7.795v92.41c0 4.305 3.43 7.795 7.65 7.795h90.7c4.23 0 7.65-3.49 7.65-7.795v-92.41c0-4.305-3.42-7.795-7.65-7.795ZM1568.65 662h-92.41c-4.31 0-7.8 3.49-7.8 7.795v92.41a7.796 7.796 0 0 0 7.8 7.795h92.41c4.3 0 7.79-3.49 7.79-7.795v-92.41c0-4.305-3.49-7.795-7.79-7.795ZM1681.69 551h-92.49a6.76 6.76 0 0 0-6.76 6.754v92.492a6.76 6.76 0 0 0 6.76 6.754h92.49a6.75 6.75 0 0 0 6.75-6.754v-92.492a6.75 6.75 0 0 0-6.75-6.754ZM1793.69 551h-92.49a6.76 6.76 0 0 0-6.76 6.754v92.492a6.76 6.76 0 0 0 6.76 6.754h92.49a6.75 6.75 0 0 0 6.75-6.754v-92.492a6.75 6.75 0 0 0-6.75-6.754ZM1906.69 551h-92.49a6.76 6.76 0 0 0-6.76 6.754v92.492a6.76 6.76 0 0 0 6.76 6.754h92.49a6.75 6.75 0 0 0 6.75-6.754v-92.492a6.75 6.75 0 0 0-6.75-6.754ZM1342.79 662h-90.7c-4.22 0-7.65 3.49-7.65 7.795v92.41c0 4.305 3.43 7.795 7.65 7.795h90.7c4.23 0 7.65-3.49 7.65-7.795v-92.41c0-4.305-3.42-7.795-7.65-7.795ZM1679.43 662h-87.97c-4.98 0-9.02 4.113-9.02 9.186v89.628c0 5.073 4.04 9.186 9.02 9.186h87.97c4.97 0 9.01-4.113 9.01-9.186v-89.628c0-5.073-4.04-9.186-9.01-9.186ZM1791.43 662h-87.97c-4.98 0-9.02 4.113-9.02 9.186v89.628c0 5.073 4.04 9.186 9.02 9.186h87.97c4.97 0 9.01-4.113 9.01-9.186v-89.628c0-5.073-4.04-9.186-9.01-9.186ZM1904.43 662h-87.97c-4.98 0-9.02 4.113-9.02 9.186v89.628c0 5.073 4.04 9.186 9.02 9.186h87.97c4.97 0 9.01-4.113 9.01-9.186v-89.628c0-5.073-4.04-9.186-9.01-9.186ZM1679.43 774h-87.97c-4.98 0-9.02 4.037-9.02 9.016v87.968c0 4.979 4.04 9.016 9.02 9.016h87.97c4.97 0 9.01-4.037 9.01-9.016v-87.968c0-4.979-4.04-9.016-9.01-9.016ZM1791.43 774h-87.97c-4.98 0-9.02 4.037-9.02 9.016v87.968c0 4.979 4.04 9.016 9.02 9.016h87.97c4.97 0 9.01-4.037 9.01-9.016v-87.968c0-4.979-4.04-9.016-9.01-9.016ZM1904.43 774h-87.97c-4.98 0-9.02 4.037-9.02 9.016v87.968c0 4.979 4.04 9.016 9.02 9.016h87.97c4.97 0 9.01-4.037 9.01-9.016v-87.968c0-4.979-4.04-9.016-9.01-9.016ZM1342.79 774h-90.7a7.653 7.653 0 0 0-7.65 7.651v90.698a7.653 7.653 0 0 0 7.65 7.651h90.7c4.23 0 7.65-3.425 7.65-7.651v-90.698a7.647 7.647 0 0 0-7.65-7.651ZM1454.79 774h-90.7a7.653 7.653 0 0 0-7.65 7.651v90.698a7.653 7.653 0 0 0 7.65 7.651h90.7c4.23 0 7.65-3.425 7.65-7.651v-90.698a7.647 7.647 0 0 0-7.65-7.651ZM1568.65 774h-92.41c-4.31 0-7.8 3.425-7.8 7.651v90.698c0 4.226 3.49 7.651 7.8 7.651h92.41c4.3 0 7.79-3.425 7.79-7.651v-90.698c0-4.226-3.49-7.651-7.79-7.651ZM1904.43 886h-87.97c-4.98 0-9.02 4.037-9.02 9.016v87.968c0 4.979 4.04 9.016 9.02 9.016h87.97c4.97 0 9.01-4.037 9.01-9.016v-87.968c0-4.979-4.04-9.016-9.01-9.016ZM1342.79 886h-90.7a7.653 7.653 0 0 0-7.65 7.651v90.698a7.653 7.653 0 0 0 7.65 7.651h90.7c4.23 0 7.65-3.425 7.65-7.651v-90.698a7.647 7.647 0 0 0-7.65-7.651ZM1454.79 886h-90.7a7.653 7.653 0 0 0-7.65 7.651v90.698a7.653 7.653 0 0 0 7.65 7.651h90.7c4.23 0 7.65-3.425 7.65-7.651v-90.698a7.647 7.647 0 0 0-7.65-7.651ZM1568.65 886h-92.41c-4.31 0-7.8 3.425-7.8 7.651v90.698c0 4.226 3.49 7.651 7.8 7.651h92.41c4.3 0 7.79-3.425 7.79-7.651v-90.698c0-4.226-3.49-7.651-7.79-7.651ZM1679.43 886h-87.97c-4.98 0-9.02 4.037-9.02 9.016v87.968c0 4.979 4.04 9.016 9.02 9.016h87.97c4.97 0 9.01-4.037 9.01-9.016v-87.968c0-4.979-4.04-9.016-9.01-9.016ZM1791.43 886h-87.97c-4.98 0-9.02 4.037-9.02 9.016v87.968c0 4.979 4.04 9.016 9.02 9.016h87.97c4.97 0 9.01-4.037 9.01-9.016v-87.968c0-4.979-4.04-9.016-9.01-9.016ZM1229.72 551h-91.56c-4.26 0-7.72 3.425-7.72 7.651v90.698c0 4.226 3.46 7.651 7.72 7.651h91.56c4.26 0 7.72-3.425 7.72-7.651v-90.698c0-4.226-3.46-7.651-7.72-7.651ZM1229.72 662h-91.56c-4.26 0-7.72 3.49-7.72 7.795v92.41c0 4.305 3.46 7.795 7.72 7.795h91.56c4.26 0 7.72-3.49 7.72-7.795v-92.41c0-4.305-3.46-7.795-7.72-7.795ZM1229.72 774h-91.56c-4.26 0-7.72 3.425-7.72 7.651v90.698c0 4.226 3.46 7.651 7.72 7.651h91.56c4.26 0 7.72-3.425 7.72-7.651v-90.698c0-4.226-3.46-7.651-7.72-7.651ZM1229.72 886h-91.56c-4.26 0-7.72 3.425-7.72 7.651v90.698c0 4.226 3.46 7.651 7.72 7.651h91.56c4.26 0 7.72-3.425 7.72-7.651v-90.698c0-4.226-3.46-7.651-7.72-7.651ZM1342.79-12h-90.7a7.653 7.653 0 0 0-7.65 7.65v90.7c0 4.225 3.43 7.65 7.65 7.65h90.7c4.23 0 7.65-3.425 7.65-7.65v-90.7c0-4.225-3.42-7.65-7.65-7.65ZM1454.79-12h-90.7a7.653 7.653 0 0 0-7.65 7.65v90.7c0 4.225 3.43 7.65 7.65 7.65h90.7c4.23 0 7.65-3.425 7.65-7.65v-90.7c0-4.225-3.42-7.65-7.65-7.65ZM1568.65-12h-92.41c-4.31 0-7.8 3.425-7.8 7.65v90.7c0 4.225 3.49 7.65 7.8 7.65h92.41c4.3 0 7.79-3.425 7.79-7.65v-90.7c0-4.225-3.49-7.65-7.79-7.65ZM1454.79 99h-90.7c-4.22 0-7.65 3.458-7.65 7.723v91.554c0 4.265 3.43 7.723 7.65 7.723h90.7c4.23 0 7.65-3.458 7.65-7.723v-91.554c0-4.265-3.42-7.723-7.65-7.723ZM1568.65 99h-92.41c-4.31 0-7.8 3.458-7.8 7.723v91.554c0 4.265 3.49 7.723 7.8 7.723h92.41c4.3 0 7.79-3.458 7.79-7.723v-91.554c0-4.265-3.49-7.723-7.79-7.723ZM1681.69-12h-92.49a6.76 6.76 0 0 0-6.76 6.754v92.492A6.76 6.76 0 0 0 1589.2 94h92.49a6.75 6.75 0 0 0 6.75-6.754V-5.246a6.75 6.75 0 0 0-6.75-6.754ZM1793.69-12h-92.49a6.76 6.76 0 0 0-6.76 6.754v92.492A6.76 6.76 0 0 0 1701.2 94h92.49a6.75 6.75 0 0 0 6.75-6.754V-5.246a6.75 6.75 0 0 0-6.75-6.754ZM1906.69-12h-92.49a6.76 6.76 0 0 0-6.76 6.754v92.492A6.76 6.76 0 0 0 1814.2 94h92.49a6.75 6.75 0 0 0 6.75-6.754V-5.246a6.75 6.75 0 0 0-6.75-6.754ZM1342.79 99h-90.7c-4.22 0-7.65 3.458-7.65 7.723v91.554c0 4.265 3.43 7.723 7.65 7.723h90.7c4.23 0 7.65-3.458 7.65-7.723v-91.554c0-4.265-3.42-7.723-7.65-7.723ZM1679.43 99h-87.97c-4.98 0-9.02 4.075-9.02 9.101v88.798c0 5.026 4.04 9.101 9.02 9.101h87.97c4.97 0 9.01-4.075 9.01-9.101v-88.798c0-5.026-4.04-9.101-9.01-9.101ZM1791.43 99h-87.97c-4.98 0-9.02 4.075-9.02 9.101v88.798c0 5.026 4.04 9.101 9.02 9.101h87.97c4.97 0 9.01-4.075 9.01-9.101v-88.798c0-5.026-4.04-9.101-9.01-9.101ZM1904.43 99h-87.97c-4.98 0-9.02 4.075-9.02 9.101v88.798c0 5.026 4.04 9.101 9.02 9.101h87.97c4.97 0 9.01-4.075 9.01-9.101v-88.798c0-5.026-4.04-9.101-9.01-9.101ZM1679.43 211h-87.97c-4.98 0-9.02 4.037-9.02 9.016v87.968c0 4.979 4.04 9.016 9.02 9.016h87.97c4.97 0 9.01-4.037 9.01-9.016v-87.968c0-4.979-4.04-9.016-9.01-9.016ZM1791.43 211h-87.97c-4.98 0-9.02 4.037-9.02 9.016v87.968c0 4.979 4.04 9.016 9.02 9.016h87.97c4.97 0 9.01-4.037 9.01-9.016v-87.968c0-4.979-4.04-9.016-9.01-9.016ZM1904.43 211h-87.97c-4.98 0-9.02 4.037-9.02 9.016v87.968c0 4.979 4.04 9.016 9.02 9.016h87.97c4.97 0 9.01-4.037 9.01-9.016v-87.968c0-4.979-4.04-9.016-9.01-9.016ZM1342.79 211h-90.7a7.653 7.653 0 0 0-7.65 7.651v90.698a7.653 7.653 0 0 0 7.65 7.651h90.7c4.23 0 7.65-3.425 7.65-7.651v-90.698a7.647 7.647 0 0 0-7.65-7.651ZM1454.79 211h-90.7a7.653 7.653 0 0 0-7.65 7.651v90.698a7.653 7.653 0 0 0 7.65 7.651h90.7c4.23 0 7.65-3.425 7.65-7.651v-90.698a7.647 7.647 0 0 0-7.65-7.651ZM1568.65 211h-92.41c-4.31 0-7.8 3.425-7.8 7.651v90.698c0 4.226 3.49 7.651 7.8 7.651h92.41c4.3 0 7.79-3.425 7.79-7.651v-90.698c0-4.226-3.49-7.651-7.79-7.651ZM1904.43 323h-87.97c-4.98 0-9.02 4.037-9.02 9.016v87.968c0 4.979 4.04 9.016 9.02 9.016h87.97c4.97 0 9.01-4.037 9.01-9.016v-87.968c0-4.979-4.04-9.016-9.01-9.016ZM1342.79 323h-90.7a7.653 7.653 0 0 0-7.65 7.651v90.698a7.653 7.653 0 0 0 7.65 7.651h90.7c4.23 0 7.65-3.425 7.65-7.651v-90.698a7.647 7.647 0 0 0-7.65-7.651ZM1454.79 323h-90.7a7.653 7.653 0 0 0-7.65 7.651v90.698a7.653 7.653 0 0 0 7.65 7.651h90.7c4.23 0 7.65-3.425 7.65-7.651v-90.698a7.647 7.647 0 0 0-7.65-7.651ZM1568.65 323h-92.41c-4.31 0-7.8 3.425-7.8 7.651v90.698c0 4.226 3.49 7.651 7.8 7.651h92.41c4.3 0 7.79-3.425 7.79-7.651v-90.698c0-4.226-3.49-7.651-7.79-7.651ZM1679.43 323h-87.97c-4.98 0-9.02 4.037-9.02 9.016v87.968c0 4.979 4.04 9.016 9.02 9.016h87.97c4.97 0 9.01-4.037 9.01-9.016v-87.968c0-4.979-4.04-9.016-9.01-9.016ZM1791.43 323h-87.97c-4.98 0-9.02 4.037-9.02 9.016v87.968c0 4.979 4.04 9.016 9.02 9.016h87.97c4.97 0 9.01-4.037 9.01-9.016v-87.968c0-4.979-4.04-9.016-9.01-9.016ZM1342.79 433h-90.7c-4.22 0-7.65 3.49-7.65 7.795v92.41c0 4.305 3.43 7.795 7.65 7.795h90.7c4.23 0 7.65-3.49 7.65-7.795v-92.41c0-4.305-3.42-7.795-7.65-7.795ZM1229.72-12h-91.56c-4.26 0-7.72 3.425-7.72 7.65v90.7c0 4.225 3.46 7.65 7.72 7.65h91.56c4.26 0 7.72-3.425 7.72-7.65v-90.7c0-4.225-3.46-7.65-7.72-7.65ZM1229.72 99h-91.56a7.724 7.724 0 0 0-7.72 7.723v91.554a7.724 7.724 0 0 0 7.72 7.723h91.56c4.26 0 7.72-3.458 7.72-7.723v-91.554a7.724 7.724 0 0 0-7.72-7.723ZM1229.72 211h-91.56c-4.26 0-7.72 3.425-7.72 7.651v90.698c0 4.226 3.46 7.651 7.72 7.651h91.56c4.26 0 7.72-3.425 7.72-7.651v-90.698c0-4.226-3.46-7.651-7.72-7.651ZM1229.72 323h-91.56c-4.26 0-7.72 3.425-7.72 7.651v90.698c0 4.226 3.46 7.651 7.72 7.651h91.56c4.26 0 7.72-3.425 7.72-7.651v-90.698c0-4.226-3.46-7.651-7.72-7.651ZM1229.72 433h-91.56c-4.26 0-7.72 3.49-7.72 7.795v92.41c0 4.305 3.46 7.795 7.72 7.795h91.56c4.26 0 7.72-3.49 7.72-7.795v-92.41c0-4.305-3.46-7.795-7.72-7.795ZM1454.79 433h-90.7c-4.22 0-7.65 3.49-7.65 7.795v92.41c0 4.305 3.43 7.795 7.65 7.795h90.7c4.23 0 7.65-3.49 7.65-7.795v-92.41c0-4.305-3.42-7.795-7.65-7.795ZM1568.65 433h-92.41c-4.31 0-7.8 3.49-7.8 7.795v92.41a7.796 7.796 0 0 0 7.8 7.795h92.41c4.3 0 7.79-3.49 7.79-7.795v-92.41c0-4.305-3.49-7.795-7.79-7.795ZM1682.89 433h-94.9c-3.06 0-5.55 2.533-5.55 5.657v96.686c0 3.124 2.49 5.657 5.55 5.657h94.9c3.07 0 5.55-2.533 5.55-5.657v-96.686c0-3.124-2.48-5.657-5.55-5.657ZM1794.89 433h-94.9c-3.06 0-5.55 2.533-5.55 5.657v96.686c0 3.124 2.49 5.657 5.55 5.657h94.9c3.07 0 5.55-2.533 5.55-5.657v-96.686c0-3.124-2.48-5.657-5.55-5.657ZM1907.89 433h-94.9c-3.06 0-5.55 2.533-5.55 5.657v96.686c0 3.124 2.49 5.657 5.55 5.657h94.9c3.07 0 5.55-2.533 5.55-5.657v-96.686c0-3.124-2.48-5.657-5.55-5.657Z"/><path fill="url(#b)" d="M.441 0h1920v1001H.441z"/></g><g opacity=".4"><g style="mix-blend-mode:luminosity"><circle cx="1631.85" cy="484.674" r="52.266" fill="#F6A4B2"/><circle cx="1631.85" cy="484.674" r="52.266" stroke="url(#c)" stroke-linecap="round" stroke-width="4"/></g><mask id="e" fill="#fff"><path d="M1598.44 466.291h2.99l4.56 7.934h.19l4.56-7.934h2.99l-6.33 10.602v6.852h-2.63v-6.852zm32.05 8.727c0 1.863-.35 3.466-1.03 4.807-.68 1.335-1.61 2.363-2.8 3.085-1.18.716-2.53 1.074-4.03 1.074q-2.265 0-4.05-1.074c-1.18-.722-2.11-1.753-2.8-3.094q-1.02-2.011-1.02-4.798 0-2.796 1.02-4.798c.69-1.341 1.62-2.37 2.8-3.086q1.785-1.082 4.05-1.082c1.5 0 2.85.361 4.03 1.082 1.19.716 2.12 1.745 2.8 3.086.68 1.335 1.03 2.934 1.03 4.798m-2.61 0q0-2.132-.69-3.588c-.46-.977-1.08-1.716-1.88-2.216-.79-.506-1.68-.759-2.68-.759q-1.515 0-2.7.759c-.79.5-1.41 1.239-1.87 2.216-.45.971-.68 2.167-.68 3.588 0 1.42.23 2.619.68 3.596.46.972 1.08 1.711 1.87 2.216q1.185.75 2.7.75c1 0 1.89-.25 2.68-.75.8-.505 1.42-1.244 1.88-2.216q.69-1.466.69-3.596m17.11-8.727h2.65v11.48q0 1.832-.87 3.247c-.57.937-1.38 1.676-2.42 2.216-1.04.534-2.25.801-3.65.801-1.39 0-2.61-.267-3.65-.801-1.04-.54-1.85-1.279-2.42-2.216-.57-.943-.86-2.026-.86-3.247v-11.48h2.63v11.267c0 .789.18 1.491.52 2.105.35.613.85 1.096 1.49 1.449.65.346 1.41.519 2.29.519s1.65-.173 2.29-.519a3.63 3.63 0 0 0 1.48-1.449c.35-.614.52-1.316.52-2.105zm6.47 17.454v-17.454h6.23q2.025 0 3.36.698 1.35.699 2.01 1.935c.45.818.67 1.764.67 2.838 0 1.068-.23 2.009-.67 2.821-.45.807-1.12 1.435-2.02 1.884q-1.335.673-3.36.673h-4.72v-2.267h4.48c.85 0 1.54-.122 2.08-.367.54-.244.93-.599 1.18-1.065s.38-1.025.38-1.679q0-.988-.39-1.713c-.25-.483-.64-.852-1.18-1.108-.53-.261-1.24-.392-2.11-.392h-3.3v15.196zm8.62-7.875 4.31 7.875h-3l-4.22-7.875zm-49 36.875h-2.8l6.29-17.454h3.04l6.28 17.454h-2.8l-4.93-14.284h-.14zm.47-6.835h9.07v2.216h-9.07zm14.86 6.835v-17.454h6.22c1.36 0 2.48.247 3.38.741.89.494 1.56 1.171 2 2.028q.66 1.28.66 2.881c0 1.074-.22 2.04-.67 2.898q-.66 1.278-2.01 2.028c-.89.495-2.01.742-3.37.742h-4.28v-2.233h4.04c.86 0 1.56-.148 2.09-.443.54-.302.93-.711 1.18-1.228s.37-1.105.37-1.764-.12-1.244-.37-1.756c-.25-.511-.65-.911-1.19-1.201-.53-.29-1.23-.435-2.11-.435h-3.31v15.196zm15.35 0v-17.454h6.22c1.36 0 2.49.247 3.38.741s1.56 1.171 2 2.028c.44.853.67 1.813.67 2.881 0 1.074-.23 2.04-.68 2.898q-.66 1.278-2.01 2.028c-.89.495-2.01.742-3.37.742h-4.27v-2.233h4.04c.85 0 1.55-.148 2.08-.443.54-.302.93-.711 1.18-1.228s.38-1.105.38-1.764-.13-1.244-.38-1.756a2.68 2.68 0 0 0-1.18-1.201c-.54-.29-1.24-.435-2.12-.435h-3.31v15.196z"/></mask><path fill="#fff" d="M1598.44 466.291h2.99l4.56 7.934h.19l4.56-7.934h2.99l-6.33 10.602v6.852h-2.63v-6.852zm32.05 8.727c0 1.863-.35 3.466-1.03 4.807-.68 1.335-1.61 2.363-2.8 3.085-1.18.716-2.53 1.074-4.03 1.074q-2.265 0-4.05-1.074c-1.18-.722-2.11-1.753-2.8-3.094q-1.02-2.011-1.02-4.798 0-2.796 1.02-4.798c.69-1.341 1.62-2.37 2.8-3.086q1.785-1.082 4.05-1.082c1.5 0 2.85.361 4.03 1.082 1.19.716 2.12 1.745 2.8 3.086.68 1.335 1.03 2.934 1.03 4.798m-2.61 0q0-2.132-.69-3.588c-.46-.977-1.08-1.716-1.88-2.216-.79-.506-1.68-.759-2.68-.759q-1.515 0-2.7.759c-.79.5-1.41 1.239-1.87 2.216-.45.971-.68 2.167-.68 3.588 0 1.42.23 2.619.68 3.596.46.972 1.08 1.711 1.87 2.216q1.185.75 2.7.75c1 0 1.89-.25 2.68-.75.8-.505 1.42-1.244 1.88-2.216q.69-1.466.69-3.596m17.11-8.727h2.65v11.48q0 1.832-.87 3.247c-.57.937-1.38 1.676-2.42 2.216-1.04.534-2.25.801-3.65.801-1.39 0-2.61-.267-3.65-.801-1.04-.54-1.85-1.279-2.42-2.216-.57-.943-.86-2.026-.86-3.247v-11.48h2.63v11.267c0 .789.18 1.491.52 2.105.35.613.85 1.096 1.49 1.449.65.346 1.41.519 2.29.519s1.65-.173 2.29-.519a3.63 3.63 0 0 0 1.48-1.449c.35-.614.52-1.316.52-2.105zm6.47 17.454v-17.454h6.23q2.025 0 3.36.698 1.35.699 2.01 1.935c.45.818.67 1.764.67 2.838 0 1.068-.23 2.009-.67 2.821-.45.807-1.12 1.435-2.02 1.884q-1.335.673-3.36.673h-4.72v-2.267h4.48c.85 0 1.54-.122 2.08-.367.54-.244.93-.599 1.18-1.065s.38-1.025.38-1.679q0-.988-.39-1.713c-.25-.483-.64-.852-1.18-1.108-.53-.261-1.24-.392-2.11-.392h-3.3v15.196zm8.62-7.875 4.31 7.875h-3l-4.22-7.875zm-49 36.875h-2.8l6.29-17.454h3.04l6.28 17.454h-2.8l-4.93-14.284h-.14zm.47-6.835h9.07v2.216h-9.07zm14.86 6.835v-17.454h6.22c1.36 0 2.48.247 3.38.741.89.494 1.56 1.171 2 2.028q.66 1.28.66 2.881c0 1.074-.22 2.04-.67 2.898q-.66 1.278-2.01 2.028c-.89.495-2.01.742-3.37.742h-4.28v-2.233h4.04c.86 0 1.56-.148 2.09-.443.54-.302.93-.711 1.18-1.228s.37-1.105.37-1.764-.12-1.244-.37-1.756c-.25-.511-.65-.911-1.19-1.201-.53-.29-1.23-.435-2.11-.435h-3.31v15.196zm15.35 0v-17.454h6.22c1.36 0 2.49.247 3.38.741s1.56 1.171 2 2.028c.44.853.67 1.813.67 2.881 0 1.074-.23 2.04-.68 2.898q-.66 1.278-2.01 2.028c-.89.495-2.01.742-3.37.742h-4.27v-2.233h4.04c.85 0 1.55-.148 2.08-.443.54-.302.93-.711 1.18-1.228s.38-1.105.38-1.764-.13-1.244-.38-1.756a2.68 2.68 0 0 0-1.18-1.201c-.54-.29-1.24-.435-2.12-.435h-3.31v15.196z"/><path fill="url(#d)" d="M1598.44 466.291v-4h-7.05l3.61 6.051zm2.99 0 3.47-1.993-1.16-2.007h-2.31zm4.56 7.934-3.47 1.993 1.15 2.007h2.32zm.19 0v4h2.31l1.15-2.007zm4.56-7.934v-4h-2.32l-1.15 2.007zm2.99 0 3.43 2.051 3.62-6.051h-7.05zm-6.33 10.602-3.44-2.051-.56.947v1.104zm0 6.852v4h4v-4zm-2.63 0h-4v4h4zm0-6.852h4v-1.104l-.57-.947zm-6.33-6.602h2.99v-8h-2.99zm-.48-2.007 4.56 7.934 6.94-3.986-4.56-7.934zm8.03 9.941h.19v-8h-.19zm3.65-2.007 4.56-7.934-6.93-3.986-4.56 7.934zm1.1-5.927h2.99v-8h-2.99zm-.45-6.052-6.33 10.603 6.87 4.102 6.33-10.602zm-6.89 12.654v6.852h8v-6.852zm4 2.852h-2.63v8h2.63zm1.37 4v-6.852h-8v6.852zm-.57-8.903-6.33-10.603-6.87 4.103 6.34 10.602zm21.26 4.983 3.57 1.819v-.006zm-2.8 3.085 2.07 3.421.01-.003zm-8.08 0-2.08 3.414v.006l.01.006zm-2.8-3.094 3.57-1.813zm0-9.596 3.57 1.819v-.006zm2.8-3.086 2.07 3.422.01-.003zm8.08 0-2.09 3.414.01.006.01.006zm2.8 3.086-3.56 1.813v.006zm-2.27 1.21-3.63 1.687.01.012v.013zm-1.88-2.216-2.15 3.369.01.009.01.008zm-5.38 0 2.14 3.38.01-.006.01-.005zm-1.87 2.216-3.62-1.704v.009zm0 7.184-3.63 1.687.01.013v.013zm1.87 2.216-2.15 3.369.01.006.01.005zm5.38 0 2.14 3.38.01-.004zm1.88-2.216-3.62-1.704-.01.009zm-.7-3.596c0 1.381-.26 2.333-.59 2.994l7.13 3.626c1.03-2.021 1.46-4.274 1.46-6.62zm-.59 2.988c-.37.728-.81 1.179-1.32 1.486l4.16 6.836c1.87-1.137 3.29-2.743 4.29-4.684zm-1.31 1.483c-.5.303-1.12.495-1.96.495v8c2.17 0 4.24-.525 6.1-1.653zm-1.96.495c-.85 0-1.48-.193-1.99-.5l-4.13 6.852c1.87 1.125 3.95 1.648 6.12 1.648zm-1.97-.488c-.49-.302-.93-.753-1.31-1.493l-7.13 3.626c.99 1.942 2.41 3.554 4.28 4.695zm-1.31-1.493c-.34-.662-.59-1.612-.59-2.985h-8c0 2.342.43 4.592 1.46 6.611zm-.59-2.985c0-1.382.25-2.328.59-2.979l-7.13-3.639c-1.03 2.019-1.46 4.272-1.46 6.618zm.59-2.985c.37-.738.81-1.182 1.3-1.477l-4.14-6.843c-1.88 1.136-3.3 2.749-4.29 4.694zm1.31-1.48c.5-.308 1.12-.501 1.97-.501v-8c-2.18 0-4.26.529-6.13 1.664zm1.97-.501c.83 0 1.45.191 1.94.496l4.17-6.828c-1.86-1.138-3.94-1.668-6.11-1.668zm1.96.508c.5.297.94.74 1.31 1.473l7.13-3.626c-.99-1.95-2.42-3.563-4.31-4.698zm1.31 1.479c.33.651.59 1.597.59 2.979h8c0-2.346-.43-4.599-1.46-6.618zm5.98 2.979c0-1.831-.3-3.651-1.08-5.301l-7.23 3.425c.14.293.31.866.31 1.876zm-1.07-5.275c-.73-1.571-1.83-2.948-3.37-3.916l-4.26 6.773c.05.032.2.133.38.517zm-3.34-3.898c-1.48-.945-3.13-1.39-4.84-1.39v8c.29 0 .42.062.53.128zm-4.84-1.39c-1.71 0-3.37.442-4.85 1.39l4.31 6.738c.1-.064.24-.128.54-.128zm-4.83 1.379c-1.53.967-2.63 2.336-3.36 3.892l7.24 3.408c.19-.399.34-.507.39-.54zm-3.36 3.901c-.77 1.645-1.06 3.458-1.06 5.283h8c0-1.016.16-1.595.3-1.893zm-1.06 5.283c0 1.826.29 3.638 1.05 5.283l7.26-3.373c-.15-.309-.31-.895-.31-1.91zm1.06 5.309c.74 1.548 1.83 2.905 3.34 3.872l4.31-6.737c-.07-.045-.23-.165-.42-.56zm3.36 3.883c1.47.936 3.12 1.37 4.83 1.37v-8c-.31 0-.45-.065-.56-.129zm4.83 1.37c1.7 0 3.35-.436 4.82-1.37l-4.28-6.759c-.1.066-.24.129-.54.129zm4.83-1.374c1.52-.968 2.62-2.333 3.35-3.897l-7.25-3.39c-.17.38-.33.493-.39.536zm3.35-3.887c.77-1.651 1.07-3.469 1.07-5.301h-8c0 1.009-.17 1.588-.31 1.892zm14.18-14.028v-4h-4v4zm2.65 0h4v-4h-4zm-.87 14.727 3.42 2.088v-.009zm-2.42 2.216 1.83 3.558.01-.004.01-.004zm-7.3 0-1.84 3.55.01.004v.004zm-2.42-2.216-3.42 2.079.01.009zm-.86-14.727v-4h-4v4zm2.63 0h4v-4h-4zm.52 13.372-3.48 1.967.01.012v.012zm1.49 1.449-1.92 3.506.01.007.01.006zm4.58 0 1.9 3.519.01-.005zm1.48-1.449-3.48-1.967-.01.012v.012zm.52-9.372h2.65v-8h-2.65zm-1.35-4v11.48h8v-11.48zm0 11.48c0 .568-.13.916-.28 1.168l6.83 4.158c1-1.635 1.45-3.452 1.45-5.326zm-.28 1.159c-.17.275-.41.526-.85.754l3.69 7.1c1.64-.852 3.01-2.078 3.99-3.678zm-.83.746c-.38.192-.95.359-1.83.359v8c1.91 0 3.78-.367 5.48-1.243zm-1.83.359c-.88 0-1.45-.166-1.82-.359l-3.66 7.116c1.71.875 3.57 1.243 5.48 1.243zm-1.81-.351c-.43-.228-.68-.479-.85-.754l-6.82 4.176c.98 1.6 2.35 2.826 3.99 3.678zm-.84-.745c-.16-.252-.28-.6-.28-1.168h-8c0 1.874.45 3.691 1.44 5.326zm-.28-1.168v-11.48h-8v11.48zm-4-7.48h2.63v-8h-2.63zm-1.37-4v11.267h8v-11.267zm0 11.267c0 1.394.31 2.788 1.04 4.072l6.97-3.934c.01.017.01.028.01.021-.01-.009-.02-.058-.02-.159zm1.05 4.096a7.85 7.85 0 0 0 3.04 2.964l3.85-7.013c-.01-.007-.02-.01-.02-.008q.015.004.03.019l.03.033c0 .011.01.019.01.022zm3.06 2.977c1.34.721 2.78 1 4.19 1v-8c-.36 0-.44-.067-.39-.039zm4.19 1c1.41 0 2.85-.277 4.19-1l-3.8-7.039c.06-.03-.03.039-.39.039zm4.2-1.005a7.65 7.65 0 0 0 3.07-3.021l-6.99-3.885a.4.4 0 0 1 .07-.096c.04-.032.05-.038.03-.026zm3.06-2.996c.72-1.284 1.03-2.678 1.03-4.072h-8c0 .101-.01.15-.01.159 0 .007 0-.004.01-.021zm1.03-4.072v-11.267h-8v11.267zm2.47 6.187h-4v4h4zm0-17.454v-4h-4v4zm9.59.698-1.85 3.546.01.005zm2.01 1.935-3.52 1.895.01.01zm0 5.659-3.51-1.934v.008zm-2.02 1.884-1.78-3.578-.01.005zm-8.08.673h-4v4h4zm0-2.267v-4h-4v4zm6.56-.367-1.65-3.644-.01.004-.01.003zm1.17-4.457-3.55 1.839.01.016.01.017zm-1.18-1.108-1.76 3.593.02.011.03.011zm-5.41-.392v-4h-4v4zm0 15.196v4h4v-4zm5.98-7.875 3.51-1.921-1.14-2.079h-2.37zm4.31 7.875v4h6.75l-3.24-5.921zm-3 0-3.52 1.892 1.13 2.108h2.39zm-4.22-7.875v-4h-6.69l3.16 5.892zm-1.71 7.875v-17.454h-8v17.454zm-4-13.454h6.23v-8h-6.23zm6.23 0c.92 0 1.35.161 1.51.244l3.7-7.091c-1.62-.849-3.43-1.153-5.21-1.153zm1.52.249c.24.127.3.221.33.279l7.05-3.79c-.86-1.59-2.14-2.785-3.69-3.59zm.34.289c.08.149.18.421.18.933h8c0-1.636-.34-3.255-1.15-4.743zm.18.933c0 .495-.1.751-.18.887l7.01 3.868c.82-1.488 1.17-3.113 1.17-4.755zm-.18.895c-.02.03-.06.112-.29.232l3.57 7.155c1.56-.777 2.86-1.951 3.73-3.535zm-.3.237c-.18.086-.63.246-1.57.246v8c1.76 0 3.55-.289 5.16-1.1zm-1.57.246h-4.72v8h4.72zm-.72 4v-2.267h-8v2.267zm-4 1.733h4.48v-8h-4.48zm4.48 0c1.19 0 2.51-.163 3.74-.729l-3.33-7.275c.1-.044.13-.04.05-.027a2.7 2.7 0 0 1-.46.031zm3.73-.722c1.24-.561 2.34-1.485 3.06-2.819l-7.05-3.782c.09-.176.22-.337.36-.467.15-.127.27-.193.33-.221zm3.06-2.819c.63-1.169.85-2.41.85-3.57h-8c0 .147-.03.025.1-.212zm.85-3.57c0-1.178-.23-2.417-.85-3.584l-7.07 3.743a1 1 0 0 1-.08-.208c-.01-.034 0-.023 0 .049zm-.83-3.552c-.7-1.337-1.78-2.292-3.03-2.884l-3.42 7.23a1.1 1.1 0 0 1-.32-.225 1.8 1.8 0 0 1-.34-.443zm-2.98-2.862c-1.28-.624-2.65-.799-3.87-.799v8c.24 0 .39.019.45.03.06.012.02.011-.1-.045zm-3.87-.799h-3.3v8h3.3zm-7.3 4v15.196h8v-15.196zm4 11.196h-2.64v8h2.64zm2.47-1.954 4.32 7.875 7.01-3.842-4.31-7.875zm7.82 1.954h-3v8h3zm.53 2.108-4.23-7.875-7.05 3.784 4.23 7.875zm-7.75-1.983h2.91v-8h-2.91zm-46.09 32.875v4h2.85l.93-2.692zm-2.8 0-3.76-1.354-1.93 5.354h5.69zm6.29-17.454v-4h-2.82l-.95 2.645zm3.04 0 3.76-1.355-.95-2.645h-2.81zm6.28 17.454v4h5.69l-1.93-5.354zm-2.8 0-3.78 1.306.93 2.694h2.85zm-4.93-14.284 3.78-1.306-.93-2.694h-2.85zm-.14 0v-4h-2.85l-.93 2.692zm-4.47 7.449v-4h-4v4zm9.07 0h4v-4h-4zm0 2.216v4h4v-4zm-9.07 0h-4v4h4zm-.47.619h-2.8v8h2.8zm.97 5.355 6.28-17.455-7.53-2.709-6.28 17.455zm2.52-14.809h3.04v-8h-3.04zm-.73-2.646 6.29 17.455 7.52-2.709-6.28-17.455zm10.05 12.1h-2.8v8h2.8zm.98 2.694-4.93-14.284-7.56 2.612 4.93 14.284zm-8.71-16.978h-.14v8h.14zm-3.92 2.692-4.94 14.284 7.56 2.616 4.94-14.284zm-.69 12.757h9.07v-8h-9.07zm5.07-4v2.216h8v-2.216zm4-1.784h-9.07v8h9.07zm-5.07 4v-2.216h-8v2.216zm10.86 4.619h-4v4h4zm0-17.454v-4h-4v4zm11.6 2.769-3.55 1.836v.01zm-.01 5.779-3.54-1.854-.01.008zm-2.01 2.028 1.94 3.499.01-.004zm-7.65.742h-4v4h4zm0-2.233v-4h-4v4zm6.13-.443 1.94 3.5.01-.008.02-.008zm-.01-5.949-1.9 3.516v.004l.01.004zm-5.42-.435v-4h-4v4zm0 15.196v4h4v-4zm1.37 0v-17.454h-8v17.454zm-4-13.454h6.22v-8h-6.22zm6.22 0c.9 0 1.3.165 1.44.24l3.88-6.998c-1.65-.914-3.5-1.242-5.32-1.242zm1.44.24c.24.134.33.249.39.365l7.1-3.671c-.82-1.6-2.07-2.837-3.61-3.692zm.39.375c.12.221.21.536.21 1.035h8c0-1.637-.34-3.242-1.11-4.726zm.21 1.035c0 .5-.1.818-.21 1.044l7.08 3.708c.78-1.49 1.13-3.104 1.13-4.752zm-.22 1.052c-.05.109-.14.233-.41.38l3.9 6.989c1.53-.853 2.78-2.082 3.61-3.678zm-.4.376c-.14.075-.54.24-1.43.24v8c1.82 0 3.66-.33 5.31-1.243zm-1.43.24h-4.28v8h4.28zm-.28 4v-2.233h-8v2.233zm-4 1.767h4.04v-8h-4.04zm4.04 0c1.28 0 2.71-.214 4.03-.943l-3.87-7.001c.13-.072.2-.085.18-.08-.03.006-.13.024-.34.024zm4.06-.959a6.8 6.8 0 0 0 2.81-2.97l-7.2-3.483c.05-.114.13-.229.23-.332.1-.1.18-.158.23-.184zm2.81-2.97c.55-1.135.77-2.333.77-3.506h-8v.104-.026a1 1 0 0 0 .03-.055zm.77-3.506c0-1.172-.22-2.374-.78-3.512l-7.19 3.513c-.01-.025-.02-.047-.02-.065-.01-.018-.01-.03-.01-.034v.098zm-.78-3.512c-.64-1.323-1.67-2.315-2.88-2.97l-3.79 7.049a1 1 0 0 1-.25-.198c-.11-.112-.2-.24-.27-.368zm-2.87-2.961c-1.32-.717-2.75-.919-4.02-.919v8c.22 0 .34.019.38.027.03.007-.04-.003-.17-.076zm-4.02-.919h-3.31v8h3.31zm-7.31 4v15.196h8v-15.196zm4 11.196h-2.63v8h2.63zm12.72 4h-4v4h4zm0-17.454v-4h-4v4zm11.6 2.769-3.55 1.836v.01zm-.01 5.779-3.54-1.854-.01.008zm-2.01 2.028 1.94 3.499.01-.004zm-7.64.742h-4v4h4zm0-2.233v-4h-4v4zm6.12-.443 1.94 3.5.01-.008.02-.008zm0-5.949-1.91 3.516.01.004v.004zm-5.43-.435v-4h-4v4zm0 15.196v4h4v-4zm1.37 0v-17.454h-8v17.454zm-4-13.454h6.22v-8h-6.22zm6.22 0c.9 0 1.3.165 1.44.24l3.88-6.998c-1.65-.914-3.5-1.242-5.32-1.242zm1.44.24c.24.134.33.249.39.365l7.1-3.671c-.82-1.6-2.07-2.837-3.61-3.692zm.39.375c.12.221.22.536.22 1.035h8c0-1.637-.35-3.242-1.12-4.726zm.22 1.035c0 .5-.1.818-.22 1.044l7.09 3.708c.78-1.49 1.13-3.104 1.13-4.752zm-.23 1.052c-.05.109-.14.233-.41.38l3.9 6.989c1.53-.853 2.78-2.082 3.61-3.678zm-.4.376c-.13.075-.54.24-1.43.24v8c1.82 0 3.66-.33 5.31-1.243zm-1.43.24h-4.27v8h4.27zm-.27 4v-2.233h-8v2.233zm-4 1.767h4.04v-8h-4.04zm4.04 0c1.27 0 2.7-.214 4.02-.943l-3.87-7.001c.13-.072.2-.085.18-.08-.03.006-.13.024-.33.024zm4.05-.959a6.8 6.8 0 0 0 2.81-2.97l-7.2-3.483c.05-.114.13-.229.23-.332.1-.1.18-.158.23-.184zm2.81-2.97c.55-1.135.78-2.333.78-3.506h-8c0 .077-.01.108-.01.104 0-.002 0-.011.01-.026 0-.015.01-.034.02-.055zm.78-3.506c0-1.172-.23-2.374-.79-3.512l-7.18 3.513c-.02-.025-.02-.047-.03-.065s-.01-.03-.01-.034c0-.008.01.021.01.098zm-.79-3.512c-.64-1.323-1.66-2.315-2.88-2.97l-3.79 7.049a1.36 1.36 0 0 1-.51-.566zm-2.87-2.961c-1.32-.717-2.75-.919-4.02-.919v8c.22 0 .34.019.38.027.04.007-.04-.003-.17-.076zm-4.02-.919h-3.31v8h3.31zm-7.31 4v15.196h8v-15.196zm4 11.196h-2.63v8h2.63z" mask="url(#e)"/><mask id="g" width="119" height="119" x="1684" y="199" maskUnits="userSpaceOnUse" style="mask-type:alpha"><circle cx="58.706" cy="58.706" r="58.706" fill="url(#f)" transform="matrix(-1 0 0 1 1802.09 199.899)"/></mask><g clip-path="url(#h)" mask="url(#g)"><path fill="#4285F4" d="M1730.91 292.513v-27.046l-8.39-7.673-7.52-4.258v34.204a4.77 4.77 0 0 0 4.77 4.773z"/><path fill="#34A853" d="M1769.09 292.513h11.13c2.64 0 4.78-2.14 4.78-4.773v-34.204l-8.52 4.877-7.39 7.055z"/><path fill="#EA4335" d="m1730.91 265.467-1.14-10.567 1.14-10.114 19.09 14.318 19.09-14.318 1.28 9.568-1.28 11.113-19.09 14.319z"/><path fill="#FBBC04" d="M1769.09 244.786v20.681l15.91-11.931v-6.364c0-5.902-6.74-9.267-11.46-5.727z"/><path fill="#C5221F" d="m1715 253.536 7.31 5.488 8.6 6.444v-20.682l-4.46-3.341c-4.72-3.54-11.45-.175-11.45 5.727z"/></g><mask id="j" width="118" height="118" x="1347" y="426" maskUnits="userSpaceOnUse" style="mask-type:alpha"><circle cx="58.706" cy="58.706" r="58.706" fill="url(#i)" transform="matrix(-1 0 0 1 1464.86 426.408)"/></mask><g clip-path="url(#k)" mask="url(#j)"><path fill="#FFBF00" d="m1397.64 443.484-37.27 15.449c-2.07.859-2.05 3.808.03 4.637l37.43 14.868a13.84 13.84 0 0 0 10.23 0l37.42-14.868c2.09-.828 2.11-3.777.04-4.637l-37.27-15.45a13.84 13.84 0 0 0-10.61.001"/><path fill="#26B5F8" d="M1406.26 486.557v37.142c0 1.767 1.78 2.977 3.42 2.326l41.7-16.217a2.5 2.5 0 0 0 1.57-2.325V470.34c0-1.767-1.77-2.976-3.41-2.325l-41.7 16.216a2.49 2.49 0 0 0-1.58 2.326"/><path fill="#ED3049" d="m1396.52 488.474-12.37 5.986-1.26.609-26.12 12.541c-1.66.8-3.77-.409-3.77-2.252v-34.862c0-.667.34-1.243.8-1.676q.285-.282.63-.475a2.66 2.66 0 0 1 2.27-.175l39.62 15.725c2.01.801 2.17 3.628.2 4.579"/><path fill="#000" fill-opacity=".25" d="m1396.52 488.474-12.37 5.986-30.35-25.64c.18-.187.4-.346.63-.474.62-.376 1.51-.476 2.27-.176l39.61 15.726c2.02.8 2.18 3.627.21 4.578"/></g><mask id="m" width="102" height="103" x="1693" y="665" maskUnits="userSpaceOnUse" style="mask-type:alpha"><circle cx="1744.23" cy="716.358" r="50.647" fill="url(#l)"/></mask><g mask="url(#m)"><rect width="90" height="86.4" x="1702.5" y="669.8" fill="#FFE01B" rx="43.2"/><path fill="#000" d="M1760.73 711.432c.36-.09.72-.09 1.17 0 .09-.36.27-1.26.09-2.16-.27-1.26-.63-2.16-1.35-2.07s-.72.99-.54 2.43c0 .72.36 1.44.63 1.8m-6.57 1.08c.54.27.9.36.99.27.27-.27-.36-1.17-1.53-1.62-1.26-.54-2.7-.36-3.78.36-.36.27-.72.63-.72.9.09.36 1.26-.36 2.79-.36.99-.09 1.62.27 2.25.45m-1.17.63c-1.17.09-1.8.72-1.62 1.26.09 0 .09.09.63-.09q1.08-.405 2.43-.27c.36 0 .54.09.63-.09s-.81-.99-2.07-.81m6.75 2.16c.36-.9-1.35-1.8-1.8-.9-.36.9 1.44 1.71 1.8.9m1.89-2.61c-.99 0-.99 2.07 0 2.07s.99-2.07 0-2.07m-27.09 9.81c-.09 0-.72.09-.99-.27-.63-.99 1.35-2.52.36-4.41-1.17-2.16-3.51-1.62-4.32-.72-.99 1.26-.99 2.88-.63 2.88.54.09.54-.72.99-1.53.36-.72 1.53-.99 2.16-.36 1.53.99.09 2.16.27 3.51.09 2.16 2.25 2.07 2.7 1.17.09-.09 0-.09 0-.27-.18.09-.09-.18-.54 0m37.26-2.07c-.36-1.53-.36-1.17-.9-2.52.27-.36 1.89-2.88-.36-5.49-1.26-1.35-4.14-2.16-5.22-2.25-.09-1.35.63-7.38-2.7-10.26 2.7-2.7 4.14-5.67 4.14-8.28 0-4.95-5.94-6.3-13.32-3.33l-1.44.81s-2.79-2.79-2.88-2.79c-8.37-7.47-34.65 21.87-26.28 28.8l1.89 1.62c-.54 1.26-.72 2.79-.54 4.14.36 4.14 4.41 7.47 8.37 7.47 7.11 16.65 33.3 16.65 40.05.36.09-.54 1.17-3.06 1.17-5.22-.09-2.16-1.26-3.06-1.98-3.06m-39.33 6.03c-2.88-.09-5.94-2.7-6.21-5.67-.72-7.65 9.27-9.36 10.53-1.53.45 3.6-.63 7.29-4.32 7.2m-2.25-14.22c-1.89.36-3.51 1.35-4.59 2.88-.63-.54-1.8-1.53-1.89-1.8-1.62-3.06 1.8-9.09 4.05-12.42 5.85-8.37 14.94-14.67 19.26-13.5.72.09 3.06 2.79 3.06 2.79s-4.32 2.43-8.28 5.67c-5.31 3.96-9.36 9.9-11.61 16.38m29.61 12.51s-4.41.72-8.64-.9c.72-2.52 3.33.72 11.88-1.8 1.89-.54 4.32-1.62 6.3-3.15.36.99.72 2.07.9 3.06.36-.09 1.8-.09 1.35 2.25-.36 2.43-1.53 4.41-3.15 6.3-1.17 1.26-2.43 2.16-3.78 2.88-.72.36-1.62.72-2.52.99-6.57 2.16-13.41-.09-15.75-5.31-.09-.36-.36-.72-.36-1.26-.99-3.42-.09-7.38 2.43-9.99.09-.09.36-.36.36-.63 0-.09-.09-.36-.27-.54-.9-1.26-3.78-3.42-3.33-7.65.36-2.88 3.06-5.04 5.49-4.95h.63c.99.09 2.07.09 2.88.27 1.53.09 2.79-.09 4.32-1.35.54-.36.99-.72 1.62-.99.63-.09 1.26 0 1.62.27 1.26.72 1.35 2.79 1.53 4.32 0 .9.09 2.88.09 3.42.09 1.26.36 1.53 1.17 1.8.36.09.72.27 1.26.36 1.62.36 2.7.99 3.15 1.53.36.36.54.72.63 1.17.09 1.35-1.17 3.15-4.59 4.68-5.85 2.7-11.7 1.8-12.42 1.8-2.52-.36-3.96 2.88-2.43 5.22 2.79 4.14 15.21 2.52 18.9-2.7.09-.09 0-.09-.09-.09-5.22 3.51-12.06 4.68-15.93 3.15-.63-.27-1.8-.72-2.07-2.16 5.49 1.62 8.73.09 8.73.09s.36-.09.09-.09m-18.9-23.94c2.16-2.43 4.59-4.59 6.93-5.67h.09v.09c-.09.36-.54.99-.63 1.53 0 .09 0 .09.09.09 1.35-.99 3.96-2.07 6.12-2.16.09 0 .09 0 .09.09v.09c-.36.27-.72.63-.99.99v.09h.09c1.53 0 3.69.54 5.04 1.26.09.09 0 .27-.09.09-8.64-2.07-15.21 2.25-16.74 3.33.18.09.18.09 0 .18"/></g><mask id="o" width="118" height="118" x="1465" y="547" maskUnits="userSpaceOnUse" style="mask-type:alpha"><circle cx="1524.18" cy="605.711" r="58.706" fill="url(#n)"/></mask><g clip-path="url(#p)" mask="url(#o)"><path fill="#DE1C59" d="M1499.16 616.756c0 5.154-4.21 9.363-9.36 9.363s-9.36-4.209-9.36-9.363 4.21-9.364 9.36-9.364h9.36zm4.72 0c0-5.154 4.21-9.364 9.36-9.364s9.36 4.209 9.36 9.364v23.438c0 5.154-4.21 9.364-9.36 9.364s-9.36-4.21-9.36-9.364z"/><path fill="#35C5F0" d="M1513.24 579.164c-5.15 0-9.36-4.204-9.36-9.358s4.21-9.363 9.36-9.363 9.36 4.209 9.36 9.363v9.358zm0 4.717c5.15 0 9.36 4.209 9.36 9.363s-4.21 9.364-9.36 9.364h-23.44c-5.15 0-9.36-4.209-9.36-9.364 0-5.154 4.21-9.363 9.36-9.363z"/><path fill="#2EB57D" d="M1550.83 593.244c0-5.154 4.21-9.363 9.36-9.363 5.16 0 9.37 4.209 9.37 9.363s-4.21 9.364-9.37 9.364h-9.36zm-4.71 0c0 5.154-4.21 9.364-9.37 9.364-5.15 0-9.36-4.209-9.36-9.364v-23.438c0-5.154 4.21-9.363 9.36-9.363 5.16 0 9.37 4.209 9.37 9.363z"/><path fill="#EBB02E" d="M1536.75 630.836c5.16 0 9.37 4.204 9.37 9.358s-4.21 9.364-9.37 9.364c-5.15 0-9.36-4.21-9.36-9.364v-9.358zm0-4.717c-5.15 0-9.36-4.209-9.36-9.363s4.21-9.364 9.36-9.364h23.44c5.16 0 9.37 4.209 9.37 9.364 0 5.154-4.21 9.363-9.37 9.363z"/></g><mask id="r" width="119" height="119" x="1460" y="195" maskUnits="userSpaceOnUse" style="mask-type:alpha"><circle cx="1519.48" cy="254.605" r="58.706" fill="url(#q)"/></mask><g mask="url(#r)"><path fill="#2684FF" d="M1554.96 234.25h-32.5c0 8.1 6.56 14.658 14.66 14.658h5.98v5.784c0 8.1 6.55 14.659 14.65 14.659v-32.305c0-.742-.29-1.453-.82-1.977a2.78 2.78 0 0 0-1.97-.819"/><path fill="url(#s)" d="M1538.85 250.449h-32.49c0 8.1 6.55 14.658 14.65 14.658h5.98v5.784c0 8.1 6.56 14.659 14.66 14.659v-32.305c0-.741-.3-1.452-.82-1.976a2.8 2.8 0 0 0-1.98-.82"/><path fill="url(#t)" d="M1522.75 266.648h-32.5c0 8.103 6.56 14.659 14.66 14.659h5.98v5.786c0 8.1 6.55 14.656 14.65 14.656v-32.302c0-.741-.29-1.452-.82-1.977a2.78 2.78 0 0 0-1.97-.822"/></g></g><g opacity=".4"><g clip-path="url(#u)"><path fill="#0076B2" d="M316.361 438h-76.722c-1.74-.019-3.417.715-4.662 2.04s-1.956 3.134-1.977 5.029v83.878c.025 1.893.738 3.697 1.982 5.019 1.245 1.322 2.919 2.053 4.657 2.034h76.722c1.741.015 3.416-.721 4.66-2.047s1.956-3.135 1.979-5.03v-83.878c-.031-1.89-.746-3.69-1.989-5.009s-2.915-2.051-4.65-2.036"/><path fill="#fff" d="M252.875 478.018h10.562v33.985h-10.562zm5.284-16.914a6.123 6.123 0 1 1 .002 12.247 6.123 6.123 0 0 1-.002-12.247m11.904 16.914h10.125v4.666h.14c1.411-2.671 4.853-5.488 9.991-5.488 10.696-.024 12.679 7.016 12.679 16.144v18.663h-10.562v-16.535c0-3.937-.07-9.005-5.488-9.005s-6.34 4.293-6.34 8.749v16.791h-10.545z"/></g><mask id="w" width="118" height="119" x="104" y="208" maskUnits="userSpaceOnUse" style="mask-type:alpha"><circle cx="58.706" cy="58.706" r="58.706" fill="url(#v)" transform="matrix(-1 0 0 1 221.91 208.899)"/></mask><g clip-path="url(#x)" mask="url(#w)"><path fill="#4285F4" d="M147.905 292.626v-27.045l-8.387-7.674-7.522-4.258v34.204a4.77 4.77 0 0 0 4.773 4.773z"/><path fill="#34A853" d="M186.086 292.627h11.136a4.77 4.77 0 0 0 4.773-4.773v-34.205l-8.519 4.878-7.39 7.054z"/><path fill="#EA4335" d="m147.907 265.581-1.141-10.568 1.141-10.114 19.091 14.318 19.091-14.318 1.276 9.568-1.276 11.114-19.091 14.318z"/><path fill="#FBBC04" d="M186.086 244.899v20.682l15.909-11.932v-6.364c0-5.902-6.737-9.267-11.454-5.727z"/><path fill="#C5221F" d="m131.996 253.649 7.317 5.488 8.592 6.444v-20.682l-4.455-3.341c-4.725-3.54-11.454-.175-11.454 5.727z"/></g><mask id="z" width="119" height="118" x="449" y="427" maskUnits="userSpaceOnUse" style="mask-type:alpha"><circle cx="58.706" cy="58.706" r="58.706" fill="url(#y)" transform="matrix(-1 0 0 1 567.141 427.409)"/></mask><g clip-path="url(#A)" mask="url(#z)"><path fill="#fff" d="M528.681 464.316h-47.369v47.368h47.369z"/><path fill="#EA4335" d="m528.687 533 21.316-21.316-10.658-1.818-10.658 1.818-1.945 9.749z"/><path fill="#188038" d="M460 511.684v14.211a7.104 7.104 0 0 0 7.105 7.105h14.211l2.188-10.658-2.188-10.658-11.613-1.818z"/><path fill="#1967D2" d="M550.003 464.316v-14.211a7.103 7.103 0 0 0-7.105-7.105h-14.211q-1.945 7.929-1.945 11.67t1.945 9.646q7.072 2.025 10.658 2.025 3.587 0 10.658-2.025"/><path fill="#FBBC04" d="M550.003 464.316h-21.315v47.368h21.315z"/><path fill="#34A853" d="M528.681 511.684h-47.369V533h47.369z"/><path fill="#4285F4" d="M528.684 443h-61.579a7.104 7.104 0 0 0-7.105 7.105v61.579h21.316v-47.368h47.368z"/><path fill="#4285F4" d="M491.033 501.062c-1.771-1.196-2.997-2.943-3.666-5.252l4.11-1.694q.558 2.132 1.954 3.304c.923.782 2.048 1.167 3.363 1.167q2.016 0 3.463-1.226 1.45-1.227 1.451-3.12 0-1.937-1.527-3.162c-1.019-.817-2.298-1.226-3.825-1.226h-2.375v-4.067h2.132q1.971 0 3.321-1.067 1.35-1.063 1.35-2.919 0-1.65-1.207-2.634-1.206-.988-3.062-.989-1.812-.001-2.877.965a5.65 5.65 0 0 0-1.552 2.374l-4.067-1.693c.538-1.528 1.527-2.878 2.978-4.044 1.45-1.167 3.304-1.753 5.554-1.753q2.498-.001 4.488.965 1.99.97 3.12 2.677c.753 1.142 1.125 2.421 1.125 3.842q0 2.175-1.047 3.683c-.699 1.007-1.558 1.776-2.576 2.315v.243a7.8 7.8 0 0 1 3.304 2.576q1.289 1.73 1.291 4.145 0 2.417-1.226 4.31c-.817 1.261-1.948 2.256-3.381 2.978-1.439.723-3.055 1.09-4.849 1.09-2.079.006-3.997-.592-5.767-1.788m25.24-20.393-4.511 3.263-2.256-3.422 8.094-5.839h3.102v27.539h-4.429z"/></g><mask id="C" width="107" height="108" x="0" y="551" maskUnits="userSpaceOnUse" style="mask-type:alpha"><circle cx="53.294" cy="604.706" r="53.294" fill="url(#B)"/></mask><g mask="url(#C)"><path fill="#006BFF" d="M83.247 612.642q1.609.004 3.164.245c0 .019-.02.038-.02.053a23 23 0 0 1-1.455 3.003l-4.657 8.046a23.85 23.85 0 0 1-20.673 11.947h-9.291a23.885 23.885 0 0 1-20.676-11.947l-4.654-8.046a23.88 23.88 0 0 1 0-23.886l4.653-8.046a23.84 23.84 0 0 1 20.677-11.946h9.291a23.88 23.88 0 0 1 20.673 11.946l4.657 8.046c.562.963 1.035 1.983 1.456 3.003 0 .015.019.035.019.054a21 21 0 0 1-3.164.244c-6.938 0-9.555-2.319-12.573-4.989-2.919-2.583-6.537-5.796-13.142-5.796H53.6c-4.78 0-9.12 1.738-12.225 4.883-3.041 3.075-4.71 7.274-4.71 11.839v5.391c0 4.569 1.669 8.768 4.71 11.84 3.106 3.144 7.446 4.882 12.225 4.882h3.95c6.606 0 10.224-3.213 13.14-5.795 3.021-2.686 5.62-4.99 12.557-4.971m.02-12.367q2.292 0 4.504-.42-.011-.027-.008-.054a24 24 0 0 0-1.333-4.653 17.6 17.6 0 0 0 7.587-3.129c0-.015-.019-.05-.019-.069a40.5 40.5 0 0 0-5.689-11.576 41.7 41.7 0 0 0-8.905-9.15 40.65 40.65 0 0 0-24.558-8.168c-5.532 0-10.908 1.07-15.95 3.213a41.2 41.2 0 0 0-13.017 8.783c-3.76 3.76-6.728 8.134-8.78 13.017a40.9 40.9 0 0 0-3.216 15.95c0 5.532 1.073 10.908 3.216 15.947a41.1 41.1 0 0 0 8.78 13.016c3.76 3.76 8.134 6.728 13.016 8.784a41 41 0 0 0 15.95 3.213c8.94 0 17.426-2.828 24.559-8.165a41.3 41.3 0 0 0 8.905-9.154A41.3 41.3 0 0 0 94 616.084c0-.015.018-.053.018-.068a17.56 17.56 0 0 0-7.587-3.129 23 23 0 0 0 1.333-4.654c.02-.034.02-.053.02-.088 3.32.608 6.46 1.96 9.184 3.955 2.617 1.929 2.109 4.107 1.704 5.409-5.762 18.725-23.202 32.337-43.825 32.337C29.536 649.846 9 629.311 9 604s20.516-45.846 45.846-45.846c20.623 0 38.063 13.613 43.825 32.337.405 1.303.913 3.496-1.704 5.429a22.2 22.2 0 0 1-9.185 3.95c.49 2.736.49 5.54 0 8.275-1.489-.282-3-.422-4.516-.42-15.985 0-15.16 10.785-25.734 10.785H53.6c-7.255 0-12.034-5.184-12.034-11.824v-5.391c0-6.64 4.78-11.82 12.034-11.82h3.95c10.576 0 9.75 10.785 25.716 10.8"/></g><mask id="E" width="103" height="102" x="340" y="663" maskUnits="userSpaceOnUse" style="mask-type:alpha"><circle cx="391.583" cy="713.997" r="50.998" fill="url(#D)"/></mask><g clip-path="url(#F)" mask="url(#E)"><path fill="#5865F2" d="M415.902 670H368.09c-11.65 0-21.094 9.444-21.094 21.094v47.812c0 11.65 9.444 21.094 21.094 21.094h47.812c11.65 0 21.094-9.444 21.094-21.094v-47.812c0-11.65-9.444-21.094-21.094-21.094"/><mask id="G" width="72" height="56" x="356" y="687" maskUnits="userSpaceOnUse" style="mask-type:luminance"><path fill="#fff" d="M356.84 687.93h70.312v54.467H356.84z"/></mask><g mask="url(#G)"><path fill="#fff" d="M416.362 692.78a58 58 0 0 0-14.312-4.439.218.218 0 0 0-.23.109 40 40 0 0 0-1.782 3.66c-5.404-.809-10.781-.809-16.074 0a37 37 0 0 0-1.81-3.66.22.22 0 0 0-.23-.109 57.9 57.9 0 0 0-14.312 4.439.2.2 0 0 0-.094.081c-9.116 13.618-11.612 26.902-10.388 40.02a.25.25 0 0 0 .092.165c6.014 4.417 11.839 7.098 17.557 8.875a.226.226 0 0 0 .247-.081 42 42 0 0 0 3.592-5.842.2.2 0 0 0 .023-.09.2.2 0 0 0-.015-.092.222.222 0 0 0-.13-.128 38 38 0 0 1-5.485-2.614.2.2 0 0 1-.078-.077.2.2 0 0 1-.033-.104.24.24 0 0 1 .02-.108.2.2 0 0 1 .069-.085q.554-.414 1.089-.854a.22.22 0 0 1 .227-.03c11.507 5.253 23.965 5.253 35.336 0a.21.21 0 0 1 .23.028q.535.442 1.092.856.046.034.069.085.024.05.021.107a.23.23 0 0 1-.109.182 36 36 0 0 1-5.487 2.612.2.2 0 0 0-.079.051.2.2 0 0 0-.051.078.23.23 0 0 0 .01.183 47 47 0 0 0 3.589 5.84.23.23 0 0 0 .11.081.22.22 0 0 0 .137.002c5.745-1.777 11.571-4.458 17.585-8.875a.23.23 0 0 0 .091-.162c1.466-15.166-2.455-28.341-10.396-40.02a.17.17 0 0 0-.091-.084m-36.026 32.114c-3.465 0-6.319-3.181-6.319-7.087s2.799-7.087 6.319-7.087c3.547 0 6.374 3.209 6.319 7.087 0 3.906-2.8 7.087-6.319 7.087m23.363 0c-3.464 0-6.319-3.181-6.319-7.087s2.8-7.087 6.319-7.087c3.548 0 6.375 3.209 6.319 7.087 0 3.906-2.771 7.087-6.319 7.087"/></g></g><mask id="I" width="118" height="117" x="332" y="199" maskUnits="userSpaceOnUse" style="mask-type:alpha"><circle cx="390.938" cy="257.5" r="58.352" fill="url(#H)"/></mask><g clip-path="url(#J)"><path fill="#34A853" d="M393.29 266.544h-9.656v-5.409h9.662v5.412zM402.952 231v17h17zm3.862 30.135h-9.662v5.412h9.662zm0 9.274h-9.662v5.411h9.662zm13.135-20.992v44.948a4.634 4.634 0 0 1-4.635 4.635h-40.183a4.63 4.63 0 0 1-3.277-1.358 4.63 4.63 0 0 1-1.358-3.277v-58.73a4.634 4.634 0 0 1 4.635-4.635h26.401v18.417zm-9.273 7.856h-30.909v22.409h30.911v-22.411zm-17.386 13.136h-9.656v5.411h9.662v-5.411z"/></g></g><path fill="url(#K)" d="M0 0h309v149H0z"/><g fill="#1C3693" clip-path="url(#L)"><path d="M52.796 68.445a9 9 0 0 1-1.629.138q-1.858 0-2.826-.953-.974-.945-.973-2.935V53.477h-5.29V65.51c0 2.648.697 4.64 2.08 5.968q2.08 1.988 5.745 1.987c.9 0 1.7-.036 2.391-.113.696-.071 1.357-.2 1.992-.384v-4.836a21 21 0 0 1-1.49.313m-5.428-14.999v.031h.036z"/><path d="M54.112 48.155v5.323h-6.708l-.036-.031-3.62-3.028-1.301-1.09-.369-.308v-6.408h5.326v5.542zM62.763 40.794c-.589-.528-1.3-.794-2.146-.794q-1.266.001-2.15.794c-.584.528-.881 1.26-.881 2.192 0 .876.297 1.588.88 2.147q.884.839 2.151.84c.845 0 1.557-.282 2.146-.84.589-.559.88-1.27.88-2.147q.002-1.399-.88-2.192M57.996 49V72.97h5.243V49zM68.754 49v23.968h5.243V49zm19.576 3.888q-1.043-2.122-2.893-3.253c-1.239-.753-2.668-1.132-4.296-1.132s-3.093.42-4.383 1.265c-1.147.743-2.07 1.778-2.76 3.094-.098.18-.185.359-.272.548q-1.084 2.373-1.085 5.676h1.356c0-1.962.492-3.442 1.47-4.457q1.468-1.515 3.595-1.516c1.418 0 2.612.507 3.595 1.516.978 1.015 1.47 2.495 1.47 4.457v13.882h5.243v-15.06q-.001-2.89-1.04-5.02M104.03 69.593 98.049 49H92.44l7.323 23.968h5.244zM109.893 49l-5.863 20.593-.963 3.375q-.59 2.037-1.787 2.874c-.799.558-1.895.835-3.278.835q-.949.002-1.853-.159a12.5 12.5 0 0 1-1.762-.43v4.794c.6.185 1.224.318 1.874.41q.97.132 2.1.133c1.541 0 2.903-.245 4.097-.742q1.782-.752 3.118-2.556c.886-1.21 1.68-2.925 2.371-5.159L115.27 49zM55.961 102.248c-.363 1.506-.957 2.602-1.787 3.279-.83.676-1.905 1.019-3.231 1.019q-2.491-.001-4.004-1.901c-1.01-1.265-1.511-3.227-1.511-5.88s.502-4.61 1.51-5.88q1.516-1.898 4.005-1.896 1.988 0 3.231 1.014 1.244 1.02 1.787 3.232l5.06-1.398q-.946-3.665-3.59-5.61c-1.767-1.295-3.882-1.946-6.355-1.946-2.202 0-4.127.518-5.786 1.542q-2.49 1.537-3.887 4.339Q40 94.968 40 98.765c0 2.53.466 4.697 1.403 6.582q1.398 2.828 3.887 4.365c1.659 1.024 3.584 1.536 5.786 1.536q3.71 0 6.375-1.967c1.777-1.311 2.986-3.201 3.616-5.675zM85.055 92.162c-.953-1.87-2.269-3.314-3.959-4.339-1.684-1.024-3.63-1.542-5.832-1.542s-4.143.518-5.833 1.542c-1.684 1.025-3.005 2.47-3.953 4.339q-1.422 2.806-1.423 6.603c0 2.53.476 4.697 1.423 6.582s2.269 3.34 3.953 4.365q2.536 1.536 5.833 1.536c2.197 0 4.148-.512 5.832-1.536 1.69-1.025 3.006-2.48 3.959-4.365q1.422-2.826 1.423-6.582c0-2.505-.476-4.733-1.423-6.603m-5.587 12.483c-1.055 1.266-2.453 1.901-4.204 1.901q-2.625-.001-4.204-1.901-1.582-1.899-1.582-5.88c0-2.654.527-4.61 1.582-5.88q1.584-1.898 4.204-1.896c1.746 0 3.15.63 4.204 1.895 1.055 1.27 1.582 3.227 1.582 5.88q0 3.982-1.582 5.881M90.813 86.783v23.968h5.243V86.783zm18.721 4.242a7.6 7.6 0 0 0-1.449-2.387c-1.419-1.568-3.242-2.357-5.469-2.357q-2.311.002-4.092 1.178-1.51.993-2.468 2.746a9 9 0 0 0-.338.671q-1.014 2.237-1.014 5.358h1.352q0-2.667 1.29-4.005c.86-.887 1.905-1.332 3.145-1.332s2.319.445 3.164 1.331c.84.892 1.265 2.229 1.265 4.006v14.517h5.29V95.056q0-2.288-.676-4.031m12.633-2.387c-1.434-1.568-3.262-2.357-5.495-2.357q-2.35.002-4.178 1.178-1.835 1.175-2.894 3.417a2 2 0 0 0-.066.149q-.999 2.19-.999 5.21h1.675q.001-2.668 1.285-4.007c.86-.886 1.905-1.331 3.144-1.331q1.858.001 3.139 1.331 1.29 1.34 1.291 4.006v14.517h5.243V95.056q-.002-4.065-2.145-6.418M129.828 86.783v23.968h5.244V86.783zm18.721 4.242a7.6 7.6 0 0 0-1.449-2.387c-1.418-1.568-3.241-2.357-5.474-2.357q-2.303.002-4.091 1.178-1.505.993-2.463 2.746c-.123.215-.231.44-.338.671-.676 1.49-1.019 3.278-1.019 5.358h1.357q0-2.667 1.29-4.005c.86-.887 1.905-1.332 3.144-1.332s2.32.445 3.165 1.331c.84.892 1.265 2.229 1.265 4.006v14.517h5.289V95.056q0-2.288-.676-4.031m12.633-2.387c-1.434-1.568-3.262-2.357-5.494-2.357q-2.35.002-4.179 1.178c-1.224.784-2.186 1.921-2.898 3.417-.021.046-.046.097-.062.144q-.998 2.196-.998 5.214h1.674q.002-2.667 1.286-4.005c.86-.887 1.905-1.332 3.144-1.332s2.284.445 3.144 1.331q1.284 1.34 1.285 4.006v14.517h5.244V95.056q-.001-4.065-2.146-6.418M182.539 100.757q.001 1.944-.973 3.32a6.4 6.4 0 0 1-2.438 2.105c-.983.482-1.982.722-3.006.722q-1.628.001-2.396-.788-.774-.79-.773-1.742 0-1.13.906-1.993c.604-.568 1.628-.993 3.072-1.265l5.608-1.142 1.264-.256v-3.755l-1.264.21-7.415 1.234c-2.53.456-4.409 1.342-5.628 2.669q-1.828 1.99-1.828 4.703 0 2.849 1.874 4.661 1.875 1.807 5.131 1.808c1.716 0 3.282-.425 4.701-1.265q1.958-1.167 3.185-3.278.106-.178.205-.364 1.266-2.373 1.265-5.584zm5.243 4.657V95.281q-.002-4.204-2.529-6.602c-1.69-1.594-4.041-2.398-7.052-2.398-2.504 0-4.649.6-6.442 1.788q-2.696 1.79-3.64 5.271l4.972 1.398c.363-1.352.957-2.366 1.787-3.027.824-.66 1.828-.994 3.006-.994q1.896 0 3.277 1.173 1.377 1.176 1.378 3.935v10.132c0 .246 0 .497.02.748.015.543.067 1.091.138 1.649q.162 1.223.43 2.397h5.336a21.4 21.4 0 0 1-.681-5.337M193.297 86.783v23.968h5.243V86.783zm19.576 3.888q-1.043-2.129-2.893-3.258-1.853-1.13-4.296-1.132-2.441.001-4.383 1.27c-1.142.748-2.064 1.773-2.761 3.095a9 9 0 0 0-.271.543c-.722 1.583-1.085 3.478-1.085 5.675h1.356q.002-2.936 1.47-4.451t3.595-1.516q2.127.001 3.595 1.516t1.469 4.451v13.887h5.244v-15.06c0-1.93-.348-3.6-1.04-5.02M234.755 90.672a8.2 8.2 0 0 0-1.04-1.63q-2.264-2.758-6.011-2.76c-1.839 0-3.467.502-4.886 1.496q-2.126 1.49-3.323 4.272t-1.198 6.715c0 2.623.399 4.826 1.198 6.695q1.197 2.804 3.323 4.293 2.128 1.497 4.886 1.496 3.747-.001 6.011-2.761.601-.73 1.04-1.629 1.22-2.475 1.219-6.193v-3.801q.001-3.72-1.219-6.193m-1.291 14.02q-1.557 1.899-4.091 1.9-2.534-.001-4.091-1.9t-1.557-5.927q-.001-4.025 1.557-5.921c1.039-1.27 2.401-1.9 4.091-1.9s3.052.63 4.091 1.9q1.561 1.896 1.562 5.921-.001 4.028-1.562 5.927m1.291-26.278v14.245l.722 6.106-.722 6.199v5.788h5.243V78.414z"/></g><defs><linearGradient id="c" x1="1631.85" x2="1631.85" y1="411.598" y2="566.22" gradientUnits="userSpaceOnUse"><stop stop-color="#fff" stop-opacity=".67"/><stop offset="1" stop-color="#fff"/></linearGradient><linearGradient id="d" x1="1631.44" x2="1631.44" y1="430.686" y2="554.476" gradientUnits="userSpaceOnUse"><stop stop-color="#fff" stop-opacity=".67"/><stop offset="1" stop-color="#fff"/></linearGradient><linearGradient id="f" x1="58.706" x2="58.706" y1="0" y2="117.412" gradientUnits="userSpaceOnUse"><stop stop-color="#737373" stop-opacity="0"/><stop offset="1" stop-color="#D9D9D9"/></linearGradient><linearGradient id="i" x1="107.432" x2="0" y1="49.313" y2="49.313" gradientUnits="userSpaceOnUse"><stop stop-color="#737373" stop-opacity="0"/><stop offset="1" stop-color="#D9D9D9" stop-opacity=".3"/></linearGradient><linearGradient id="l" x1="1715.36" x2="1761.45" y1="670.27" y2="767.005" gradientUnits="userSpaceOnUse"><stop stop-color="#D9D9D9" stop-opacity=".8"/><stop offset="1" stop-color="#737373" stop-opacity="0"/></linearGradient><linearGradient id="n" x1="1555.29" x2="1478.98" y1="537.025" y2="652.676" gradientUnits="userSpaceOnUse"><stop stop-color="#D9D9D9"/><stop offset="1" stop-color="#737373" stop-opacity="0"/></linearGradient><linearGradient id="q" x1="1486.02" x2="1539.44" y1="201.183" y2="313.311" gradientUnits="userSpaceOnUse"><stop stop-color="#737373" stop-opacity="0"/><stop offset="1" stop-color="#D9D9D9"/></linearGradient><linearGradient id="s" x1="1540.97" x2="1527.15" y1="250.486" y2="264.743" gradientUnits="userSpaceOnUse"><stop offset=".176" stop-color="#0052CC"/><stop offset="1" stop-color="#2684FF"/></linearGradient><linearGradient id="t" x1="1525.8" x2="1509.82" y1="266.773" y2="282.326" gradientUnits="userSpaceOnUse"><stop offset=".176" stop-color="#0052CC"/><stop offset="1" stop-color="#2684FF"/></linearGradient><linearGradient id="v" x1="58.706" x2="58.706" y1="0" y2="117.412" gradientUnits="userSpaceOnUse"><stop stop-color="#737373" stop-opacity="0"/><stop offset="1" stop-color="#D9D9D9"/></linearGradient><linearGradient id="y" x1="107.432" x2="0" y1="49.313" y2="49.313" gradientUnits="userSpaceOnUse"><stop stop-color="#737373" stop-opacity="0"/><stop offset="1" stop-color="#D9D9D9" stop-opacity=".3"/></linearGradient><linearGradient id="B" x1="22.916" x2="71.414" y1="556.209" y2="658" gradientUnits="userSpaceOnUse"><stop stop-color="#D9D9D9" stop-opacity=".8"/><stop offset="1" stop-color="#737373" stop-opacity="0"/></linearGradient><linearGradient id="D" x1="418.612" x2="352.315" y1="654.33" y2="754.795" gradientUnits="userSpaceOnUse"><stop stop-color="#D9D9D9"/><stop offset="1" stop-color="#737373" stop-opacity="0"/></linearGradient><linearGradient id="H" x1="357.677" x2="410.777" y1="204.4" y2="315.852" gradientUnits="userSpaceOnUse"><stop stop-color="#737373" stop-opacity="0"/><stop offset="1" stop-color="#D9D9D9"/></linearGradient><clipPath id="a"><path fill="#fff" d="M1.441 0h1920v1001h-1920z"/></clipPath><clipPath id="h"><path fill="#fff" d="M1715 240h70v52.773h-70z"/></clipPath><clipPath id="k"><path fill="#fff" d="M1353 442.426h100v84.146h-100z"/></clipPath><clipPath id="p"><path fill="#fff" d="M1480 560h90v90h-90z"/></clipPath><clipPath id="u"><rect width="90" height="90" x="233" y="442" fill="#fff" rx="45"/></clipPath><clipPath id="x"><path fill="#fff" d="M131.996 240.113h70v52.773h-70z"/></clipPath><clipPath id="A"><path fill="#fff" d="M460 443h90v90h-90z"/></clipPath><clipPath id="F"><rect width="90" height="90" x="346.996" y="670" fill="#fff" rx="45"/></clipPath><clipPath id="J"><path fill="#fff" d="M361.996 231h68v68h-68z"/></clipPath><clipPath id="L"><path fill="#fff" d="M40 40h200v71.249H40z"/></clipPath><radialGradient id="b" cx="0" cy="0" r="1" gradientTransform="matrix(1389.56 0 0 2712.86 960.441 500.72)" gradientUnits="userSpaceOnUse"><stop stop-color="#fff"/><stop offset=".366" stop-color="#fff" stop-opacity=".856"/><stop offset="1" stop-color="#fff" stop-opacity="0"/></radialGradient><radialGradient id="K" cx="0" cy="0" r="1" gradientTransform="rotate(91.081 22.096 110.507)scale(53.0094 136.947)" gradientUnits="userSpaceOnUse"><stop stop-color="#fff"/><stop offset="1" stop-color="#fff" stop-opacity="0"/></radialGradient></defs></svg>