<svg width="1920" height="1001" viewBox="0 0 1920 1001" fill="none" xmlns="http://www.w3.org/2000/svg">
<g opacity="0.7" clip-path="url(#clip0_3591_2508)">
<path d="M212.719 -12H121.164C116.899 -12 113.441 -8.57475 113.441 -4.34948V86.3495C113.441 90.5748 116.899 94 121.164 94H212.719C216.984 94 220.441 90.5748 220.441 86.3495V-4.34948C220.441 -8.57475 216.984 -12 212.719 -12Z" stroke="#DBDBDB" stroke-miterlimit="10"/>
<path d="M324.791 -12H234.092C229.867 -12 226.441 -8.57475 226.441 -4.34948V86.3495C226.441 90.5748 229.867 94 234.092 94H324.791C329.016 94 332.441 90.5748 332.441 86.3495V-4.34948C332.441 -8.57475 329.016 -12 324.791 -12Z" stroke="#DBDBDB" stroke-miterlimit="10"/>
<path d="M437.719 -12H346.164C341.899 -12 338.441 -8.57475 338.441 -4.34948V86.3495C338.441 90.5748 341.899 94 346.164 94H437.719C441.984 94 445.441 90.5748 445.441 86.3495V-4.34948C445.441 -8.57475 441.984 -12 437.719 -12Z" stroke="#DBDBDB" stroke-miterlimit="10"/>
<path d="M324.791 99H234.092C229.867 99 226.441 102.458 226.441 106.723V198.277C226.441 202.542 229.867 206 234.092 206H324.791C329.016 206 332.441 202.542 332.441 198.277V106.723C332.441 102.458 329.016 99 324.791 99Z" stroke="#DBDBDB" stroke-miterlimit="10"/>
<path d="M437.719 99H346.164C341.899 99 338.441 102.458 338.441 106.723V198.277C338.441 202.542 341.899 206 346.164 206H437.719C441.984 206 445.441 202.542 445.441 198.277V106.723C445.441 102.458 441.984 99 437.719 99Z" stroke="#DBDBDB" stroke-miterlimit="10"/>
<path d="M550.687 -12H458.196C454.465 -12 451.441 -8.97605 451.441 -5.24582V87.2458C451.441 90.9761 454.465 94 458.196 94H550.687C554.417 94 557.441 90.9761 557.441 87.2458V-5.24582C557.441 -8.97605 554.417 -12 550.687 -12Z" stroke="#DBDBDB" stroke-miterlimit="10"/>
<path d="M662.687 -12H570.196C566.465 -12 563.441 -8.97605 563.441 -5.24582V87.2458C563.441 90.9761 566.465 94 570.196 94H662.687C666.417 94 669.441 90.9761 669.441 87.2458V-5.24582C669.441 -8.97605 666.417 -12 662.687 -12Z" stroke="#DBDBDB" stroke-miterlimit="10"/>
<path d="M776.687 -12H684.196C680.465 -12 677.441 -8.97605 677.441 -5.24582V87.2458C677.441 90.9761 680.465 94 684.196 94H776.687C780.417 94 783.441 90.9761 783.441 87.2458V-5.24582C783.441 -8.97605 780.417 -12 776.687 -12Z" stroke="#DBDBDB" stroke-miterlimit="10"/>
<path d="M887.654 -12H797.229C792.928 -12 789.441 -8.51337 789.441 -4.2124V86.2124C789.441 90.5134 792.928 94 797.229 94H887.654C891.955 94 895.441 90.5134 895.441 86.2124V-4.2124C895.441 -8.51337 891.955 -12 887.654 -12Z" stroke="#DBDBDB" stroke-miterlimit="10"/>
<path d="M1000.58 -12H909.302C904.961 -12 901.441 -8.51337 901.441 -4.2124V86.2124C901.441 90.5134 904.961 94 909.302 94H1000.58C1004.92 94 1008.44 90.5134 1008.44 86.2124V-4.2124C1008.44 -8.51337 1004.92 -12 1000.58 -12Z" stroke="#DBDBDB" stroke-miterlimit="10"/>
<path d="M1113.58 -12H1022.3C1017.96 -12 1014.44 -8.51337 1014.44 -4.2124V86.2124C1014.44 90.5134 1017.96 94 1022.3 94H1113.58C1117.92 94 1121.44 90.5134 1121.44 86.2124V-4.2124C1121.44 -8.51337 1117.92 -12 1113.58 -12Z" stroke="#DBDBDB" stroke-miterlimit="10"/>
<path d="M212.719 99H121.164C116.899 99 113.441 102.458 113.441 106.723V198.277C113.441 202.542 116.899 206 121.164 206H212.719C216.984 206 220.441 202.542 220.441 198.277V106.723C220.441 102.458 216.984 99 212.719 99Z" stroke="#DBDBDB" stroke-miterlimit="10"/>
<path d="M548.425 99H460.458C455.478 99 451.441 103.075 451.441 108.101V196.899C451.441 201.925 455.478 206 460.458 206H548.425C553.405 206 557.441 201.925 557.441 196.899V108.101C557.441 103.075 553.405 99 548.425 99Z" stroke="#DBDBDB" stroke-miterlimit="10"/>
<path d="M660.425 99H572.458C567.478 99 563.441 103.075 563.441 108.101V196.899C563.441 201.925 567.478 206 572.458 206H660.425C665.405 206 669.441 201.925 669.441 196.899V108.101C669.441 103.075 665.405 99 660.425 99Z" stroke="#DBDBDB" stroke-miterlimit="10"/>
<path d="M774.425 99H686.458C681.478 99 677.441 103.075 677.441 108.101V196.899C677.441 201.925 681.478 206 686.458 206H774.425C779.405 206 783.441 201.925 783.441 196.899V108.101C783.441 103.075 779.405 99 774.425 99Z" stroke="#DBDBDB" stroke-miterlimit="10"/>
<path d="M548.425 211H460.458C455.478 211 451.441 215.037 451.441 220.016V307.984C451.441 312.963 455.478 317 460.458 317H548.425C553.405 317 557.441 312.963 557.441 307.984V220.016C557.441 215.037 553.405 211 548.425 211Z" stroke="#DBDBDB" stroke-miterlimit="10"/>
<path d="M660.425 211H572.458C567.478 211 563.441 215.037 563.441 220.016V307.984C563.441 312.963 567.478 317 572.458 317H660.425C665.405 317 669.441 312.963 669.441 307.984V220.016C669.441 215.037 665.405 211 660.425 211Z" stroke="#DBDBDB" stroke-miterlimit="10"/>
<path d="M774.425 211H686.458C681.478 211 677.441 215.037 677.441 220.016V307.984C677.441 312.963 681.478 317 686.458 317H774.425C779.405 317 783.441 312.963 783.441 307.984V220.016C783.441 215.037 779.405 211 774.425 211Z" stroke="#DBDBDB" stroke-miterlimit="10"/>
<path d="M887.654 99H797.229C792.928 99 789.441 102.52 789.441 106.861V198.139C789.441 202.48 792.928 206 797.229 206H887.654C891.955 206 895.441 202.48 895.441 198.139V106.861C895.441 102.52 891.955 99 887.654 99Z" stroke="#DBDBDB" stroke-miterlimit="10"/>
<path d="M1000.58 99H909.302C904.961 99 901.441 102.52 901.441 106.861V198.139C901.441 202.48 904.961 206 909.302 206H1000.58C1004.92 206 1008.44 202.48 1008.44 198.139V106.861C1008.44 102.52 1004.92 99 1000.58 99Z" stroke="#DBDBDB" stroke-miterlimit="10"/>
<path d="M1113.58 99H1022.3C1017.96 99 1014.44 102.52 1014.44 106.861V198.139C1014.44 202.48 1017.96 206 1022.3 206H1113.58C1117.92 206 1121.44 202.48 1121.44 198.139V106.861C1121.44 102.52 1117.92 99 1113.58 99Z" stroke="#DBDBDB" stroke-miterlimit="10"/>
<path d="M212.719 211H121.164C116.899 211 113.441 214.425 113.441 218.651V309.349C113.441 313.575 116.899 317 121.164 317H212.719C216.984 317 220.441 313.575 220.441 309.349V218.651C220.441 214.425 216.984 211 212.719 211Z" stroke="#DBDBDB" stroke-miterlimit="10"/>
<path d="M324.791 211H234.092C229.867 211 226.441 214.425 226.441 218.651V309.349C226.441 313.575 229.867 317 234.092 317H324.791C329.016 317 332.441 313.575 332.441 309.349V218.651C332.441 214.425 329.016 211 324.791 211Z" stroke="#DBDBDB" stroke-miterlimit="10"/>
<path d="M437.719 211H346.164C341.899 211 338.441 214.425 338.441 218.651V309.349C338.441 313.575 341.899 317 346.164 317H437.719C441.984 317 445.441 313.575 445.441 309.349V218.651C445.441 214.425 441.984 211 437.719 211Z" stroke="#DBDBDB" stroke-miterlimit="10"/>
<path d="M887.654 211H797.229C792.928 211 789.441 214.487 789.441 218.788V309.212C789.441 313.513 792.928 317 797.229 317H887.654C891.955 317 895.441 313.513 895.441 309.212V218.788C895.441 214.487 891.955 211 887.654 211Z" stroke="#DBDBDB" stroke-miterlimit="10"/>
<path d="M774.425 323H686.458C681.478 323 677.441 327.037 677.441 332.016V419.984C677.441 424.963 681.478 429 686.458 429H774.425C779.405 429 783.441 424.963 783.441 419.984V332.016C783.441 327.037 779.405 323 774.425 323Z" stroke="#DBDBDB" stroke-miterlimit="10"/>
<path d="M887.654 323H797.229C792.928 323 789.441 326.487 789.441 330.788V421.212C789.441 425.513 792.928 429 797.229 429H887.654C891.955 429 895.441 425.513 895.441 421.212V330.788C895.441 326.487 891.955 323 887.654 323Z" stroke="#DBDBDB" stroke-miterlimit="10"/>
<path d="M1000.58 211H909.302C904.961 211 901.441 214.487 901.441 218.788V309.212C901.441 313.513 904.961 317 909.302 317H1000.58C1004.92 317 1008.44 313.513 1008.44 309.212V218.788C1008.44 214.487 1004.92 211 1000.58 211Z" stroke="#DBDBDB" stroke-miterlimit="10"/>
<path d="M1113.58 211H1022.3C1017.96 211 1014.44 214.487 1014.44 218.788V309.212C1014.44 313.513 1017.96 317 1022.3 317H1113.58C1117.92 317 1121.44 313.513 1121.44 309.212V218.788C1121.44 214.487 1117.92 211 1113.58 211Z" stroke="#DBDBDB" stroke-miterlimit="10"/>
<path d="M212.719 323H121.164C116.899 323 113.441 326.425 113.441 330.651V421.349C113.441 425.575 116.899 429 121.164 429H212.719C216.984 429 220.441 425.575 220.441 421.349V330.651C220.441 326.425 216.984 323 212.719 323Z" stroke="#DBDBDB" stroke-miterlimit="10"/>
<path d="M324.791 323H234.092C229.867 323 226.441 326.425 226.441 330.651V421.349C226.441 425.575 229.867 429 234.092 429H324.791C329.016 429 332.441 425.575 332.441 421.349V330.651C332.441 326.425 329.016 323 324.791 323Z" stroke="#DBDBDB" stroke-miterlimit="10"/>
<path d="M437.719 323H346.164C341.899 323 338.441 326.425 338.441 330.651V421.349C338.441 425.575 341.899 429 346.164 429H437.719C441.984 429 445.441 425.575 445.441 421.349V330.651C445.441 326.425 441.984 323 437.719 323Z" stroke="#DBDBDB" stroke-miterlimit="10"/>
<path d="M548.425 323H460.458C455.478 323 451.441 327.037 451.441 332.016V419.984C451.441 424.963 455.478 429 460.458 429H548.425C553.405 429 557.441 424.963 557.441 419.984V332.016C557.441 327.037 553.405 323 548.425 323Z" stroke="#DBDBDB" stroke-miterlimit="10"/>
<path d="M660.425 323H572.458C567.478 323 563.441 327.037 563.441 332.016V419.984C563.441 424.963 567.478 429 572.458 429H660.425C665.405 429 669.441 424.963 669.441 419.984V332.016C669.441 327.037 665.405 323 660.425 323Z" stroke="#DBDBDB" stroke-miterlimit="10"/>
<path d="M1000.58 323H909.302C904.961 323 901.441 326.487 901.441 330.788V421.212C901.441 425.513 904.961 429 909.302 429H1000.58C1004.92 429 1008.44 425.513 1008.44 421.212V330.788C1008.44 326.487 1004.92 323 1000.58 323Z" stroke="#DBDBDB" stroke-miterlimit="10"/>
<path d="M1113.58 323H1022.3C1017.96 323 1014.44 326.487 1014.44 330.788V421.212C1014.44 425.513 1017.96 429 1022.3 429H1113.58C1117.92 429 1121.44 425.513 1121.44 421.212V330.788C1121.44 326.487 1117.92 323 1113.58 323Z" stroke="#DBDBDB" stroke-miterlimit="10"/>
<path d="M212.719 433H121.164C116.899 433 113.441 436.49 113.441 440.795V533.205C113.441 537.51 116.899 541 121.164 541H212.719C216.984 541 220.441 537.51 220.441 533.205V440.795C220.441 436.49 216.984 433 212.719 433Z" stroke="#DBDBDB" stroke-miterlimit="10"/>
<path d="M98.7909 -12H8.09192C3.86666 -12 0.441406 -8.57475 0.441406 -4.34948V86.3495C0.441406 90.5748 3.86666 94 8.09192 94H98.7909C103.016 94 106.441 90.5748 106.441 86.3495V-4.34948C106.441 -8.57475 103.016 -12 98.7909 -12Z" stroke="#DBDBDB" stroke-miterlimit="10"/>
<path d="M98.7909 99H8.09192C3.86666 99 0.441406 102.458 0.441406 106.723V198.277C0.441406 202.542 3.86666 206 8.09192 206H98.7909C103.016 206 106.441 202.542 106.441 198.277V106.723C106.441 102.458 103.016 99 98.7909 99Z" stroke="#DBDBDB" stroke-miterlimit="10"/>
<path d="M98.7909 211H8.09192C3.86666 211 0.441406 214.425 0.441406 218.651V309.349C0.441406 313.575 3.86666 317 8.09192 317H98.7909C103.016 317 106.441 313.575 106.441 309.349V218.651C106.441 214.425 103.016 211 98.7909 211Z" stroke="#DBDBDB" stroke-miterlimit="10"/>
<path d="M98.7909 323H8.09192C3.86666 323 0.441406 326.425 0.441406 330.651V421.349C0.441406 425.575 3.86666 429 8.09192 429H98.7909C103.016 429 106.441 425.575 106.441 421.349V330.651C106.441 326.425 103.016 323 98.7909 323Z" stroke="#DBDBDB" stroke-miterlimit="10"/>
<path d="M98.7909 433H8.09192C3.86666 433 0.441406 436.49 0.441406 440.795V533.205C0.441406 537.51 3.86666 541 8.09192 541H98.7909C103.016 541 106.441 537.51 106.441 533.205V440.795C106.441 436.49 103.016 433 98.7909 433Z" stroke="#DBDBDB" stroke-miterlimit="10"/>
<path d="M324.791 433H234.092C229.867 433 226.441 436.49 226.441 440.795V533.205C226.441 537.51 229.867 541 234.092 541H324.791C329.016 541 332.441 537.51 332.441 533.205V440.795C332.441 436.49 329.016 433 324.791 433Z" stroke="#DBDBDB" stroke-miterlimit="10"/>
<path d="M437.719 433H346.164C341.899 433 338.441 436.49 338.441 440.795V533.205C338.441 537.51 341.899 541 346.164 541H437.719C441.984 541 445.441 537.51 445.441 533.205V440.795C445.441 436.49 441.984 433 437.719 433Z" stroke="#DBDBDB" stroke-miterlimit="10"/>
<path d="M551.889 433H456.993C453.927 433 451.441 435.533 451.441 438.657V535.343C451.441 538.467 453.927 541 456.993 541H551.889C554.956 541 557.441 538.467 557.441 535.343V438.657C557.441 435.533 554.956 433 551.889 433Z" stroke="#DBDBDB" stroke-miterlimit="10"/>
<path d="M663.889 433H568.993C565.927 433 563.441 435.533 563.441 438.657V535.343C563.441 538.467 565.927 541 568.993 541H663.889C666.956 541 669.441 538.467 669.441 535.343V438.657C669.441 435.533 666.956 433 663.889 433Z" stroke="#DBDBDB" stroke-miterlimit="10"/>
<path d="M777.889 433H682.993C679.927 433 677.441 435.533 677.441 438.657V535.343C677.441 538.467 679.927 541 682.993 541H777.889C780.956 541 783.441 538.467 783.441 535.343V438.657C783.441 435.533 780.956 433 777.889 433Z" stroke="#DBDBDB" stroke-miterlimit="10"/>
<path d="M887.654 433H797.229C792.928 433 789.441 436.552 789.441 440.935V533.065C789.441 537.448 792.928 541 797.229 541H887.654C891.955 541 895.441 537.448 895.441 533.065V440.935C895.441 436.552 891.955 433 887.654 433Z" stroke="#DBDBDB" stroke-miterlimit="10"/>
<path d="M1000.58 433H909.302C904.961 433 901.441 436.552 901.441 440.935V533.065C901.441 537.448 904.961 541 909.302 541H1000.58C1004.92 541 1008.44 537.448 1008.44 533.065V440.935C1008.44 436.552 1004.92 433 1000.58 433Z" stroke="#DBDBDB" stroke-miterlimit="10"/>
<path d="M1113.58 433H1022.3C1017.96 433 1014.44 436.552 1014.44 440.935V533.065C1014.44 537.448 1017.96 541 1022.3 541H1113.58C1117.92 541 1121.44 537.448 1121.44 533.065V440.935C1121.44 436.552 1117.92 433 1113.58 433Z" stroke="#DBDBDB" stroke-miterlimit="10"/>
<path d="M212.719 550H121.164C116.899 550 113.441 553.425 113.441 557.651V648.349C113.441 652.575 116.899 656 121.164 656H212.719C216.984 656 220.441 652.575 220.441 648.349V557.651C220.441 553.425 216.984 550 212.719 550Z" stroke="#DBDBDB" stroke-miterlimit="10"/>
<path d="M324.791 550H234.092C229.867 550 226.441 553.425 226.441 557.651V648.349C226.441 652.575 229.867 656 234.092 656H324.791C329.016 656 332.441 652.575 332.441 648.349V557.651C332.441 553.425 329.016 550 324.791 550Z" stroke="#DBDBDB" stroke-miterlimit="10"/>
<path d="M437.719 550H346.164C341.899 550 338.441 553.425 338.441 557.651V648.349C338.441 652.575 341.899 656 346.164 656H437.719C441.984 656 445.441 652.575 445.441 648.349V557.651C445.441 553.425 441.984 550 437.719 550Z" stroke="#DBDBDB" stroke-miterlimit="10"/>
<path d="M324.791 660H234.092C229.867 660 226.441 663.49 226.441 667.795V760.205C226.441 764.51 229.867 768 234.092 768H324.791C329.016 768 332.441 764.51 332.441 760.205V667.795C332.441 663.49 329.016 660 324.791 660Z" stroke="#DBDBDB" stroke-miterlimit="10"/>
<path d="M437.719 660H346.164C341.899 660 338.441 663.49 338.441 667.795V760.205C338.441 764.51 341.899 768 346.164 768H437.719C441.984 768 445.441 764.51 445.441 760.205V667.795C445.441 663.49 441.984 660 437.719 660Z" stroke="#DBDBDB" stroke-miterlimit="10"/>
<path d="M550.687 550H458.196C454.465 550 451.441 553.024 451.441 556.754V649.246C451.441 652.976 454.465 656 458.196 656H550.687C554.417 656 557.441 652.976 557.441 649.246V556.754C557.441 553.024 554.417 550 550.687 550Z" stroke="#DBDBDB" stroke-miterlimit="10"/>
<path d="M662.687 550H570.196C566.465 550 563.441 553.024 563.441 556.754V649.246C563.441 652.976 566.465 656 570.196 656H662.687C666.417 656 669.441 652.976 669.441 649.246V556.754C669.441 553.024 666.417 550 662.687 550Z" stroke="#DBDBDB" stroke-miterlimit="10"/>
<path d="M776.687 550H684.196C680.465 550 677.441 553.024 677.441 556.754V649.246C677.441 652.976 680.465 656 684.196 656H776.687C780.417 656 783.441 652.976 783.441 649.246V556.754C783.441 553.024 780.417 550 776.687 550Z" stroke="#DBDBDB" stroke-miterlimit="10"/>
<path d="M887.654 550H797.229C792.928 550 789.441 553.487 789.441 557.788V648.212C789.441 652.513 792.928 656 797.229 656H887.654C891.955 656 895.441 652.513 895.441 648.212V557.788C895.441 553.487 891.955 550 887.654 550Z" stroke="#DBDBDB" stroke-miterlimit="10"/>
<path d="M1000.58 550H909.302C904.961 550 901.441 553.487 901.441 557.788V648.212C901.441 652.513 904.961 656 909.302 656H1000.58C1004.92 656 1008.44 652.513 1008.44 648.212V557.788C1008.44 553.487 1004.92 550 1000.58 550Z" stroke="#DBDBDB" stroke-miterlimit="10"/>
<path d="M1113.58 550H1022.3C1017.96 550 1014.44 553.487 1014.44 557.788V648.212C1014.44 652.513 1017.96 656 1022.3 656H1113.58C1117.92 656 1121.44 652.513 1121.44 648.212V557.788C1121.44 553.487 1117.92 550 1113.58 550Z" stroke="#DBDBDB" stroke-miterlimit="10"/>
<path d="M212.719 660H121.164C116.899 660 113.441 663.49 113.441 667.795V760.205C113.441 764.51 116.899 768 121.164 768H212.719C216.984 768 220.441 764.51 220.441 760.205V667.795C220.441 663.49 216.984 660 212.719 660Z" stroke="#DBDBDB" stroke-miterlimit="10"/>
<path d="M548.425 660H460.458C455.478 660 451.441 664.113 451.441 669.186V758.814C451.441 763.887 455.478 768 460.458 768H548.425C553.405 768 557.441 763.887 557.441 758.814V669.186C557.441 664.113 553.405 660 548.425 660Z" stroke="#DBDBDB" stroke-miterlimit="10"/>
<path d="M660.425 660H572.458C567.478 660 563.441 664.113 563.441 669.186V758.814C563.441 763.887 567.478 768 572.458 768H660.425C665.405 768 669.441 763.887 669.441 758.814V669.186C669.441 664.113 665.405 660 660.425 660Z" stroke="#DBDBDB" stroke-miterlimit="10"/>
<path d="M774.425 660H686.458C681.478 660 677.441 664.113 677.441 669.186V758.814C677.441 763.887 681.478 768 686.458 768H774.425C779.405 768 783.441 763.887 783.441 758.814V669.186C783.441 664.113 779.405 660 774.425 660Z" stroke="#DBDBDB" stroke-miterlimit="10"/>
<path d="M548.425 772H460.458C455.478 772 451.441 776.075 451.441 781.101V869.899C451.441 874.925 455.478 879 460.458 879H548.425C553.405 879 557.441 874.925 557.441 869.899V781.101C557.441 776.075 553.405 772 548.425 772Z" stroke="#DBDBDB" stroke-miterlimit="10"/>
<path d="M660.425 772H572.458C567.478 772 563.441 776.075 563.441 781.101V869.899C563.441 874.925 567.478 879 572.458 879H660.425C665.405 879 669.441 874.925 669.441 869.899V781.101C669.441 776.075 665.405 772 660.425 772Z" stroke="#DBDBDB" stroke-miterlimit="10"/>
<path d="M774.425 772H686.458C681.478 772 677.441 776.075 677.441 781.101V869.899C677.441 874.925 681.478 879 686.458 879H774.425C779.405 879 783.441 874.925 783.441 869.899V781.101C783.441 776.075 779.405 772 774.425 772Z" stroke="#DBDBDB" stroke-miterlimit="10"/>
<path d="M887.654 660H797.229C792.928 660 789.441 663.552 789.441 667.935V760.065C789.441 764.448 792.928 768 797.229 768H887.654C891.955 768 895.441 764.448 895.441 760.065V667.935C895.441 663.552 891.955 660 887.654 660Z" stroke="#DBDBDB" stroke-miterlimit="10"/>
<path d="M1000.58 660H909.302C904.961 660 901.441 663.552 901.441 667.935V760.065C901.441 764.448 904.961 768 909.302 768H1000.58C1004.92 768 1008.44 764.448 1008.44 760.065V667.935C1008.44 663.552 1004.92 660 1000.58 660Z" stroke="#DBDBDB" stroke-miterlimit="10"/>
<path d="M1113.58 660H1022.3C1017.96 660 1014.44 663.552 1014.44 667.935V760.065C1014.44 764.448 1017.96 768 1022.3 768H1113.58C1117.92 768 1121.44 764.448 1121.44 760.065V667.935C1121.44 663.552 1117.92 660 1113.58 660Z" stroke="#DBDBDB" stroke-miterlimit="10"/>
<path d="M212.719 772H121.164C116.899 772 113.441 775.458 113.441 779.723V871.277C113.441 875.542 116.899 879 121.164 879H212.719C216.984 879 220.441 875.542 220.441 871.277V779.723C220.441 775.458 216.984 772 212.719 772Z" stroke="#DBDBDB" stroke-miterlimit="10"/>
<path d="M324.791 772H234.092C229.867 772 226.441 775.458 226.441 779.723V871.277C226.441 875.542 229.867 879 234.092 879H324.791C329.016 879 332.441 875.542 332.441 871.277V779.723C332.441 775.458 329.016 772 324.791 772Z" stroke="#DBDBDB" stroke-miterlimit="10"/>
<path d="M437.719 772H346.164C341.899 772 338.441 775.458 338.441 779.723V871.277C338.441 875.542 341.899 879 346.164 879H437.719C441.984 879 445.441 875.542 445.441 871.277V779.723C445.441 775.458 441.984 772 437.719 772Z" stroke="#DBDBDB" stroke-miterlimit="10"/>
<path d="M887.654 772H797.229C792.928 772 789.441 775.52 789.441 779.861V871.139C789.441 875.48 792.928 879 797.229 879H887.654C891.955 879 895.441 875.48 895.441 871.139V779.861C895.441 775.52 891.955 772 887.654 772Z" stroke="#DBDBDB" stroke-miterlimit="10"/>
<path d="M774.425 884H686.458C681.478 884 677.441 888.075 677.441 893.101V981.899C677.441 986.925 681.478 991 686.458 991H774.425C779.405 991 783.441 986.925 783.441 981.899V893.101C783.441 888.075 779.405 884 774.425 884Z" stroke="#DBDBDB" stroke-miterlimit="10"/>
<path d="M887.654 884H797.229C792.928 884 789.441 887.52 789.441 891.861V983.139C789.441 987.48 792.928 991 797.229 991H887.654C891.955 991 895.441 987.48 895.441 983.139V891.861C895.441 887.52 891.955 884 887.654 884Z" stroke="#DBDBDB" stroke-miterlimit="10"/>
<path d="M1000.58 772H909.302C904.961 772 901.441 775.52 901.441 779.861V871.139C901.441 875.48 904.961 879 909.302 879H1000.58C1004.92 879 1008.44 875.48 1008.44 871.139V779.861C1008.44 775.52 1004.92 772 1000.58 772Z" stroke="#DBDBDB" stroke-miterlimit="10"/>
<path d="M1113.58 772H1022.3C1017.96 772 1014.44 775.52 1014.44 779.861V871.139C1014.44 875.48 1017.96 879 1022.3 879H1113.58C1117.92 879 1121.44 875.48 1121.44 871.139V779.861C1121.44 775.52 1117.92 772 1113.58 772Z" stroke="#DBDBDB" stroke-miterlimit="10"/>
<path d="M212.719 884H121.164C116.899 884 113.441 887.458 113.441 891.723V983.277C113.441 987.542 116.899 991 121.164 991H212.719C216.984 991 220.441 987.542 220.441 983.277V891.723C220.441 887.458 216.984 884 212.719 884Z" stroke="#DBDBDB" stroke-miterlimit="10"/>
<path d="M324.791 884H234.092C229.867 884 226.441 887.458 226.441 891.723V983.277C226.441 987.542 229.867 991 234.092 991H324.791C329.016 991 332.441 987.542 332.441 983.277V891.723C332.441 887.458 329.016 884 324.791 884Z" stroke="#DBDBDB" stroke-miterlimit="10"/>
<path d="M437.719 884H346.164C341.899 884 338.441 887.458 338.441 891.723V983.277C338.441 987.542 341.899 991 346.164 991H437.719C441.984 991 445.441 987.542 445.441 983.277V891.723C445.441 887.458 441.984 884 437.719 884Z" stroke="#DBDBDB" stroke-miterlimit="10"/>
<path d="M548.425 884H460.458C455.478 884 451.441 888.075 451.441 893.101V981.899C451.441 986.925 455.478 991 460.458 991H548.425C553.405 991 557.441 986.925 557.441 981.899V893.101C557.441 888.075 553.405 884 548.425 884Z" stroke="#DBDBDB" stroke-miterlimit="10"/>
<path d="M660.425 884H572.458C567.478 884 563.441 888.075 563.441 893.101V981.899C563.441 986.925 567.478 991 572.458 991H660.425C665.405 991 669.441 986.925 669.441 981.899V893.101C669.441 888.075 665.405 884 660.425 884Z" stroke="#DBDBDB" stroke-miterlimit="10"/>
<path d="M1000.58 884H909.302C904.961 884 901.441 887.52 901.441 891.861V983.139C901.441 987.48 904.961 991 909.302 991H1000.58C1004.92 991 1008.44 987.48 1008.44 983.139V891.861C1008.44 887.52 1004.92 884 1000.58 884Z" stroke="#DBDBDB" stroke-miterlimit="10"/>
<path d="M1113.58 884H1022.3C1017.96 884 1014.44 887.52 1014.44 891.861V983.139C1014.44 987.48 1017.96 991 1022.3 991H1113.58C1117.92 991 1121.44 987.48 1121.44 983.139V891.861C1121.44 887.52 1117.92 884 1113.58 884Z" stroke="#DBDBDB" stroke-miterlimit="10"/>
<path d="M98.7909 550H8.09192C3.86666 550 0.441406 553.425 0.441406 557.651V648.349C0.441406 652.575 3.86666 656 8.09192 656H98.7909C103.016 656 106.441 652.575 106.441 648.349V557.651C106.441 553.425 103.016 550 98.7909 550Z" stroke="#DBDBDB" stroke-miterlimit="10"/>
<path d="M98.7909 660H8.09192C3.86666 660 0.441406 663.49 0.441406 667.795V760.205C0.441406 764.51 3.86666 768 8.09192 768H98.7909C103.016 768 106.441 764.51 106.441 760.205V667.795C106.441 663.49 103.016 660 98.7909 660Z" stroke="#DBDBDB" stroke-miterlimit="10"/>
<path d="M98.7909 772H8.09192C3.86666 772 0.441406 775.458 0.441406 779.723V871.277C0.441406 875.542 3.86666 879 8.09192 879H98.7909C103.016 879 106.441 875.542 106.441 871.277V779.723C106.441 775.458 103.016 772 98.7909 772Z" stroke="#DBDBDB" stroke-miterlimit="10"/>
<path d="M98.7909 884H8.09192C3.86666 884 0.441406 887.458 0.441406 891.723V983.277C0.441406 987.542 3.86666 991 8.09192 991H98.7909C103.016 991 106.441 987.542 106.441 983.277V891.723C106.441 887.458 103.016 884 98.7909 884Z" stroke="#DBDBDB" stroke-miterlimit="10"/>
<path d="M1342.79 551H1252.09C1247.87 551 1244.44 554.425 1244.44 558.651V649.349C1244.44 653.575 1247.87 657 1252.09 657H1342.79C1347.02 657 1350.44 653.575 1350.44 649.349V558.651C1350.44 554.425 1347.02 551 1342.79 551Z" stroke="#DBDBDB" stroke-miterlimit="10"/>
<path d="M1454.79 551H1364.09C1359.87 551 1356.44 554.425 1356.44 558.651V649.349C1356.44 653.575 1359.87 657 1364.09 657H1454.79C1459.02 657 1462.44 653.575 1462.44 649.349V558.651C1462.44 554.425 1459.02 551 1454.79 551Z" stroke="#DBDBDB" stroke-miterlimit="10"/>
<path d="M1568.65 551H1476.24C1471.93 551 1468.44 554.425 1468.44 558.651V649.349C1468.44 653.575 1471.93 657 1476.24 657H1568.65C1572.95 657 1576.44 653.575 1576.44 649.349V558.651C1576.44 554.425 1572.95 551 1568.65 551Z" stroke="#DBDBDB" stroke-miterlimit="10"/>
<path d="M1454.79 662H1364.09C1359.87 662 1356.44 665.49 1356.44 669.795V762.205C1356.44 766.51 1359.87 770 1364.09 770H1454.79C1459.02 770 1462.44 766.51 1462.44 762.205V669.795C1462.44 665.49 1459.02 662 1454.79 662Z" stroke="#DBDBDB" stroke-miterlimit="10"/>
<path d="M1568.65 662H1476.24C1471.93 662 1468.44 665.49 1468.44 669.795V762.205C1468.44 766.51 1471.93 770 1476.24 770H1568.65C1572.95 770 1576.44 766.51 1576.44 762.205V669.795C1576.44 665.49 1572.95 662 1568.65 662Z" stroke="#DBDBDB" stroke-miterlimit="10"/>
<path d="M1681.69 551H1589.2C1585.47 551 1582.44 554.024 1582.44 557.754V650.246C1582.44 653.976 1585.47 657 1589.2 657H1681.69C1685.42 657 1688.44 653.976 1688.44 650.246V557.754C1688.44 554.024 1685.42 551 1681.69 551Z" stroke="#DBDBDB" stroke-miterlimit="10"/>
<path d="M1793.69 551H1701.2C1697.47 551 1694.44 554.024 1694.44 557.754V650.246C1694.44 653.976 1697.47 657 1701.2 657H1793.69C1797.42 657 1800.44 653.976 1800.44 650.246V557.754C1800.44 554.024 1797.42 551 1793.69 551Z" stroke="#DBDBDB" stroke-miterlimit="10"/>
<path d="M1906.69 551H1814.2C1810.47 551 1807.44 554.024 1807.44 557.754V650.246C1807.44 653.976 1810.47 657 1814.2 657H1906.69C1910.42 657 1913.44 653.976 1913.44 650.246V557.754C1913.44 554.024 1910.42 551 1906.69 551Z" stroke="#DBDBDB" stroke-miterlimit="10"/>
<path d="M1342.79 662H1252.09C1247.87 662 1244.44 665.49 1244.44 669.795V762.205C1244.44 766.51 1247.87 770 1252.09 770H1342.79C1347.02 770 1350.44 766.51 1350.44 762.205V669.795C1350.44 665.49 1347.02 662 1342.79 662Z" stroke="#DBDBDB" stroke-miterlimit="10"/>
<path d="M1679.43 662H1591.46C1586.48 662 1582.44 666.113 1582.44 671.186V760.814C1582.44 765.887 1586.48 770 1591.46 770H1679.43C1684.4 770 1688.44 765.887 1688.44 760.814V671.186C1688.44 666.113 1684.4 662 1679.43 662Z" stroke="#DBDBDB" stroke-miterlimit="10"/>
<path d="M1791.43 662H1703.46C1698.48 662 1694.44 666.113 1694.44 671.186V760.814C1694.44 765.887 1698.48 770 1703.46 770H1791.43C1796.4 770 1800.44 765.887 1800.44 760.814V671.186C1800.44 666.113 1796.4 662 1791.43 662Z" stroke="#DBDBDB" stroke-miterlimit="10"/>
<path d="M1904.43 662H1816.46C1811.48 662 1807.44 666.113 1807.44 671.186V760.814C1807.44 765.887 1811.48 770 1816.46 770H1904.43C1909.4 770 1913.44 765.887 1913.44 760.814V671.186C1913.44 666.113 1909.4 662 1904.43 662Z" stroke="#DBDBDB" stroke-miterlimit="10"/>
<path d="M1679.43 774H1591.46C1586.48 774 1582.44 778.037 1582.44 783.016V870.984C1582.44 875.963 1586.48 880 1591.46 880H1679.43C1684.4 880 1688.44 875.963 1688.44 870.984V783.016C1688.44 778.037 1684.4 774 1679.43 774Z" stroke="#DBDBDB" stroke-miterlimit="10"/>
<path d="M1791.43 774H1703.46C1698.48 774 1694.44 778.037 1694.44 783.016V870.984C1694.44 875.963 1698.48 880 1703.46 880H1791.43C1796.4 880 1800.44 875.963 1800.44 870.984V783.016C1800.44 778.037 1796.4 774 1791.43 774Z" stroke="#DBDBDB" stroke-miterlimit="10"/>
<path d="M1904.43 774H1816.46C1811.48 774 1807.44 778.037 1807.44 783.016V870.984C1807.44 875.963 1811.48 880 1816.46 880H1904.43C1909.4 880 1913.44 875.963 1913.44 870.984V783.016C1913.44 778.037 1909.4 774 1904.43 774Z" stroke="#DBDBDB" stroke-miterlimit="10"/>
<path d="M1342.79 774H1252.09C1247.87 774 1244.44 777.425 1244.44 781.651V872.349C1244.44 876.575 1247.87 880 1252.09 880H1342.79C1347.02 880 1350.44 876.575 1350.44 872.349V781.651C1350.44 777.425 1347.02 774 1342.79 774Z" stroke="#DBDBDB" stroke-miterlimit="10"/>
<path d="M1454.79 774H1364.09C1359.87 774 1356.44 777.425 1356.44 781.651V872.349C1356.44 876.575 1359.87 880 1364.09 880H1454.79C1459.02 880 1462.44 876.575 1462.44 872.349V781.651C1462.44 777.425 1459.02 774 1454.79 774Z" stroke="#DBDBDB" stroke-miterlimit="10"/>
<path d="M1568.65 774H1476.24C1471.93 774 1468.44 777.425 1468.44 781.651V872.349C1468.44 876.575 1471.93 880 1476.24 880H1568.65C1572.95 880 1576.44 876.575 1576.44 872.349V781.651C1576.44 777.425 1572.95 774 1568.65 774Z" stroke="#DBDBDB" stroke-miterlimit="10"/>
<path d="M1904.43 886H1816.46C1811.48 886 1807.44 890.037 1807.44 895.016V982.984C1807.44 987.963 1811.48 992 1816.46 992H1904.43C1909.4 992 1913.44 987.963 1913.44 982.984V895.016C1913.44 890.037 1909.4 886 1904.43 886Z" stroke="#DBDBDB" stroke-miterlimit="10"/>
<path d="M1342.79 886H1252.09C1247.87 886 1244.44 889.425 1244.44 893.651V984.349C1244.44 988.575 1247.87 992 1252.09 992H1342.79C1347.02 992 1350.44 988.575 1350.44 984.349V893.651C1350.44 889.425 1347.02 886 1342.79 886Z" stroke="#DBDBDB" stroke-miterlimit="10"/>
<path d="M1454.79 886H1364.09C1359.87 886 1356.44 889.425 1356.44 893.651V984.349C1356.44 988.575 1359.87 992 1364.09 992H1454.79C1459.02 992 1462.44 988.575 1462.44 984.349V893.651C1462.44 889.425 1459.02 886 1454.79 886Z" stroke="#DBDBDB" stroke-miterlimit="10"/>
<path d="M1568.65 886H1476.24C1471.93 886 1468.44 889.425 1468.44 893.651V984.349C1468.44 988.575 1471.93 992 1476.24 992H1568.65C1572.95 992 1576.44 988.575 1576.44 984.349V893.651C1576.44 889.425 1572.95 886 1568.65 886Z" stroke="#DBDBDB" stroke-miterlimit="10"/>
<path d="M1679.43 886H1591.46C1586.48 886 1582.44 890.037 1582.44 895.016V982.984C1582.44 987.963 1586.48 992 1591.46 992H1679.43C1684.4 992 1688.44 987.963 1688.44 982.984V895.016C1688.44 890.037 1684.4 886 1679.43 886Z" stroke="#DBDBDB" stroke-miterlimit="10"/>
<path d="M1791.43 886H1703.46C1698.48 886 1694.44 890.037 1694.44 895.016V982.984C1694.44 987.963 1698.48 992 1703.46 992H1791.43C1796.4 992 1800.44 987.963 1800.44 982.984V895.016C1800.44 890.037 1796.4 886 1791.43 886Z" stroke="#DBDBDB" stroke-miterlimit="10"/>
<path d="M1229.72 551H1138.16C1133.9 551 1130.44 554.425 1130.44 558.651V649.349C1130.44 653.575 1133.9 657 1138.16 657H1229.72C1233.98 657 1237.44 653.575 1237.44 649.349V558.651C1237.44 554.425 1233.98 551 1229.72 551Z" stroke="#DBDBDB" stroke-miterlimit="10"/>
<path d="M1229.72 662H1138.16C1133.9 662 1130.44 665.49 1130.44 669.795V762.205C1130.44 766.51 1133.9 770 1138.16 770H1229.72C1233.98 770 1237.44 766.51 1237.44 762.205V669.795C1237.44 665.49 1233.98 662 1229.72 662Z" stroke="#DBDBDB" stroke-miterlimit="10"/>
<path d="M1229.72 774H1138.16C1133.9 774 1130.44 777.425 1130.44 781.651V872.349C1130.44 876.575 1133.9 880 1138.16 880H1229.72C1233.98 880 1237.44 876.575 1237.44 872.349V781.651C1237.44 777.425 1233.98 774 1229.72 774Z" stroke="#DBDBDB" stroke-miterlimit="10"/>
<path d="M1229.72 886H1138.16C1133.9 886 1130.44 889.425 1130.44 893.651V984.349C1130.44 988.575 1133.9 992 1138.16 992H1229.72C1233.98 992 1237.44 988.575 1237.44 984.349V893.651C1237.44 889.425 1233.98 886 1229.72 886Z" stroke="#DBDBDB" stroke-miterlimit="10"/>
<path d="M1342.79 -12H1252.09C1247.87 -12 1244.44 -8.57475 1244.44 -4.34948V86.3495C1244.44 90.5748 1247.87 94 1252.09 94H1342.79C1347.02 94 1350.44 90.5748 1350.44 86.3495V-4.34948C1350.44 -8.57475 1347.02 -12 1342.79 -12Z" stroke="#DBDBDB" stroke-miterlimit="10"/>
<path d="M1454.79 -12H1364.09C1359.87 -12 1356.44 -8.57475 1356.44 -4.34948V86.3495C1356.44 90.5748 1359.87 94 1364.09 94H1454.79C1459.02 94 1462.44 90.5748 1462.44 86.3495V-4.34948C1462.44 -8.57475 1459.02 -12 1454.79 -12Z" stroke="#DBDBDB" stroke-miterlimit="10"/>
<path d="M1568.65 -12H1476.24C1471.93 -12 1468.44 -8.57475 1468.44 -4.34948V86.3495C1468.44 90.5748 1471.93 94 1476.24 94H1568.65C1572.95 94 1576.44 90.5748 1576.44 86.3495V-4.34948C1576.44 -8.57475 1572.95 -12 1568.65 -12Z" stroke="#DBDBDB" stroke-miterlimit="10"/>
<path d="M1454.79 99H1364.09C1359.87 99 1356.44 102.458 1356.44 106.723V198.277C1356.44 202.542 1359.87 206 1364.09 206H1454.79C1459.02 206 1462.44 202.542 1462.44 198.277V106.723C1462.44 102.458 1459.02 99 1454.79 99Z" stroke="#DBDBDB" stroke-miterlimit="10"/>
<path d="M1568.65 99H1476.24C1471.93 99 1468.44 102.458 1468.44 106.723V198.277C1468.44 202.542 1471.93 206 1476.24 206H1568.65C1572.95 206 1576.44 202.542 1576.44 198.277V106.723C1576.44 102.458 1572.95 99 1568.65 99Z" stroke="#DBDBDB" stroke-miterlimit="10"/>
<path d="M1681.69 -12H1589.2C1585.47 -12 1582.44 -8.97605 1582.44 -5.24582V87.2458C1582.44 90.9761 1585.47 94 1589.2 94H1681.69C1685.42 94 1688.44 90.9761 1688.44 87.2458V-5.24582C1688.44 -8.97605 1685.42 -12 1681.69 -12Z" stroke="#DBDBDB" stroke-miterlimit="10"/>
<path d="M1793.69 -12H1701.2C1697.47 -12 1694.44 -8.97605 1694.44 -5.24582V87.2458C1694.44 90.9761 1697.47 94 1701.2 94H1793.69C1797.42 94 1800.44 90.9761 1800.44 87.2458V-5.24582C1800.44 -8.97605 1797.42 -12 1793.69 -12Z" stroke="#DBDBDB" stroke-miterlimit="10"/>
<path d="M1906.69 -12H1814.2C1810.47 -12 1807.44 -8.97605 1807.44 -5.24582V87.2458C1807.44 90.9761 1810.47 94 1814.2 94H1906.69C1910.42 94 1913.44 90.9761 1913.44 87.2458V-5.24582C1913.44 -8.97605 1910.42 -12 1906.69 -12Z" stroke="#DBDBDB" stroke-miterlimit="10"/>
<path d="M1342.79 99H1252.09C1247.87 99 1244.44 102.458 1244.44 106.723V198.277C1244.44 202.542 1247.87 206 1252.09 206H1342.79C1347.02 206 1350.44 202.542 1350.44 198.277V106.723C1350.44 102.458 1347.02 99 1342.79 99Z" stroke="#DBDBDB" stroke-miterlimit="10"/>
<path d="M1679.43 99H1591.46C1586.48 99 1582.44 103.075 1582.44 108.101V196.899C1582.44 201.925 1586.48 206 1591.46 206H1679.43C1684.4 206 1688.44 201.925 1688.44 196.899V108.101C1688.44 103.075 1684.4 99 1679.43 99Z" stroke="#DBDBDB" stroke-miterlimit="10"/>
<path d="M1791.43 99H1703.46C1698.48 99 1694.44 103.075 1694.44 108.101V196.899C1694.44 201.925 1698.48 206 1703.46 206H1791.43C1796.4 206 1800.44 201.925 1800.44 196.899V108.101C1800.44 103.075 1796.4 99 1791.43 99Z" stroke="#DBDBDB" stroke-miterlimit="10"/>
<path d="M1904.43 99H1816.46C1811.48 99 1807.44 103.075 1807.44 108.101V196.899C1807.44 201.925 1811.48 206 1816.46 206H1904.43C1909.4 206 1913.44 201.925 1913.44 196.899V108.101C1913.44 103.075 1909.4 99 1904.43 99Z" stroke="#DBDBDB" stroke-miterlimit="10"/>
<path d="M1679.43 211H1591.46C1586.48 211 1582.44 215.037 1582.44 220.016V307.984C1582.44 312.963 1586.48 317 1591.46 317H1679.43C1684.4 317 1688.44 312.963 1688.44 307.984V220.016C1688.44 215.037 1684.4 211 1679.43 211Z" stroke="#DBDBDB" stroke-miterlimit="10"/>
<path d="M1791.43 211H1703.46C1698.48 211 1694.44 215.037 1694.44 220.016V307.984C1694.44 312.963 1698.48 317 1703.46 317H1791.43C1796.4 317 1800.44 312.963 1800.44 307.984V220.016C1800.44 215.037 1796.4 211 1791.43 211Z" stroke="#DBDBDB" stroke-miterlimit="10"/>
<path d="M1904.43 211H1816.46C1811.48 211 1807.44 215.037 1807.44 220.016V307.984C1807.44 312.963 1811.48 317 1816.46 317H1904.43C1909.4 317 1913.44 312.963 1913.44 307.984V220.016C1913.44 215.037 1909.4 211 1904.43 211Z" stroke="#DBDBDB" stroke-miterlimit="10"/>
<path d="M1342.79 211H1252.09C1247.87 211 1244.44 214.425 1244.44 218.651V309.349C1244.44 313.575 1247.87 317 1252.09 317H1342.79C1347.02 317 1350.44 313.575 1350.44 309.349V218.651C1350.44 214.425 1347.02 211 1342.79 211Z" stroke="#DBDBDB" stroke-miterlimit="10"/>
<path d="M1454.79 211H1364.09C1359.87 211 1356.44 214.425 1356.44 218.651V309.349C1356.44 313.575 1359.87 317 1364.09 317H1454.79C1459.02 317 1462.44 313.575 1462.44 309.349V218.651C1462.44 214.425 1459.02 211 1454.79 211Z" stroke="#DBDBDB" stroke-miterlimit="10"/>
<path d="M1568.65 211H1476.24C1471.93 211 1468.44 214.425 1468.44 218.651V309.349C1468.44 313.575 1471.93 317 1476.24 317H1568.65C1572.95 317 1576.44 313.575 1576.44 309.349V218.651C1576.44 214.425 1572.95 211 1568.65 211Z" stroke="#DBDBDB" stroke-miterlimit="10"/>
<path d="M1904.43 323H1816.46C1811.48 323 1807.44 327.037 1807.44 332.016V419.984C1807.44 424.963 1811.48 429 1816.46 429H1904.43C1909.4 429 1913.44 424.963 1913.44 419.984V332.016C1913.44 327.037 1909.4 323 1904.43 323Z" stroke="#DBDBDB" stroke-miterlimit="10"/>
<path d="M1342.79 323H1252.09C1247.87 323 1244.44 326.425 1244.44 330.651V421.349C1244.44 425.575 1247.87 429 1252.09 429H1342.79C1347.02 429 1350.44 425.575 1350.44 421.349V330.651C1350.44 326.425 1347.02 323 1342.79 323Z" stroke="#DBDBDB" stroke-miterlimit="10"/>
<path d="M1454.79 323H1364.09C1359.87 323 1356.44 326.425 1356.44 330.651V421.349C1356.44 425.575 1359.87 429 1364.09 429H1454.79C1459.02 429 1462.44 425.575 1462.44 421.349V330.651C1462.44 326.425 1459.02 323 1454.79 323Z" stroke="#DBDBDB" stroke-miterlimit="10"/>
<path d="M1568.65 323H1476.24C1471.93 323 1468.44 326.425 1468.44 330.651V421.349C1468.44 425.575 1471.93 429 1476.24 429H1568.65C1572.95 429 1576.44 425.575 1576.44 421.349V330.651C1576.44 326.425 1572.95 323 1568.65 323Z" stroke="#DBDBDB" stroke-miterlimit="10"/>
<path d="M1679.43 323H1591.46C1586.48 323 1582.44 327.037 1582.44 332.016V419.984C1582.44 424.963 1586.48 429 1591.46 429H1679.43C1684.4 429 1688.44 424.963 1688.44 419.984V332.016C1688.44 327.037 1684.4 323 1679.43 323Z" stroke="#DBDBDB" stroke-miterlimit="10"/>
<path d="M1791.43 323H1703.46C1698.48 323 1694.44 327.037 1694.44 332.016V419.984C1694.44 424.963 1698.48 429 1703.46 429H1791.43C1796.4 429 1800.44 424.963 1800.44 419.984V332.016C1800.44 327.037 1796.4 323 1791.43 323Z" stroke="#DBDBDB" stroke-miterlimit="10"/>
<path d="M1342.79 433H1252.09C1247.87 433 1244.44 436.49 1244.44 440.795V533.205C1244.44 537.51 1247.87 541 1252.09 541H1342.79C1347.02 541 1350.44 537.51 1350.44 533.205V440.795C1350.44 436.49 1347.02 433 1342.79 433Z" stroke="#DBDBDB" stroke-miterlimit="10"/>
<path d="M1229.72 -12H1138.16C1133.9 -12 1130.44 -8.57475 1130.44 -4.34948V86.3495C1130.44 90.5748 1133.9 94 1138.16 94H1229.72C1233.98 94 1237.44 90.5748 1237.44 86.3495V-4.34948C1237.44 -8.57475 1233.98 -12 1229.72 -12Z" stroke="#DBDBDB" stroke-miterlimit="10"/>
<path d="M1229.72 99H1138.16C1133.9 99 1130.44 102.458 1130.44 106.723V198.277C1130.44 202.542 1133.9 206 1138.16 206H1229.72C1233.98 206 1237.44 202.542 1237.44 198.277V106.723C1237.44 102.458 1233.98 99 1229.72 99Z" stroke="#DBDBDB" stroke-miterlimit="10"/>
<path d="M1229.72 211H1138.16C1133.9 211 1130.44 214.425 1130.44 218.651V309.349C1130.44 313.575 1133.9 317 1138.16 317H1229.72C1233.98 317 1237.44 313.575 1237.44 309.349V218.651C1237.44 214.425 1233.98 211 1229.72 211Z" stroke="#DBDBDB" stroke-miterlimit="10"/>
<path d="M1229.72 323H1138.16C1133.9 323 1130.44 326.425 1130.44 330.651V421.349C1130.44 425.575 1133.9 429 1138.16 429H1229.72C1233.98 429 1237.44 425.575 1237.44 421.349V330.651C1237.44 326.425 1233.98 323 1229.72 323Z" stroke="#DBDBDB" stroke-miterlimit="10"/>
<path d="M1229.72 433H1138.16C1133.9 433 1130.44 436.49 1130.44 440.795V533.205C1130.44 537.51 1133.9 541 1138.16 541H1229.72C1233.98 541 1237.44 537.51 1237.44 533.205V440.795C1237.44 436.49 1233.98 433 1229.72 433Z" stroke="#DBDBDB" stroke-miterlimit="10"/>
<path d="M1454.79 433H1364.09C1359.87 433 1356.44 436.49 1356.44 440.795V533.205C1356.44 537.51 1359.87 541 1364.09 541H1454.79C1459.02 541 1462.44 537.51 1462.44 533.205V440.795C1462.44 436.49 1459.02 433 1454.79 433Z" stroke="#DBDBDB" stroke-miterlimit="10"/>
<path d="M1568.65 433H1476.24C1471.93 433 1468.44 436.49 1468.44 440.795V533.205C1468.44 537.51 1471.93 541 1476.24 541H1568.65C1572.95 541 1576.44 537.51 1576.44 533.205V440.795C1576.44 436.49 1572.95 433 1568.65 433Z" stroke="#DBDBDB" stroke-miterlimit="10"/>
<path d="M1682.89 433H1587.99C1584.93 433 1582.44 435.533 1582.44 438.657V535.343C1582.44 538.467 1584.93 541 1587.99 541H1682.89C1685.96 541 1688.44 538.467 1688.44 535.343V438.657C1688.44 435.533 1685.96 433 1682.89 433Z" stroke="#DBDBDB" stroke-miterlimit="10"/>
<path d="M1794.89 433H1699.99C1696.93 433 1694.44 435.533 1694.44 438.657V535.343C1694.44 538.467 1696.93 541 1699.99 541H1794.89C1797.96 541 1800.44 538.467 1800.44 535.343V438.657C1800.44 435.533 1797.96 433 1794.89 433Z" stroke="#DBDBDB" stroke-miterlimit="10"/>
<path d="M1907.89 433H1812.99C1809.93 433 1807.44 435.533 1807.44 438.657V535.343C1807.44 538.467 1809.93 541 1812.99 541H1907.89C1910.96 541 1913.44 538.467 1913.44 535.343V438.657C1913.44 435.533 1910.96 433 1907.89 433Z" stroke="#DBDBDB" stroke-miterlimit="10"/>
<rect x="0.441406" width="1920" height="1001" fill="url(#paint0_radial_3591_2508)"/>
</g>
<g opacity="0.4">
<g clip-path="url(#clip1_3591_2508)">
<path d="M1678 487C1678 463.804 1659.2 445 1636 445C1612.8 445 1594 463.804 1594 487C1594 507.963 1609.36 525.339 1629.44 528.49V499.141H1618.77V487H1629.44V477.747C1629.44 467.221 1635.71 461.406 1645.3 461.406C1649.9 461.406 1654.7 462.227 1654.7 462.227V472.562H1649.41C1644.19 472.562 1642.56 475.8 1642.56 479.122V487H1654.21L1652.35 499.141H1642.56V528.49C1662.64 525.339 1678 507.964 1678 487Z" fill="#1877F2"/>
<path d="M1652.35 499.141L1654.21 487H1642.56V479.122C1642.56 475.8 1644.19 472.562 1649.41 472.562H1654.7V462.227C1654.7 462.227 1649.9 461.406 1645.3 461.406C1635.71 461.406 1629.44 467.221 1629.44 477.747V487H1618.77V499.141H1629.44V528.49C1631.61 528.83 1633.8 529.001 1636 529C1638.2 529.001 1640.39 528.83 1642.56 528.49V499.141H1652.35Z" fill="white"/>
</g>
<g clip-path="url(#clip2_3591_2508)">
<path d="M1428.72 115H1387.28C1377.18 115 1369 123.185 1369 133.281V174.719C1369 184.815 1377.18 193 1387.28 193H1428.72C1438.82 193 1447 184.815 1447 174.719V133.281C1447 123.185 1438.82 115 1428.72 115Z" fill="url(#paint1_radial_3591_2508)"/>
<path d="M1428.72 115H1387.28C1377.18 115 1369 123.185 1369 133.281V174.719C1369 184.815 1377.18 193 1387.28 193H1428.72C1438.82 193 1447 184.815 1447 174.719V133.281C1447 123.185 1438.82 115 1428.72 115Z" fill="url(#paint2_radial_3591_2508)"/>
<path d="M1408 123.531C1399.73 123.531 1398.69 123.568 1395.44 123.715C1392.2 123.864 1389.98 124.377 1388.04 125.131C1386.04 125.909 1384.34 126.95 1382.65 128.644C1380.95 130.338 1379.91 132.038 1379.13 134.041C1378.37 135.979 1377.86 138.194 1377.71 141.436C1377.57 144.686 1377.53 145.725 1377.53 154C1377.53 162.275 1377.57 163.311 1377.72 166.56C1377.86 169.804 1378.38 172.018 1379.13 173.956C1379.91 175.96 1380.95 177.66 1382.64 179.353C1384.34 181.048 1386.04 182.092 1388.04 182.87C1389.98 183.623 1392.19 184.137 1395.44 184.285C1398.69 184.433 1399.72 184.469 1408 184.469C1416.27 184.469 1417.31 184.433 1420.56 184.285C1423.8 184.137 1426.02 183.623 1427.96 182.87C1429.96 182.092 1431.66 181.048 1433.35 179.353C1435.05 177.66 1436.09 175.96 1436.87 173.956C1437.62 172.018 1438.13 169.804 1438.28 166.561C1438.43 163.311 1438.47 162.275 1438.47 154C1438.47 145.725 1438.43 144.687 1438.28 141.437C1438.13 138.193 1437.62 135.979 1436.87 134.042C1436.09 132.038 1435.05 130.338 1433.35 128.644C1431.66 126.95 1429.96 125.908 1427.96 125.131C1426.01 124.377 1423.8 123.864 1420.56 123.715C1417.31 123.568 1416.27 123.531 1407.99 123.531H1408ZM1405.27 129.022C1406.08 129.021 1406.99 129.022 1408 129.022C1416.14 129.022 1417.1 129.051 1420.31 129.197C1423.29 129.333 1424.9 129.829 1425.97 130.247C1427.39 130.799 1428.41 131.459 1429.47 132.526C1430.54 133.592 1431.2 134.608 1431.75 136.03C1432.17 137.102 1432.67 138.714 1432.8 141.685C1432.95 144.897 1432.98 145.862 1432.98 153.993C1432.98 162.125 1432.95 163.09 1432.8 166.301C1432.67 169.272 1432.17 170.885 1431.75 171.957C1431.2 173.379 1430.54 174.392 1429.47 175.458C1428.41 176.524 1427.39 177.184 1425.97 177.736C1424.9 178.155 1423.29 178.65 1420.31 178.786C1417.1 178.932 1416.14 178.964 1408 178.964C1399.87 178.964 1398.9 178.932 1395.69 178.786C1392.72 178.649 1391.11 178.153 1390.03 177.736C1388.61 177.183 1387.6 176.523 1386.53 175.457C1385.46 174.391 1384.8 173.378 1384.25 171.955C1383.83 170.882 1383.33 169.27 1383.2 166.299C1383.05 163.087 1383.02 162.122 1383.02 153.986C1383.02 145.849 1383.05 144.89 1383.2 141.678C1383.34 138.707 1383.83 137.094 1384.25 136.02C1384.8 134.598 1385.46 133.583 1386.53 132.516C1387.6 131.45 1388.61 130.79 1390.03 130.237C1391.11 129.818 1392.72 129.322 1395.69 129.186C1398.5 129.059 1399.59 129.021 1405.27 129.014V129.022ZM1424.27 134.081C1422.25 134.081 1420.61 135.717 1420.61 137.736C1420.61 139.755 1422.25 141.392 1424.27 141.392C1426.29 141.392 1427.92 139.755 1427.92 137.736C1427.92 135.718 1426.29 134.08 1424.27 134.08V134.081ZM1408 138.353C1399.36 138.353 1392.36 145.359 1392.36 154C1392.36 162.642 1399.36 169.644 1408 169.644C1416.64 169.644 1423.65 162.642 1423.65 154C1423.65 145.359 1416.64 138.353 1408 138.353H1408ZM1408 143.844C1413.61 143.844 1418.16 148.391 1418.16 154C1418.16 159.609 1413.61 164.157 1408 164.157C1402.39 164.157 1397.85 159.609 1397.85 154C1397.85 148.391 1402.39 143.844 1408 143.844Z" fill="white"/>
</g>
<mask id="mask0_3591_2508" style="mask-type:alpha" maskUnits="userSpaceOnUse" x="1684" y="199" width="119" height="119">
<circle cx="58.7059" cy="58.7059" r="58.7059" transform="matrix(-1 0 0 1 1802.09 199.9)" fill="url(#paint3_linear_3591_2508)"/>
</mask>
<g mask="url(#mask0_3591_2508)">
<g clip-path="url(#clip3_3591_2508)">
<path d="M1730.91 292.515V265.469L1722.52 257.795L1715 253.537V287.742C1715 290.383 1717.14 292.515 1719.77 292.515H1730.91Z" fill="#4285F4"/>
<path d="M1769.09 292.514H1780.23C1782.87 292.514 1785 290.374 1785 287.741V253.537L1776.48 258.414L1769.09 265.469V292.514Z" fill="#34A853"/>
<path d="M1730.91 265.469L1729.77 254.901L1730.91 244.787L1750 259.105L1769.09 244.787L1770.37 254.355L1769.09 265.469L1750 279.787L1730.91 265.469Z" fill="#EA4335"/>
<path d="M1769.09 244.786V265.468L1785 253.536V247.172C1785 241.27 1778.26 237.906 1773.54 241.445L1769.09 244.786Z" fill="#FBBC04"/>
<path d="M1715 253.536L1722.32 259.024L1730.91 265.468V244.786L1726.45 241.445C1721.73 237.906 1715 241.27 1715 247.172V253.536Z" fill="#C5221F"/>
</g>
</g>
<mask id="mask1_3591_2508" style="mask-type:alpha" maskUnits="userSpaceOnUse" x="1347" y="426" width="118" height="118">
<circle cx="58.7059" cy="58.7059" r="58.7059" transform="matrix(-1 0 0 1 1464.86 426.41)" fill="url(#paint4_linear_3591_2508)"/>
</mask>
<g mask="url(#mask1_3591_2508)">
<g clip-path="url(#clip4_3591_2508)">
<path d="M1397.63 443.485L1360.37 458.935C1358.3 459.794 1358.32 462.743 1360.4 463.571L1397.82 478.44C1401.11 479.746 1404.77 479.746 1408.06 478.44L1445.48 463.571C1447.57 462.743 1447.59 459.794 1445.52 458.935L1408.25 443.485C1404.85 442.075 1401.03 442.076 1397.63 443.485Z" fill="#FFBF00"/>
<path d="M1406.26 486.558V523.701C1406.26 525.468 1408.04 526.677 1409.68 526.026L1451.38 509.81C1451.84 509.625 1452.24 509.305 1452.52 508.89C1452.8 508.475 1452.95 507.986 1452.95 507.485V470.342C1452.95 468.575 1451.18 467.366 1449.54 468.016L1407.84 484.233C1407.37 484.417 1406.97 484.738 1406.69 485.153C1406.41 485.567 1406.26 486.057 1406.26 486.558" fill="#26B5F8"/>
<path d="M1396.52 488.474L1384.15 494.461L1382.89 495.069L1356.77 507.61C1355.11 508.411 1353 507.202 1353 505.359V470.497C1353 469.83 1353.34 469.254 1353.8 468.82C1353.99 468.633 1354.2 468.474 1354.43 468.346C1355.06 467.97 1355.95 467.87 1356.7 468.17L1396.32 483.896C1398.33 484.696 1398.49 487.523 1396.52 488.474Z" fill="#ED3049"/>
<path d="M1396.52 488.476L1384.15 494.462L1353.8 468.822C1353.99 468.635 1354.2 468.476 1354.43 468.347C1355.06 467.972 1355.95 467.872 1356.7 468.172L1396.32 483.898C1398.33 484.698 1398.49 487.525 1396.52 488.476Z" fill="black" fill-opacity="0.25"/>
</g>
</g>
<mask id="mask2_3591_2508" style="mask-type:alpha" maskUnits="userSpaceOnUse" x="1693" y="665" width="102" height="103">
<circle cx="1744.23" cy="716.359" r="50.6465" fill="url(#paint5_linear_3591_2508)"/>
</mask>
<g mask="url(#mask2_3591_2508)">
<rect x="1702.5" y="669.801" width="90" height="86.4" rx="43.2" fill="#FFE01B"/>
<path d="M1760.73 711.433C1761.09 711.343 1761.45 711.343 1761.9 711.433C1761.99 711.073 1762.17 710.173 1761.99 709.273C1761.72 708.013 1761.36 707.113 1760.64 707.203C1759.92 707.293 1759.92 708.193 1760.1 709.633C1760.1 710.353 1760.46 711.073 1760.73 711.433ZM1754.16 712.513C1754.7 712.783 1755.06 712.873 1755.15 712.783C1755.42 712.513 1754.79 711.613 1753.62 711.163C1752.36 710.623 1750.92 710.803 1749.84 711.523C1749.48 711.793 1749.12 712.153 1749.12 712.423C1749.21 712.783 1750.38 712.063 1751.91 712.063C1752.9 711.973 1753.53 712.333 1754.16 712.513ZM1752.99 713.143C1751.82 713.233 1751.19 713.863 1751.37 714.403C1751.46 714.403 1751.46 714.493 1752 714.313C1752.72 714.043 1753.53 713.953 1754.43 714.043C1754.79 714.043 1754.97 714.133 1755.06 713.953C1755.15 713.773 1754.25 712.963 1752.99 713.143ZM1759.74 715.303C1760.1 714.403 1758.39 713.503 1757.94 714.403C1757.58 715.303 1759.38 716.113 1759.74 715.303ZM1761.63 712.693C1760.64 712.693 1760.64 714.763 1761.63 714.763C1762.62 714.763 1762.62 712.693 1761.63 712.693ZM1734.54 722.503C1734.45 722.503 1733.82 722.593 1733.55 722.233C1732.92 721.243 1734.9 719.713 1733.91 717.823C1732.74 715.663 1730.4 716.203 1729.59 717.103C1728.6 718.363 1728.6 719.983 1728.96 719.983C1729.5 720.073 1729.5 719.263 1729.95 718.453C1730.31 717.733 1731.48 717.463 1732.11 718.093C1733.64 719.083 1732.2 720.253 1732.38 721.603C1732.47 723.763 1734.63 723.673 1735.08 722.773C1735.17 722.683 1735.08 722.683 1735.08 722.503C1734.9 722.593 1734.99 722.323 1734.54 722.503ZM1771.8 720.433C1771.44 718.903 1771.44 719.263 1770.9 717.913C1771.17 717.553 1772.79 715.033 1770.54 712.423C1769.28 711.073 1766.4 710.263 1765.32 710.173C1765.23 708.823 1765.95 702.793 1762.62 699.913C1765.32 697.213 1766.76 694.243 1766.76 691.633C1766.76 686.683 1760.82 685.333 1753.44 688.303L1752 689.113C1752 689.113 1749.21 686.323 1749.12 686.323C1740.75 678.853 1714.47 708.193 1722.84 715.123L1724.73 716.743C1724.19 718.003 1724.01 719.533 1724.19 720.883C1724.55 725.023 1728.6 728.353 1732.56 728.353C1739.67 745.003 1765.86 745.003 1772.61 728.713C1772.7 728.173 1773.78 725.653 1773.78 723.493C1773.69 721.333 1772.52 720.433 1771.8 720.433ZM1732.47 726.463C1729.59 726.373 1726.53 723.763 1726.26 720.793C1725.54 713.143 1735.53 711.433 1736.79 719.263C1737.24 722.863 1736.16 726.553 1732.47 726.463ZM1730.22 712.243C1728.33 712.603 1726.71 713.593 1725.63 715.123C1725 714.583 1723.83 713.593 1723.74 713.323C1722.12 710.263 1725.54 704.233 1727.79 700.903C1733.64 692.533 1742.73 686.233 1747.05 687.403C1747.77 687.493 1750.11 690.193 1750.11 690.193C1750.11 690.193 1745.79 692.623 1741.83 695.863C1736.52 699.823 1732.47 705.763 1730.22 712.243ZM1759.83 724.753C1759.83 724.753 1755.42 725.473 1751.19 723.853C1751.91 721.333 1754.52 724.573 1763.07 722.053C1764.96 721.513 1767.39 720.433 1769.37 718.903C1769.73 719.893 1770.09 720.973 1770.27 721.963C1770.63 721.873 1772.07 721.873 1771.62 724.213C1771.26 726.643 1770.09 728.623 1768.47 730.513C1767.3 731.773 1766.04 732.673 1764.69 733.393C1763.97 733.753 1763.07 734.113 1762.17 734.383C1755.6 736.543 1748.76 734.293 1746.42 729.073C1746.33 728.713 1746.06 728.353 1746.06 727.813C1745.07 724.393 1745.97 720.433 1748.49 717.823C1748.58 717.733 1748.85 717.463 1748.85 717.193C1748.85 717.103 1748.76 716.833 1748.58 716.653C1747.68 715.393 1744.8 713.233 1745.25 709.003C1745.61 706.123 1748.31 703.963 1750.74 704.053H1751.37C1752.36 704.143 1753.44 704.143 1754.25 704.323C1755.78 704.413 1757.04 704.233 1758.57 702.973C1759.11 702.613 1759.56 702.253 1760.19 701.983C1760.82 701.893 1761.45 701.983 1761.81 702.253C1763.07 702.973 1763.16 705.043 1763.34 706.573C1763.34 707.473 1763.43 709.453 1763.43 709.993C1763.52 711.253 1763.79 711.523 1764.6 711.793C1764.96 711.883 1765.32 712.063 1765.86 712.153C1767.48 712.513 1768.56 713.143 1769.01 713.683C1769.37 714.043 1769.55 714.403 1769.64 714.853C1769.73 716.203 1768.47 718.003 1765.05 719.533C1759.2 722.233 1753.35 721.333 1752.63 721.333C1750.11 720.973 1748.67 724.213 1750.2 726.553C1752.99 730.693 1765.41 729.073 1769.1 723.853C1769.19 723.763 1769.1 723.763 1769.01 723.763C1763.79 727.273 1756.95 728.443 1753.08 726.913C1752.45 726.643 1751.28 726.193 1751.01 724.753C1756.5 726.373 1759.74 724.843 1759.74 724.843C1759.74 724.843 1760.1 724.753 1759.83 724.753ZM1740.93 700.813C1743.09 698.383 1745.52 696.223 1747.86 695.143H1747.95V695.233C1747.86 695.593 1747.41 696.223 1747.32 696.763C1747.32 696.853 1747.32 696.853 1747.41 696.853C1748.76 695.863 1751.37 694.783 1753.53 694.693C1753.62 694.693 1753.62 694.693 1753.62 694.783V694.873C1753.26 695.143 1752.9 695.503 1752.63 695.863V695.953H1752.72C1754.25 695.953 1756.41 696.493 1757.76 697.213C1757.85 697.303 1757.76 697.483 1757.67 697.303C1749.03 695.233 1742.46 699.553 1740.93 700.633C1741.11 700.723 1741.11 700.723 1740.93 700.813Z" fill="black"/>
</g>
<mask id="mask3_3591_2508" style="mask-type:alpha" maskUnits="userSpaceOnUse" x="1465" y="547" width="118" height="118">
<circle cx="1524.18" cy="605.712" r="58.7059" fill="url(#paint6_linear_3591_2508)"/>
</mask>
<g mask="url(#mask3_3591_2508)">
<g clip-path="url(#clip5_3591_2508)">
<path d="M1499.16 616.756C1499.16 621.91 1494.96 626.12 1489.8 626.12C1484.65 626.12 1480.44 621.91 1480.44 616.756C1480.44 611.602 1484.65 607.393 1489.8 607.393H1499.16L1499.16 616.756ZM1503.88 616.756C1503.88 611.602 1508.09 607.393 1513.24 607.393C1518.39 607.393 1522.6 611.601 1522.6 616.756V640.195C1522.6 645.349 1518.4 649.558 1513.24 649.558C1508.09 649.558 1503.88 645.349 1503.88 640.195V616.756Z" fill="#DE1C59"/>
<path d="M1513.24 579.164C1508.09 579.164 1503.88 574.961 1503.88 569.806C1503.88 564.652 1508.09 560.443 1513.24 560.443C1518.39 560.443 1522.6 564.653 1522.6 569.807V579.165L1513.24 579.164ZM1513.24 583.881C1518.39 583.881 1522.6 588.091 1522.6 593.245C1522.6 598.399 1518.4 602.608 1513.24 602.608H1489.8C1484.65 602.608 1480.44 598.399 1480.44 593.245C1480.44 588.091 1484.65 583.881 1489.8 583.881H1513.24Z" fill="#35C5F0"/>
<path d="M1550.84 593.245C1550.84 588.091 1555.04 583.881 1560.2 583.881C1565.35 583.881 1569.56 588.091 1569.56 593.245C1569.56 598.399 1565.35 602.608 1560.2 602.608H1550.84V593.245ZM1546.12 593.245C1546.12 598.399 1541.91 602.608 1536.76 602.608C1531.6 602.608 1527.39 598.399 1527.39 593.245V569.806C1527.39 564.652 1531.6 560.443 1536.76 560.443C1541.91 560.443 1546.12 564.653 1546.12 569.807V593.245Z" fill="#2EB57D"/>
<path d="M1536.76 630.837C1541.91 630.837 1546.12 635.04 1546.12 640.195C1546.12 645.349 1541.91 649.558 1536.76 649.558C1531.6 649.558 1527.39 645.349 1527.39 640.195V630.837H1536.76ZM1536.76 626.12C1531.6 626.12 1527.39 621.91 1527.39 616.756C1527.39 611.602 1531.6 607.393 1536.76 607.393H1560.2C1565.35 607.393 1569.56 611.601 1569.56 616.756C1569.56 621.91 1565.35 626.12 1560.2 626.12H1536.76Z" fill="#EBB02E"/>
</g>
</g>
<mask id="mask4_3591_2508" style="mask-type:alpha" maskUnits="userSpaceOnUse" x="1460" y="195" width="119" height="119">
<circle cx="1519.49" cy="254.606" r="58.7059" fill="url(#paint7_linear_3591_2508)"/>
</mask>
<g mask="url(#mask4_3591_2508)">
<path d="M1554.96 234.25H1522.46C1522.46 242.35 1529.02 248.909 1537.12 248.909H1543.1V254.693C1543.1 262.793 1549.65 269.351 1557.75 269.351V237.046C1557.75 236.305 1557.46 235.594 1556.93 235.07C1556.41 234.545 1555.7 234.251 1554.96 234.25Z" fill="#2684FF"/>
<path d="M1538.85 250.45H1506.36C1506.36 258.549 1512.91 265.108 1521.01 265.108H1526.99V270.892C1526.99 278.992 1533.55 285.551 1541.65 285.551V253.246C1541.65 252.504 1541.35 251.794 1540.83 251.269C1540.31 250.745 1539.59 250.451 1538.85 250.45Z" fill="url(#paint8_linear_3591_2508)"/>
<path d="M1522.75 266.648H1490.25C1490.25 274.751 1496.81 281.307 1504.91 281.307H1510.89V287.094C1510.89 295.194 1517.44 301.75 1525.54 301.75V269.448C1525.54 268.706 1525.25 267.995 1524.72 267.471C1524.2 266.946 1523.49 266.65 1522.75 266.648Z" fill="url(#paint9_linear_3591_2508)"/>
</g>
</g>
<g opacity="0.4">
<g clip-path="url(#clip6_3591_2508)">
<path d="M316.361 438H239.639C237.899 437.981 236.222 438.715 234.977 440.04C233.732 441.365 233.021 443.174 233 445.069V528.947C233.025 530.84 233.738 532.644 234.982 533.966C236.227 535.288 237.901 536.019 239.639 536H316.361C318.102 536.015 319.777 535.279 321.021 533.953C322.265 532.627 322.977 530.818 323 528.923V445.045C322.969 443.155 322.254 441.355 321.011 440.036C319.768 438.717 318.096 437.985 316.361 438Z" fill="#0076B2"/>
<path d="M252.877 478.017H263.439V512.003H252.877V478.017ZM258.161 461.104C259.373 461.104 260.557 461.463 261.564 462.136C262.571 462.809 263.356 463.766 263.819 464.885C264.283 466.005 264.404 467.236 264.167 468.424C263.93 469.612 263.346 470.704 262.489 471.56C261.632 472.416 260.541 472.999 259.352 473.235C258.164 473.47 256.932 473.348 255.814 472.884C254.695 472.419 253.739 471.633 253.066 470.626C252.394 469.618 252.036 468.433 252.037 467.222C252.039 465.599 252.685 464.042 253.833 462.895C254.981 461.748 256.538 461.104 258.161 461.104ZM270.065 478.017H280.19V482.683H280.33C281.741 480.012 285.182 477.195 290.321 477.195C301.017 477.172 303 484.211 303 493.339V512.003H292.438V495.468C292.438 491.531 292.368 486.463 286.95 486.463C281.531 486.463 280.61 490.755 280.61 495.211V512.003H270.065V478.017Z" fill="white"/>
</g>
<mask id="mask5_3591_2508" style="mask-type:alpha" maskUnits="userSpaceOnUse" x="104" y="208" width="118" height="119">
<circle cx="58.7059" cy="58.7059" r="58.7059" transform="matrix(-1 0 0 1 221.916 208.9)" fill="url(#paint10_linear_3591_2508)"/>
</mask>
<g mask="url(#mask5_3591_2508)">
<g clip-path="url(#clip7_3591_2508)">
<path d="M147.909 292.628V265.582L139.521 257.909L132 253.65V287.855C132 290.496 134.14 292.628 136.773 292.628H147.909Z" fill="#4285F4"/>
<path d="M186.091 292.628H197.227C199.868 292.628 202 290.488 202 287.855V253.65L193.481 258.528L186.091 265.582V292.628Z" fill="#34A853"/>
<path d="M147.91 265.582L146.769 255.015L147.91 244.9L167.001 259.219L186.092 244.9L187.368 254.469L186.092 265.582L167.001 279.9L147.91 265.582Z" fill="#EA4335"/>
<path d="M186.091 244.899V265.581L202 253.649V247.286C202 241.384 195.262 238.019 190.546 241.559L186.091 244.899Z" fill="#FBBC04"/>
<path d="M132 253.65L139.317 259.137L147.909 265.581V244.9L143.454 241.559C138.729 238.019 132 241.384 132 247.286V253.65Z" fill="#C5221F"/>
</g>
</g>
<mask id="mask6_3591_2508" style="mask-type:alpha" maskUnits="userSpaceOnUse" x="449" y="427" width="119" height="118">
<circle cx="58.7059" cy="58.7059" r="58.7059" transform="matrix(-1 0 0 1 567.143 427.408)" fill="url(#paint11_linear_3591_2508)"/>
</mask>
<g mask="url(#mask6_3591_2508)">
<g clip-path="url(#clip8_3591_2508)">
<path d="M528.681 464.316H481.312V511.685H528.681V464.316Z" fill="white"/>
<path d="M528.686 532.999L550.002 511.684L539.344 509.865L528.686 511.684L526.741 521.432L528.686 532.999Z" fill="#EA4335"/>
<path d="M459.999 511.684V525.894C459.999 529.82 463.179 532.999 467.104 532.999H481.315L483.503 522.341L481.315 511.684L469.702 509.865L459.999 511.684Z" fill="#188038"/>
<path d="M550.002 464.316V450.105C550.002 446.18 546.823 443 542.897 443H528.686C527.39 448.286 526.741 452.176 526.741 454.67C526.741 457.164 527.39 460.38 528.686 464.316C533.401 465.666 536.954 466.341 539.344 466.341C541.735 466.341 545.288 465.666 550.002 464.316Z" fill="#1967D2"/>
<path d="M550.001 464.316H528.686V511.685H550.001V464.316Z" fill="#FBBC04"/>
<path d="M528.681 511.684H481.312V533H528.681V511.684Z" fill="#34A853"/>
<path d="M528.683 443H467.104C463.179 443 459.999 446.18 459.999 450.105V511.684H481.315V464.316H528.683V443Z" fill="#4285F4"/>
<path d="M491.032 501.063C489.261 499.867 488.035 498.12 487.366 495.811L491.476 494.117C491.848 495.538 492.5 496.64 493.43 497.421C494.353 498.203 495.478 498.588 496.793 498.588C498.137 498.588 499.291 498.179 500.256 497.362C501.222 496.545 501.707 495.503 501.707 494.242C501.707 492.951 501.198 491.897 500.18 491.08C499.161 490.263 497.882 489.854 496.355 489.854H493.98V485.787H496.112C497.426 485.787 498.533 485.431 499.433 484.72C500.333 484.01 500.783 483.039 500.783 481.801C500.783 480.7 500.381 479.824 499.576 479.167C498.771 478.509 497.752 478.178 496.514 478.178C495.306 478.178 494.347 478.498 493.637 479.143C492.926 479.79 492.392 480.607 492.085 481.517L488.018 479.824C488.556 478.296 489.545 476.946 490.996 475.78C492.446 474.613 494.3 474.027 496.55 474.027C498.214 474.027 499.712 474.347 501.038 474.992C502.364 475.638 503.406 476.532 504.158 477.669C504.911 478.811 505.283 480.09 505.283 481.511C505.283 482.962 504.934 484.188 504.236 485.194C503.537 486.201 502.678 486.97 501.66 487.509V487.752C502.975 488.294 504.117 489.185 504.964 490.328C505.822 491.482 506.255 492.862 506.255 494.473C506.255 496.083 505.846 497.522 505.029 498.783C504.212 500.044 503.081 501.039 501.648 501.761C500.209 502.484 498.593 502.851 496.799 502.851C494.72 502.857 492.802 502.259 491.032 501.063ZM516.272 480.67L511.761 483.933L509.505 480.511L517.599 474.672H520.701V502.211H516.272V480.67Z" fill="#4285F4"/>
</g>
</g>
<mask id="mask7_3591_2508" style="mask-type:alpha" maskUnits="userSpaceOnUse" x="0" y="551" width="107" height="107">
<circle cx="53.2941" cy="604.706" r="53.2941" fill="url(#paint12_linear_3591_2508)"/>
</mask>
<g mask="url(#mask7_3591_2508)">
<path d="M83.2453 612.642C84.3176 612.645 85.3721 612.726 86.4087 612.887C86.4087 612.906 86.3896 612.925 86.3896 612.94C85.978 613.975 85.4915 614.979 84.934 615.943L80.2768 623.989C78.1856 627.622 75.1733 630.639 71.5439 632.737C67.9144 634.834 63.7961 635.938 59.6042 635.936H50.3128C46.121 635.934 42.0034 634.83 38.3739 632.733C34.7444 630.635 31.7309 627.62 29.6363 623.989L24.983 615.943C22.8858 612.312 21.7817 608.193 21.7817 604C21.7817 599.807 22.8858 595.688 24.983 592.057L29.6363 584.011C31.7279 580.378 34.7407 577.36 38.3709 575.263C42.0011 573.165 46.1202 572.062 50.3128 572.065H59.6042C63.7953 572.067 67.9121 573.172 71.5409 575.269C75.1697 577.366 78.1826 580.381 80.2768 584.011L84.934 592.057C85.4956 593.02 85.9694 594.04 86.3896 595.06C86.3896 595.075 86.4087 595.095 86.4087 595.114C85.3619 595.275 84.3045 595.357 83.2453 595.358C76.3074 595.358 73.6903 593.039 70.6721 590.369C67.7533 587.786 64.1353 584.573 57.5297 584.573H53.5984C48.819 584.573 44.4789 586.311 41.3728 589.456C38.3317 592.531 36.6622 596.73 36.6622 601.295V606.686C36.6622 611.255 38.3317 615.454 41.3728 618.526C44.4789 621.67 48.819 623.408 53.5984 623.408H57.5488C64.1544 623.408 67.7724 620.195 70.6874 617.613C73.7094 614.927 76.3074 612.623 83.2453 612.642ZM83.2645 600.275C84.7926 600.275 86.2941 600.135 87.7688 599.855C87.7612 599.837 87.7586 599.819 87.7612 599.801C87.4742 598.209 87.0275 596.65 86.4278 595.148C89.1685 594.719 91.7685 593.646 94.0153 592.019C94.0153 592.004 93.9962 591.969 93.9962 591.95C92.7306 587.812 90.81 583.904 88.3075 580.374C85.827 576.885 82.8232 573.798 79.4019 571.224C72.3244 565.899 63.7012 563.03 54.8439 563.056C49.3118 563.056 43.9364 564.126 38.8933 566.269C34.0299 568.344 29.6363 571.293 25.8769 575.052C22.1176 578.812 19.1491 583.186 17.0975 588.069C14.9672 593.116 13.8732 598.541 13.8806 604.019C13.8806 609.551 14.9542 614.927 17.0975 619.966C19.1682 624.833 22.1176 629.223 25.8769 632.982C29.6363 636.742 34.0108 639.71 38.8933 641.766C43.9517 643.89 49.3118 644.979 54.8439 644.979C63.7838 644.979 72.2691 642.151 79.4019 636.814C82.8275 634.244 85.832 631.155 88.3075 627.66C90.7988 624.124 92.7185 620.217 93.9962 616.084C93.9962 616.069 94.0153 616.031 94.0153 616.016C91.7685 614.388 89.1685 613.316 86.4278 612.887C87.0429 611.377 87.4823 609.815 87.7612 608.233C87.7803 608.199 87.7803 608.18 87.7803 608.145C91.1011 608.753 94.2412 610.105 96.9647 612.1C99.5817 614.029 99.0736 616.207 98.6686 617.509C92.9073 636.234 75.4668 649.846 54.8439 649.846C29.5332 649.846 8.99805 629.311 8.99805 604C8.99805 578.689 29.5141 558.154 54.8439 558.154C75.4668 558.154 92.9073 571.767 98.6686 590.491C99.0736 591.794 99.5817 593.987 96.9647 595.92C94.2441 597.919 91.1027 599.27 87.7803 599.87C88.2693 602.606 88.2693 605.41 87.7803 608.145C86.2916 607.863 84.7796 607.723 83.2645 607.725C67.2795 607.725 68.1048 618.51 57.5297 618.51H53.5984C46.3433 618.51 41.5639 613.326 41.5639 606.686V601.295C41.5639 594.655 46.3433 589.475 53.5984 589.475H57.5488C68.1239 589.475 67.2986 600.26 83.2645 600.275Z" fill="#006BFF"/>
</g>
<mask id="mask8_3591_2508" style="mask-type:alpha" maskUnits="userSpaceOnUse" x="340" y="663" width="103" height="102">
<circle cx="391.586" cy="713.997" r="50.9975" fill="url(#paint13_linear_3591_2508)"/>
</mask>
<g mask="url(#mask8_3591_2508)">
<g clip-path="url(#clip9_3591_2508)">
<path d="M415.906 670H368.094C356.444 670 347 679.444 347 691.094V738.906C347 750.556 356.444 760 368.094 760H415.906C427.556 760 437 750.556 437 738.906V691.094C437 679.444 427.556 670 415.906 670Z" fill="#5865F2"/>
<mask id="mask9_3591_2508" style="mask-type:luminance" maskUnits="userSpaceOnUse" x="356" y="687" width="72" height="56">
<path d="M356.844 687.93H427.156V742.397H356.844V687.93Z" fill="white"/>
</mask>
<g mask="url(#mask9_3591_2508)">
<path d="M416.366 692.781C411.807 690.688 406.997 689.196 402.054 688.341C402.009 688.333 401.963 688.339 401.922 688.359C401.88 688.378 401.846 688.41 401.824 688.45C401.206 689.549 400.521 690.984 400.042 692.111C394.638 691.302 389.261 691.302 383.968 692.111C383.488 690.958 382.779 689.549 382.158 688.45C382.135 688.411 382.101 688.38 382.06 688.36C382.018 688.341 381.972 688.334 381.928 688.341C376.985 689.194 372.174 690.686 367.616 692.781C367.577 692.798 367.544 692.826 367.522 692.861C358.406 706.48 355.909 719.763 357.134 732.882C357.142 732.947 357.175 733.006 357.226 733.046C363.24 737.463 369.065 740.145 374.783 741.922C374.827 741.935 374.875 741.934 374.919 741.92C374.963 741.905 375.001 741.878 375.03 741.841C376.382 739.994 377.587 738.046 378.621 735.999C378.636 735.97 378.644 735.94 378.645 735.908C378.647 735.877 378.642 735.846 378.63 735.816C378.619 735.787 378.601 735.761 378.578 735.739C378.556 735.717 378.529 735.7 378.499 735.689C376.587 734.963 374.766 734.079 373.015 733.075C372.983 733.056 372.956 733.029 372.937 732.998C372.917 732.966 372.906 732.93 372.904 732.893C372.902 732.857 372.909 732.82 372.924 732.786C372.94 732.752 372.963 732.723 372.993 732.701C373.362 732.424 373.725 732.14 374.082 731.847C374.113 731.821 374.151 731.805 374.191 731.799C374.231 731.794 374.272 731.8 374.309 731.816C385.816 737.07 398.274 737.07 409.645 731.816C409.682 731.799 409.724 731.792 409.764 731.797C409.805 731.802 409.843 731.818 409.875 731.844C410.232 732.139 410.596 732.424 410.967 732.701C410.997 732.723 411.021 732.752 411.036 732.785C411.052 732.819 411.059 732.856 411.057 732.893C411.055 732.93 411.044 732.966 411.025 732.997C411.006 733.029 410.98 733.056 410.948 733.075C409.195 734.098 407.36 734.971 405.46 735.686C405.431 735.697 405.404 735.715 405.382 735.737C405.36 735.759 405.342 735.786 405.331 735.816C405.32 735.845 405.315 735.877 405.317 735.908C405.319 735.94 405.327 735.97 405.341 735.999C406.393 738.03 407.592 739.982 408.93 741.838C408.957 741.876 408.996 741.904 409.04 741.919C409.084 741.934 409.132 741.935 409.177 741.922C414.922 740.145 420.748 737.463 426.762 733.046C426.788 733.027 426.809 733.003 426.825 732.975C426.841 732.947 426.85 732.917 426.853 732.885C428.319 717.718 424.398 704.543 416.457 692.864C416.438 692.826 416.405 692.796 416.366 692.781ZM380.34 724.894C376.875 724.894 374.021 721.714 374.021 717.807C374.021 713.901 376.82 710.72 380.34 710.72C383.887 710.72 386.714 713.929 386.658 717.807C386.658 721.714 383.859 724.894 380.34 724.894ZM403.703 724.894C400.239 724.894 397.384 721.714 397.384 717.807C397.384 713.901 400.183 710.72 403.703 710.72C407.251 710.72 410.077 713.929 410.022 717.807C410.022 721.714 407.251 724.894 403.703 724.894Z" fill="white"/>
</g>
</g>
</g>
<mask id="mask10_3591_2508" style="mask-type:alpha" maskUnits="userSpaceOnUse" x="332" y="199" width="118" height="117">
<circle cx="390.94" cy="257.5" r="58.3516" fill="url(#paint14_linear_3591_2508)"/>
</mask>
<g mask="url(#mask10_3591_2508)">
</g>
<g clip-path="url(#clip10_3591_2508)">
<path d="M393.293 266.544H383.637V261.135H393.299V266.547L393.293 266.544ZM402.955 231V248H419.955L402.955 231ZM406.817 261.135H397.155V266.547H406.817V261.135ZM406.817 270.409H397.155V275.82H406.817V270.409ZM419.952 249.417V294.365C419.952 296.926 417.878 299 415.317 299H375.134C374.526 299 373.923 298.88 373.36 298.647C372.798 298.414 372.287 298.073 371.857 297.642C370.987 296.773 370.499 295.594 370.499 294.365V235.635C370.499 233.074 372.573 231 375.134 231H401.535V249.417H419.952ZM410.679 257.273H379.77V279.682H410.681V257.271L410.679 257.273ZM393.293 270.409H383.637V275.82H393.299V270.409H393.293Z" fill="#34A853"/>
</g>
</g>
<rect width="309" height="149" fill="url(#paint15_radial_3591_2508)"/>
<g clip-path="url(#clip11_3591_2508)">
<path d="M52.7958 68.444C52.2786 68.5362 51.7409 68.5823 51.1674 68.5823C49.9282 68.5823 48.986 68.2647 48.3408 67.6295C47.6904 66.9995 47.3678 66.0211 47.3678 64.6943V53.476H42.0781V65.5088C42.0781 68.1572 42.7745 70.1498 44.1571 71.4765C45.5449 72.8033 47.46 73.4641 49.9026 73.4641C50.8038 73.4641 51.6027 73.4282 52.294 73.3514C52.9904 73.2797 53.651 73.1516 54.2859 72.9672V68.1315C53.8046 68.2494 53.3079 68.3569 52.7958 68.444ZM47.3678 53.4453V53.476H47.4037L47.3678 53.4453Z" fill="#1C3693"/>
<path d="M54.1118 48.1558V53.4781H47.4037L47.3678 53.4474L43.7475 50.42L42.4468 49.3289L42.0781 49.0215V42.6133H47.4037V48.1558H54.1118Z" fill="#1C3693"/>
<path d="M62.762 40.794C62.1731 40.2664 61.4613 40 60.6164 40C59.7715 40 59.0546 40.2664 58.4657 40.794C57.882 41.3216 57.585 42.0541 57.585 42.9864C57.585 43.8624 57.882 44.5744 58.4657 45.1328C59.0546 45.6911 59.7715 45.9728 60.6164 45.9728C61.4613 45.9728 62.1731 45.6911 62.762 45.1328C63.3509 44.5744 63.6428 43.8624 63.6428 42.9864C63.6428 42.0541 63.3509 41.3216 62.762 40.794ZM57.9946 49.0002V72.9685H63.2382V49.0002H57.9946Z" fill="#1C3693"/>
<path d="M68.7539 49.0008V72.969H73.9975V49.0008H68.7539ZM88.3304 52.8888C87.634 51.475 86.6713 50.389 85.4372 49.636C84.198 48.883 82.7693 48.5039 81.1409 48.5039C79.5125 48.5039 78.048 48.924 76.7576 49.7692C75.6105 50.5119 74.6888 51.5467 73.9975 52.8632C73.9002 53.0424 73.8132 53.2217 73.7261 53.4113C73.0041 54.9941 72.6405 56.8843 72.6405 59.087H73.9975C73.9975 57.1251 74.4891 55.6447 75.4672 54.6304C76.4452 53.6213 77.6435 53.1142 79.0619 53.1142C80.4804 53.1142 81.6735 53.6213 82.6567 54.6304C83.6347 55.6447 84.1263 57.1251 84.1263 59.087V72.969H89.3699V57.9088C89.3699 55.9828 89.0217 54.3077 88.3304 52.8888Z" fill="#1C3693"/>
<path d="M104.03 69.5925L98.0486 49H92.4414L99.764 72.9682H105.008L104.03 69.5925ZM109.893 49L104.03 69.5925L103.067 72.9682C102.673 74.3257 102.079 75.2836 101.28 75.8419C100.481 76.4003 99.3851 76.6769 98.0025 76.6769C97.3675 76.6769 96.7531 76.6257 96.1488 76.5181C95.5446 76.4157 94.9557 76.2722 94.3873 76.0878V80.8825C94.9864 81.0669 95.6111 81.2001 96.2615 81.2923C96.9067 81.3794 97.6082 81.4255 98.361 81.4255C99.9023 81.4255 101.264 81.1796 102.458 80.6827C103.646 80.1807 104.685 79.3304 105.576 78.1266C106.462 76.9177 107.256 75.2016 107.947 72.9682L115.27 49H109.893Z" fill="#1C3693"/>
<path d="M55.9613 102.248C55.5977 103.754 55.0037 104.85 54.1742 105.527C53.3446 106.203 52.2692 106.546 50.943 106.546C49.2839 106.546 47.9474 105.911 46.9386 104.645C45.9298 103.38 45.428 101.418 45.428 98.7648C45.428 96.1113 45.9298 94.1545 46.9386 92.8842C47.9474 91.6189 49.2839 90.9888 50.943 90.9888C52.2692 90.9888 53.3446 91.3269 54.1742 92.0031C55.0037 92.6844 55.5977 93.7601 55.9613 95.2354L61.0206 93.8369C60.3907 91.3935 59.1925 89.5238 57.4309 88.2278C55.6643 86.9318 53.5494 86.2812 51.0761 86.2812C48.8742 86.2812 46.9488 86.7986 45.2897 87.8231C43.6306 88.8476 42.335 90.2922 41.4031 92.1619C40.466 94.0316 40 96.2343 40 98.7648C40 101.295 40.466 103.462 41.4031 105.347C42.335 107.232 43.6306 108.687 45.2897 109.712C46.9488 110.736 48.8742 111.248 51.0761 111.248C53.5494 111.248 55.6745 110.593 57.4514 109.281C59.2283 107.97 60.4368 106.08 61.0666 103.606L55.9613 102.248Z" fill="#1C3693"/>
<path d="M85.0528 92.1619C84.1004 90.2922 82.7843 88.8476 81.0945 87.8231C79.4098 86.7986 77.4639 86.2812 75.262 86.2812C73.0601 86.2812 71.1193 86.7986 69.4295 87.8231C67.7448 88.8476 66.4236 90.2922 65.4763 92.1619C64.529 94.0316 64.0527 96.2343 64.0527 98.7648C64.0527 101.295 64.529 103.462 65.4763 105.347C66.4236 107.232 67.7448 108.687 69.4295 109.712C71.1193 110.736 73.0652 111.248 75.262 111.248C77.4588 111.248 79.4098 110.736 81.0945 109.712C82.7843 108.687 84.1004 107.232 85.0528 105.347C86.0001 103.462 86.4764 101.27 86.4764 98.7648C86.4764 96.2599 86.0001 94.0316 85.0528 92.1619ZM79.4661 104.645C78.4112 105.911 77.0133 106.546 75.262 106.546C73.5107 106.546 72.1128 105.911 71.0579 104.645C70.003 103.38 69.4756 101.418 69.4756 98.7648C69.4756 96.1113 70.003 94.1545 71.0579 92.8842C72.1128 91.6189 73.5158 90.9888 75.262 90.9888C77.0082 90.9888 78.4112 91.6189 79.4661 92.8842C80.521 94.1545 81.0484 96.1113 81.0484 98.7648C81.0484 101.418 80.521 103.38 79.4661 104.645Z" fill="#1C3693"/>
<path d="M90.8135 86.7833V110.751H96.0571V86.7833H90.8135ZM109.535 91.0247C109.187 90.118 108.705 89.324 108.086 88.6376C106.667 87.0701 104.844 86.2812 102.617 86.2812C101.075 86.2812 99.7133 86.6757 98.5253 87.4594C97.5165 88.1202 96.6972 89.0372 96.0571 90.2051C95.9342 90.4202 95.8267 90.6456 95.7191 90.8761C95.0432 92.3668 94.7052 94.1545 94.7052 96.2343H96.0571C96.0571 94.4568 96.4872 93.1198 97.3475 92.2285C98.2078 91.3423 99.2524 90.8966 100.492 90.8966C101.731 90.8966 102.811 91.3423 103.656 92.2285C104.496 93.1198 104.921 94.4568 104.921 96.2343V110.751H110.211V95.0561C110.211 93.5296 109.985 92.1875 109.535 91.0247ZM122.168 88.6376C120.734 87.0701 118.906 86.2812 116.673 86.2812C115.106 86.2812 113.713 86.6757 112.495 87.4594C111.271 88.2432 110.308 89.3804 109.601 90.8761C109.576 90.9274 109.555 90.9735 109.535 91.0247C108.869 92.4846 108.536 94.2211 108.536 96.2343H110.211C110.211 94.4568 110.641 93.1198 111.496 92.2285C112.356 91.3423 113.401 90.8966 114.64 90.8966C115.879 90.8966 116.924 91.3423 117.779 92.2285C118.639 93.1198 119.07 94.4568 119.07 96.2343V110.751H124.313V95.0561C124.313 92.3463 123.596 90.2051 122.168 88.6376Z" fill="#1C3693"/>
<path d="M129.826 86.7833V110.751H135.07V86.7833H129.826ZM148.548 91.0247C148.199 90.118 147.718 89.324 147.098 88.6376C145.68 87.0701 143.857 86.2812 141.624 86.2812C140.088 86.2812 138.726 86.6757 137.533 87.4594C136.529 88.1202 135.71 89.0372 135.07 90.2051C134.947 90.4202 134.839 90.6456 134.732 90.8761C134.056 92.3668 133.713 94.1545 133.713 96.2343H135.07C135.07 94.4568 135.5 93.1198 136.36 92.2285C137.22 91.3423 138.265 90.8966 139.504 90.8966C140.744 90.8966 141.824 91.3423 142.669 92.2285C143.509 93.1198 143.934 94.4568 143.934 96.2343V110.751H149.223V95.0561C149.223 93.5296 148.998 92.1875 148.548 91.0247ZM161.18 88.6376C159.747 87.0701 157.918 86.2812 155.686 86.2812C154.119 86.2812 152.726 86.6757 151.507 87.4594C150.283 88.2432 149.321 89.3804 148.609 90.8761C148.588 90.9222 148.563 90.9735 148.548 91.0196C147.882 92.4846 147.549 94.2211 147.549 96.2343H149.223C149.223 94.4568 149.654 93.1198 150.509 92.2285C151.369 91.3423 152.414 90.8966 153.653 90.8966C154.892 90.8966 155.937 91.3423 156.797 92.2285C157.652 93.1198 158.082 94.4568 158.082 96.2343V110.751H163.326V95.0561C163.326 92.3463 162.609 90.2051 161.18 88.6376Z" fill="#1C3693"/>
<path d="M182.54 100.757C182.54 102.053 182.217 103.16 181.567 104.077C180.921 104.999 180.107 105.701 179.129 106.182C178.146 106.664 177.147 106.904 176.123 106.904C175.038 106.904 174.239 106.643 173.727 106.116C173.21 105.588 172.954 105.009 172.954 104.374C172.954 103.621 173.256 102.955 173.86 102.381C174.464 101.813 175.488 101.388 176.932 101.116L182.54 99.9737L183.804 99.7176V95.9628L182.54 96.1728L175.125 97.4073C172.595 97.8632 170.716 98.7494 169.497 100.076C168.278 101.403 167.669 102.97 167.669 104.779C167.669 106.679 168.294 108.231 169.543 109.44C170.793 110.644 172.503 111.248 174.674 111.248C176.39 111.248 177.956 110.823 179.375 109.983C180.681 109.204 181.741 108.113 182.56 106.705C182.632 106.587 182.698 106.464 182.765 106.341C183.61 104.758 184.03 102.899 184.03 100.757H182.54ZM187.783 105.414V95.2815C187.783 92.4795 186.938 90.2768 185.253 88.6786C183.564 87.0855 181.213 86.2812 178.202 86.2812C175.698 86.2812 173.553 86.8806 171.76 88.069C169.963 89.2625 168.749 91.0196 168.12 93.3401L173.092 94.7385C173.455 93.3862 174.049 92.3719 174.879 91.7111C175.703 91.0503 176.707 90.7173 177.885 90.7173C179.15 90.7173 180.24 91.1067 181.162 91.8904C182.079 92.6741 182.54 93.9855 182.54 95.8245V105.957C182.54 106.203 182.54 106.454 182.56 106.705C182.575 107.248 182.627 107.796 182.698 108.354C182.806 109.169 182.949 109.968 183.128 110.751H188.464C188.008 108.974 187.783 107.191 187.783 105.414Z" fill="#1C3693"/>
<path d="M193.298 86.7833V110.751H198.541V86.7833H193.298ZM212.874 90.6712C212.178 89.2523 211.215 88.1663 209.981 87.4133C208.747 86.6603 207.313 86.2812 205.685 86.2812C204.056 86.2812 202.597 86.7064 201.302 87.5516C200.16 88.2995 199.238 89.324 198.541 90.6456C198.444 90.8198 198.357 91.0042 198.27 91.1886C197.548 92.7715 197.184 94.6668 197.184 96.8644H198.541C198.541 94.9076 199.033 93.422 200.011 92.4129C200.989 91.4038 202.187 90.8966 203.606 90.8966C205.024 90.8966 206.223 91.4038 207.201 92.4129C208.179 93.422 208.67 94.9076 208.67 96.8644V110.751H213.914V95.6913C213.914 93.7601 213.566 92.0902 212.874 90.6712Z" fill="#1C3693"/>
<path d="M234.756 90.6722C234.464 90.0729 234.116 89.5299 233.716 89.0433C232.206 87.2043 230.204 86.2822 227.705 86.2822C225.866 86.2822 224.238 86.7842 222.819 87.778C221.401 88.7718 220.295 90.1958 219.496 92.0502C218.697 93.9045 218.298 96.1431 218.298 98.7658C218.298 101.389 218.697 103.591 219.496 105.461C220.295 107.331 221.401 108.76 222.819 109.754C224.238 110.752 225.866 111.249 227.705 111.249C230.204 111.249 232.206 110.327 233.716 108.488C234.116 108.002 234.464 107.459 234.756 106.859C235.57 105.21 235.975 103.146 235.975 100.666V96.8653C235.975 94.386 235.57 92.3217 234.756 90.6722ZM233.465 104.693C232.426 105.958 231.064 106.593 229.374 106.593C227.684 106.593 226.322 105.958 225.283 104.693C224.243 103.427 223.726 101.45 223.726 98.7658C223.726 96.0816 224.243 94.1094 225.283 92.8442C226.322 91.5738 227.684 90.9437 229.374 90.9437C231.064 90.9437 232.426 91.5738 233.465 92.8442C234.505 94.1094 235.027 96.0816 235.027 98.7658C235.027 101.45 234.505 103.427 233.465 104.693ZM234.756 78.4141V92.6598L235.478 98.7658L234.756 104.964V110.752H239.999V78.4141H234.756Z" fill="#1C3693"/>
</g>
<defs>
<radialGradient id="paint0_radial_3591_2508" cx="0" cy="0" r="1" gradientUnits="userSpaceOnUse" gradientTransform="translate(960.441 500.72) scale(1389.56 2712.86)">
<stop stop-color="white"/>
<stop offset="0.36555" stop-color="white" stop-opacity="0.856277"/>
<stop offset="1" stop-color="white" stop-opacity="0"/>
</radialGradient>
<radialGradient id="paint1_radial_3591_2508" cx="0" cy="0" r="1" gradientUnits="userSpaceOnUse" gradientTransform="translate(1389.72 199.008) rotate(-90) scale(77.3038 71.8986)">
<stop stop-color="#FFDD55"/>
<stop offset="0.1" stop-color="#FFDD55"/>
<stop offset="0.5" stop-color="#FF543E"/>
<stop offset="1" stop-color="#C837AB"/>
</radialGradient>
<radialGradient id="paint2_radial_3591_2508" cx="0" cy="0" r="1" gradientUnits="userSpaceOnUse" gradientTransform="translate(1355.93 120.619) rotate(78.681) scale(34.5552 142.438)">
<stop stop-color="#3771C8"/>
<stop offset="0.128" stop-color="#3771C8"/>
<stop offset="1" stop-color="#6600FF" stop-opacity="0"/>
</radialGradient>
<linearGradient id="paint3_linear_3591_2508" x1="58.7059" y1="0" x2="58.7059" y2="117.412" gradientUnits="userSpaceOnUse">
<stop stop-color="#737373" stop-opacity="0"/>
<stop offset="1" stop-color="#D9D9D9"/>
</linearGradient>
<linearGradient id="paint4_linear_3591_2508" x1="107.432" y1="49.313" x2="0" y2="49.313" gradientUnits="userSpaceOnUse">
<stop stop-color="#737373" stop-opacity="0"/>
<stop offset="1" stop-color="#D9D9D9" stop-opacity="0.3"/>
</linearGradient>
<linearGradient id="paint5_linear_3591_2508" x1="1715.37" y1="670.271" x2="1761.45" y2="767.006" gradientUnits="userSpaceOnUse">
<stop stop-color="#D9D9D9" stop-opacity="0.8"/>
<stop offset="1" stop-color="#737373" stop-opacity="0"/>
</linearGradient>
<linearGradient id="paint6_linear_3591_2508" x1="1555.29" y1="537.026" x2="1478.98" y2="652.677" gradientUnits="userSpaceOnUse">
<stop stop-color="#D9D9D9"/>
<stop offset="1" stop-color="#737373" stop-opacity="0"/>
</linearGradient>
<linearGradient id="paint7_linear_3591_2508" x1="1486.02" y1="201.184" x2="1539.45" y2="313.312" gradientUnits="userSpaceOnUse">
<stop stop-color="#737373" stop-opacity="0"/>
<stop offset="1" stop-color="#D9D9D9"/>
</linearGradient>
<linearGradient id="paint8_linear_3591_2508" x1="1540.97" y1="250.486" x2="1527.15" y2="264.743" gradientUnits="userSpaceOnUse">
<stop offset="0.176" stop-color="#0052CC"/>
<stop offset="1" stop-color="#2684FF"/>
</linearGradient>
<linearGradient id="paint9_linear_3591_2508" x1="1525.8" y1="266.774" x2="1509.82" y2="282.327" gradientUnits="userSpaceOnUse">
<stop offset="0.176" stop-color="#0052CC"/>
<stop offset="1" stop-color="#2684FF"/>
</linearGradient>
<linearGradient id="paint10_linear_3591_2508" x1="58.7059" y1="0" x2="58.7059" y2="117.412" gradientUnits="userSpaceOnUse">
<stop stop-color="#737373" stop-opacity="0"/>
<stop offset="1" stop-color="#D9D9D9"/>
</linearGradient>
<linearGradient id="paint11_linear_3591_2508" x1="107.432" y1="49.313" x2="0" y2="49.313" gradientUnits="userSpaceOnUse">
<stop stop-color="#737373" stop-opacity="0"/>
<stop offset="1" stop-color="#D9D9D9" stop-opacity="0.3"/>
</linearGradient>
<linearGradient id="paint12_linear_3591_2508" x1="22.9165" y1="556.209" x2="71.4141" y2="658" gradientUnits="userSpaceOnUse">
<stop stop-color="#D9D9D9" stop-opacity="0.8"/>
<stop offset="1" stop-color="#737373" stop-opacity="0"/>
</linearGradient>
<linearGradient id="paint13_linear_3591_2508" x1="418.615" y1="654.33" x2="352.318" y2="754.795" gradientUnits="userSpaceOnUse">
<stop stop-color="#D9D9D9"/>
<stop offset="1" stop-color="#737373" stop-opacity="0"/>
</linearGradient>
<linearGradient id="paint14_linear_3591_2508" x1="357.68" y1="204.4" x2="410.78" y2="315.852" gradientUnits="userSpaceOnUse">
<stop stop-color="#737373" stop-opacity="0"/>
<stop offset="1" stop-color="#D9D9D9"/>
</linearGradient>
<radialGradient id="paint15_radial_3591_2508" cx="0" cy="0" r="1" gradientUnits="userSpaceOnUse" gradientTransform="translate(133 90.5) rotate(91.0809) scale(53.0094 136.947)">
<stop stop-color="white"/>
<stop offset="1" stop-color="white" stop-opacity="0"/>
</radialGradient>
<clipPath id="clip0_3591_2508">
<rect width="1920" height="1001" fill="white" transform="translate(1.44141)"/>
</clipPath>
<clipPath id="clip1_3591_2508">
<rect width="84" height="84" fill="white" transform="translate(1594 445)"/>
</clipPath>
<clipPath id="clip2_3591_2508">
<rect width="78" height="78" fill="white" transform="translate(1369 115)"/>
</clipPath>
<clipPath id="clip3_3591_2508">
<rect width="70" height="52.7734" fill="white" transform="translate(1715 240)"/>
</clipPath>
<clipPath id="clip4_3591_2508">
<rect width="100" height="84.1463" fill="white" transform="translate(1353 442.428)"/>
</clipPath>
<clipPath id="clip5_3591_2508">
<rect width="90" height="90" fill="white" transform="translate(1480 560)"/>
</clipPath>
<clipPath id="clip6_3591_2508">
<rect x="233" y="442" width="90" height="90" rx="45" fill="white"/>
</clipPath>
<clipPath id="clip7_3591_2508">
<rect width="70" height="52.7734" fill="white" transform="translate(132 240.113)"/>
</clipPath>
<clipPath id="clip8_3591_2508">
<rect width="90" height="90" fill="white" transform="translate(459.999 443)"/>
</clipPath>
<clipPath id="clip9_3591_2508">
<rect x="347" y="670" width="90" height="90" rx="45" fill="white"/>
</clipPath>
<clipPath id="clip10_3591_2508">
<rect width="68" height="68" fill="white" transform="translate(361.999 231)"/>
</clipPath>
<clipPath id="clip11_3591_2508">
<rect width="200" height="71.249" fill="white" transform="translate(40 40)"/>
</clipPath>
</defs>
</svg>
