<svg xmlns="http://www.w3.org/2000/svg" width="1920" height="1001" fill="none"><g clip-path="url(#a)" opacity=".7"><path stroke="#DBDBDB" stroke-miterlimit="10" d="M211.719-12h-91.555c-4.265 0-7.723 3.425-7.723 7.65v90.7c0 4.225 3.458 7.65 7.723 7.65h91.555c4.265 0 7.722-3.425 7.722-7.65v-90.7c0-4.225-3.457-7.65-7.722-7.65ZM323.791-12h-90.699a7.65 7.65 0 0 0-7.651 7.65v90.7a7.65 7.65 0 0 0 7.651 7.65h90.699a7.65 7.65 0 0 0 7.65-7.65v-90.7a7.65 7.65 0 0 0-7.65-7.65ZM436.719-12h-91.555c-4.265 0-7.723 3.425-7.723 7.65v90.7c0 4.225 3.458 7.65 7.723 7.65h91.555c4.265 0 7.722-3.425 7.722-7.65v-90.7c0-4.225-3.457-7.65-7.722-7.65ZM323.791 99h-90.699c-4.225 0-7.651 3.458-7.651 7.723v91.554c0 4.265 3.426 7.723 7.651 7.723h90.699c4.225 0 7.65-3.458 7.65-7.723v-91.554c0-4.265-3.425-7.723-7.65-7.723ZM436.719 99h-91.555a7.723 7.723 0 0 0-7.723 7.723v91.554a7.723 7.723 0 0 0 7.723 7.723h91.555a7.723 7.723 0 0 0 7.722-7.723v-91.554A7.723 7.723 0 0 0 436.719 99ZM549.687-12h-92.491a6.754 6.754 0 0 0-6.755 6.754v92.492A6.754 6.754 0 0 0 457.196 94h92.491a6.754 6.754 0 0 0 6.754-6.754V-5.246A6.754 6.754 0 0 0 549.687-12ZM661.687-12h-92.491a6.754 6.754 0 0 0-6.755 6.754v92.492A6.754 6.754 0 0 0 569.196 94h92.491a6.754 6.754 0 0 0 6.754-6.754V-5.246A6.754 6.754 0 0 0 661.687-12ZM775.687-12h-92.491a6.754 6.754 0 0 0-6.755 6.754v92.492A6.754 6.754 0 0 0 683.196 94h92.491a6.754 6.754 0 0 0 6.754-6.754V-5.246A6.754 6.754 0 0 0 775.687-12ZM886.654-12h-90.425a7.79 7.79 0 0 0-7.788 7.788v90.424A7.79 7.79 0 0 0 796.229 94h90.425a7.787 7.787 0 0 0 7.787-7.788V-4.212A7.787 7.787 0 0 0 886.654-12ZM999.58-12h-91.278c-4.341 0-7.861 3.487-7.861 7.788v90.424c0 4.301 3.52 7.788 7.861 7.788h91.278c4.34 0 7.86-3.487 7.86-7.788V-4.212c0-4.301-3.52-7.788-7.86-7.788ZM1112.58-12h-91.28c-4.34 0-7.86 3.487-7.86 7.788v90.424c0 4.301 3.52 7.788 7.86 7.788h91.28c4.34 0 7.86-3.487 7.86-7.788V-4.212c0-4.301-3.52-7.788-7.86-7.788ZM211.719 99h-91.555a7.723 7.723 0 0 0-7.723 7.723v91.554a7.723 7.723 0 0 0 7.723 7.723h91.555a7.723 7.723 0 0 0 7.722-7.723v-91.554A7.723 7.723 0 0 0 211.719 99ZM547.425 99h-87.967c-4.98 0-9.017 4.075-9.017 9.101v88.798c0 5.026 4.037 9.101 9.017 9.101h87.967c4.98 0 9.016-4.075 9.016-9.101v-88.798c0-5.026-4.036-9.101-9.016-9.101ZM659.425 99h-87.967c-4.98 0-9.017 4.075-9.017 9.101v88.798c0 5.026 4.037 9.101 9.017 9.101h87.967c4.98 0 9.016-4.075 9.016-9.101v-88.798c0-5.026-4.036-9.101-9.016-9.101ZM773.425 99h-87.967c-4.98 0-9.017 4.075-9.017 9.101v88.798c0 5.026 4.037 9.101 9.017 9.101h87.967c4.98 0 9.016-4.075 9.016-9.101v-88.798c0-5.026-4.036-9.101-9.016-9.101ZM547.425 211h-87.967a9.017 9.017 0 0 0-9.017 9.016v87.968a9.017 9.017 0 0 0 9.017 9.016h87.967a9.016 9.016 0 0 0 9.016-9.016v-87.968a9.016 9.016 0 0 0-9.016-9.016ZM659.425 211h-87.967a9.017 9.017 0 0 0-9.017 9.016v87.968a9.017 9.017 0 0 0 9.017 9.016h87.967a9.016 9.016 0 0 0 9.016-9.016v-87.968a9.016 9.016 0 0 0-9.016-9.016ZM773.425 211h-87.967a9.017 9.017 0 0 0-9.017 9.016v87.968a9.017 9.017 0 0 0 9.017 9.016h87.967a9.016 9.016 0 0 0 9.016-9.016v-87.968a9.016 9.016 0 0 0-9.016-9.016ZM886.654 99h-90.425c-4.301 0-7.788 3.52-7.788 7.861v91.278c0 4.341 3.487 7.861 7.788 7.861h90.425c4.301 0 7.787-3.52 7.787-7.861v-91.278c0-4.341-3.486-7.861-7.787-7.861ZM999.58 99h-91.278a7.86 7.86 0 0 0-7.861 7.861v91.278a7.86 7.86 0 0 0 7.861 7.861h91.278c4.34 0 7.86-3.52 7.86-7.861v-91.278A7.86 7.86 0 0 0 999.58 99ZM1112.58 99h-91.28c-4.34 0-7.86 3.52-7.86 7.861v91.278a7.86 7.86 0 0 0 7.86 7.861h91.28c4.34 0 7.86-3.52 7.86-7.861v-91.278a7.86 7.86 0 0 0-7.86-7.861ZM211.719 211h-91.555c-4.265 0-7.723 3.425-7.723 7.651v90.698c0 4.226 3.458 7.651 7.723 7.651h91.555c4.265 0 7.722-3.425 7.722-7.651v-90.698c0-4.226-3.457-7.651-7.722-7.651ZM323.791 211h-90.699a7.65 7.65 0 0 0-7.651 7.651v90.698a7.65 7.65 0 0 0 7.651 7.651h90.699a7.65 7.65 0 0 0 7.65-7.651v-90.698a7.65 7.65 0 0 0-7.65-7.651ZM436.719 211h-91.555c-4.265 0-7.723 3.425-7.723 7.651v90.698c0 4.226 3.458 7.651 7.723 7.651h91.555c4.265 0 7.722-3.425 7.722-7.651v-90.698c0-4.226-3.457-7.651-7.722-7.651ZM886.654 211h-90.425a7.79 7.79 0 0 0-7.788 7.788v90.424a7.79 7.79 0 0 0 7.788 7.788h90.425a7.787 7.787 0 0 0 7.787-7.788v-90.424a7.787 7.787 0 0 0-7.787-7.788ZM773.425 323h-87.967a9.017 9.017 0 0 0-9.017 9.016v87.968a9.017 9.017 0 0 0 9.017 9.016h87.967a9.016 9.016 0 0 0 9.016-9.016v-87.968a9.016 9.016 0 0 0-9.016-9.016ZM886.654 323h-90.425a7.79 7.79 0 0 0-7.788 7.788v90.424a7.79 7.79 0 0 0 7.788 7.788h90.425a7.787 7.787 0 0 0 7.787-7.788v-90.424a7.787 7.787 0 0 0-7.787-7.788ZM999.58 211h-91.278c-4.341 0-7.861 3.487-7.861 7.788v90.424c0 4.301 3.52 7.788 7.861 7.788h91.278c4.34 0 7.86-3.487 7.86-7.788v-90.424c0-4.301-3.52-7.788-7.86-7.788ZM1112.58 211h-91.28c-4.34 0-7.86 3.487-7.86 7.788v90.424c0 4.301 3.52 7.788 7.86 7.788h91.28c4.34 0 7.86-3.487 7.86-7.788v-90.424c0-4.301-3.52-7.788-7.86-7.788ZM211.719 323h-91.555c-4.265 0-7.723 3.425-7.723 7.651v90.698c0 4.226 3.458 7.651 7.723 7.651h91.555c4.265 0 7.722-3.425 7.722-7.651v-90.698c0-4.226-3.457-7.651-7.722-7.651ZM323.791 323h-90.699a7.65 7.65 0 0 0-7.651 7.651v90.698a7.65 7.65 0 0 0 7.651 7.651h90.699a7.65 7.65 0 0 0 7.65-7.651v-90.698a7.65 7.65 0 0 0-7.65-7.651ZM436.719 323h-91.555c-4.265 0-7.723 3.425-7.723 7.651v90.698c0 4.226 3.458 7.651 7.723 7.651h91.555c4.265 0 7.722-3.425 7.722-7.651v-90.698c0-4.226-3.457-7.651-7.722-7.651ZM547.425 323h-87.967a9.017 9.017 0 0 0-9.017 9.016v87.968a9.017 9.017 0 0 0 9.017 9.016h87.967a9.016 9.016 0 0 0 9.016-9.016v-87.968a9.016 9.016 0 0 0-9.016-9.016ZM659.425 323h-87.967a9.017 9.017 0 0 0-9.017 9.016v87.968a9.017 9.017 0 0 0 9.017 9.016h87.967a9.016 9.016 0 0 0 9.016-9.016v-87.968a9.016 9.016 0 0 0-9.016-9.016ZM999.58 323h-91.278c-4.341 0-7.861 3.487-7.861 7.788v90.424c0 4.301 3.52 7.788 7.861 7.788h91.278c4.34 0 7.86-3.487 7.86-7.788v-90.424c0-4.301-3.52-7.788-7.86-7.788ZM1112.58 323h-91.28c-4.34 0-7.86 3.487-7.86 7.788v90.424c0 4.301 3.52 7.788 7.86 7.788h91.28c4.34 0 7.86-3.487 7.86-7.788v-90.424c0-4.301-3.52-7.788-7.86-7.788ZM211.719 433h-91.555c-4.265 0-7.723 3.49-7.723 7.795v92.41c0 4.305 3.458 7.795 7.723 7.795h91.555c4.265 0 7.722-3.49 7.722-7.795v-92.41c0-4.305-3.457-7.795-7.722-7.795ZM97.79-12H7.093a7.65 7.65 0 0 0-7.65 7.65v90.7A7.65 7.65 0 0 0 7.091 94H97.79a7.65 7.65 0 0 0 7.65-7.65v-90.7a7.65 7.65 0 0 0-7.65-7.65ZM97.79 99H7.093c-4.225 0-7.65 3.458-7.65 7.723v91.554c0 4.265 3.425 7.723 7.65 7.723H97.79c4.225 0 7.65-3.458 7.65-7.723v-91.554c0-4.265-3.425-7.723-7.65-7.723ZM97.79 211H7.093a7.65 7.65 0 0 0-7.65 7.651v90.698A7.65 7.65 0 0 0 7.091 317H97.79a7.65 7.65 0 0 0 7.65-7.651v-90.698a7.65 7.65 0 0 0-7.65-7.651ZM97.79 323H7.093a7.65 7.65 0 0 0-7.65 7.651v90.698A7.65 7.65 0 0 0 7.091 429H97.79a7.65 7.65 0 0 0 7.65-7.651v-90.698a7.65 7.65 0 0 0-7.65-7.651ZM97.79 433H7.093c-4.225 0-7.65 3.49-7.65 7.795v92.41c0 4.305 3.425 7.795 7.65 7.795H97.79c4.225 0 7.65-3.49 7.65-7.795v-92.41c0-4.305-3.425-7.795-7.65-7.795ZM323.791 433h-90.699c-4.225 0-7.651 3.49-7.651 7.795v92.41c0 4.305 3.426 7.795 7.651 7.795h90.699c4.225 0 7.65-3.49 7.65-7.795v-92.41c0-4.305-3.425-7.795-7.65-7.795ZM436.719 433h-91.555c-4.265 0-7.723 3.49-7.723 7.795v92.41c0 4.305 3.458 7.795 7.723 7.795h91.555c4.265 0 7.722-3.49 7.722-7.795v-92.41c0-4.305-3.457-7.795-7.722-7.795ZM550.889 433h-94.896c-3.066 0-5.552 2.533-5.552 5.657v96.686c0 3.124 2.486 5.657 5.552 5.657h94.896c3.067 0 5.552-2.533 5.552-5.657v-96.686c0-3.124-2.485-5.657-5.552-5.657ZM662.889 433h-94.896c-3.066 0-5.552 2.533-5.552 5.657v96.686c0 3.124 2.486 5.657 5.552 5.657h94.896c3.067 0 5.552-2.533 5.552-5.657v-96.686c0-3.124-2.485-5.657-5.552-5.657ZM776.889 433h-94.896c-3.066 0-5.552 2.533-5.552 5.657v96.686c0 3.124 2.486 5.657 5.552 5.657h94.896c3.067 0 5.552-2.533 5.552-5.657v-96.686c0-3.124-2.485-5.657-5.552-5.657ZM886.654 433h-90.425c-4.301 0-7.788 3.552-7.788 7.935v92.13c0 4.383 3.487 7.935 7.788 7.935h90.425c4.301 0 7.787-3.552 7.787-7.935v-92.13c0-4.383-3.486-7.935-7.787-7.935ZM999.58 433h-91.278c-4.341 0-7.861 3.552-7.861 7.935v92.13c0 4.383 3.52 7.935 7.861 7.935h91.278c4.34 0 7.86-3.552 7.86-7.935v-92.13c0-4.383-3.52-7.935-7.86-7.935ZM1112.58 433h-91.28c-4.34 0-7.86 3.552-7.86 7.935v92.13c0 4.383 3.52 7.935 7.86 7.935h91.28c4.34 0 7.86-3.552 7.86-7.935v-92.13c0-4.383-3.52-7.935-7.86-7.935ZM211.719 550h-91.555c-4.265 0-7.723 3.425-7.723 7.651v90.698c0 4.226 3.458 7.651 7.723 7.651h91.555c4.265 0 7.722-3.425 7.722-7.651v-90.698c0-4.226-3.457-7.651-7.722-7.651ZM323.791 550h-90.699a7.65 7.65 0 0 0-7.651 7.651v90.698a7.65 7.65 0 0 0 7.651 7.651h90.699a7.65 7.65 0 0 0 7.65-7.651v-90.698a7.65 7.65 0 0 0-7.65-7.651ZM436.719 550h-91.555c-4.265 0-7.723 3.425-7.723 7.651v90.698c0 4.226 3.458 7.651 7.723 7.651h91.555c4.265 0 7.722-3.425 7.722-7.651v-90.698c0-4.226-3.457-7.651-7.722-7.651ZM323.791 660h-90.699c-4.225 0-7.651 3.49-7.651 7.795v92.41c0 4.305 3.426 7.795 7.651 7.795h90.699c4.225 0 7.65-3.49 7.65-7.795v-92.41c0-4.305-3.425-7.795-7.65-7.795ZM436.719 660h-91.555c-4.265 0-7.723 3.49-7.723 7.795v92.41c0 4.305 3.458 7.795 7.723 7.795h91.555c4.265 0 7.722-3.49 7.722-7.795v-92.41c0-4.305-3.457-7.795-7.722-7.795ZM549.687 550h-92.491a6.754 6.754 0 0 0-6.755 6.754v92.492a6.754 6.754 0 0 0 6.755 6.754h92.491a6.754 6.754 0 0 0 6.754-6.754v-92.492a6.754 6.754 0 0 0-6.754-6.754ZM661.687 550h-92.491a6.754 6.754 0 0 0-6.755 6.754v92.492a6.754 6.754 0 0 0 6.755 6.754h92.491a6.754 6.754 0 0 0 6.754-6.754v-92.492a6.754 6.754 0 0 0-6.754-6.754ZM775.687 550h-92.491a6.754 6.754 0 0 0-6.755 6.754v92.492a6.754 6.754 0 0 0 6.755 6.754h92.491a6.754 6.754 0 0 0 6.754-6.754v-92.492a6.754 6.754 0 0 0-6.754-6.754ZM886.654 550h-90.425a7.79 7.79 0 0 0-7.788 7.788v90.424a7.79 7.79 0 0 0 7.788 7.788h90.425a7.787 7.787 0 0 0 7.787-7.788v-90.424a7.787 7.787 0 0 0-7.787-7.788ZM999.58 550h-91.278c-4.341 0-7.861 3.487-7.861 7.788v90.424c0 4.301 3.52 7.788 7.861 7.788h91.278c4.34 0 7.86-3.487 7.86-7.788v-90.424c0-4.301-3.52-7.788-7.86-7.788ZM1112.58 550h-91.28c-4.34 0-7.86 3.487-7.86 7.788v90.424c0 4.301 3.52 7.788 7.86 7.788h91.28c4.34 0 7.86-3.487 7.86-7.788v-90.424c0-4.301-3.52-7.788-7.86-7.788ZM211.719 660h-91.555c-4.265 0-7.723 3.49-7.723 7.795v92.41c0 4.305 3.458 7.795 7.723 7.795h91.555c4.265 0 7.722-3.49 7.722-7.795v-92.41c0-4.305-3.457-7.795-7.722-7.795ZM547.425 660h-87.967c-4.98 0-9.017 4.113-9.017 9.186v89.628c0 5.073 4.037 9.186 9.017 9.186h87.967c4.98 0 9.016-4.113 9.016-9.186v-89.628c0-5.073-4.036-9.186-9.016-9.186ZM659.425 660h-87.967c-4.98 0-9.017 4.113-9.017 9.186v89.628c0 5.073 4.037 9.186 9.017 9.186h87.967c4.98 0 9.016-4.113 9.016-9.186v-89.628c0-5.073-4.036-9.186-9.016-9.186ZM773.425 660h-87.967c-4.98 0-9.017 4.113-9.017 9.186v89.628c0 5.073 4.037 9.186 9.017 9.186h87.967c4.98 0 9.016-4.113 9.016-9.186v-89.628c0-5.073-4.036-9.186-9.016-9.186ZM547.425 772h-87.967c-4.98 0-9.017 4.075-9.017 9.101v88.798c0 5.026 4.037 9.101 9.017 9.101h87.967c4.98 0 9.016-4.075 9.016-9.101v-88.798c0-5.026-4.036-9.101-9.016-9.101ZM659.425 772h-87.967c-4.98 0-9.017 4.075-9.017 9.101v88.798c0 5.026 4.037 9.101 9.017 9.101h87.967c4.98 0 9.016-4.075 9.016-9.101v-88.798c0-5.026-4.036-9.101-9.016-9.101ZM773.425 772h-87.967c-4.98 0-9.017 4.075-9.017 9.101v88.798c0 5.026 4.037 9.101 9.017 9.101h87.967c4.98 0 9.016-4.075 9.016-9.101v-88.798c0-5.026-4.036-9.101-9.016-9.101ZM886.654 660h-90.425c-4.301 0-7.788 3.552-7.788 7.935v92.13c0 4.383 3.487 7.935 7.788 7.935h90.425c4.301 0 7.787-3.552 7.787-7.935v-92.13c0-4.383-3.486-7.935-7.787-7.935ZM999.58 660h-91.278c-4.341 0-7.861 3.552-7.861 7.935v92.13c0 4.383 3.52 7.935 7.861 7.935h91.278c4.34 0 7.86-3.552 7.86-7.935v-92.13c0-4.383-3.52-7.935-7.86-7.935ZM1112.58 660h-91.28c-4.34 0-7.86 3.552-7.86 7.935v92.13c0 4.383 3.52 7.935 7.86 7.935h91.28c4.34 0 7.86-3.552 7.86-7.935v-92.13c0-4.383-3.52-7.935-7.86-7.935ZM211.719 772h-91.555a7.723 7.723 0 0 0-7.723 7.723v91.554a7.723 7.723 0 0 0 7.723 7.723h91.555a7.723 7.723 0 0 0 7.722-7.723v-91.554a7.723 7.723 0 0 0-7.722-7.723ZM323.791 772h-90.699c-4.225 0-7.651 3.458-7.651 7.723v91.554c0 4.265 3.426 7.723 7.651 7.723h90.699c4.225 0 7.65-3.458 7.65-7.723v-91.554c0-4.265-3.425-7.723-7.65-7.723ZM436.719 772h-91.555a7.723 7.723 0 0 0-7.723 7.723v91.554a7.723 7.723 0 0 0 7.723 7.723h91.555a7.723 7.723 0 0 0 7.722-7.723v-91.554a7.723 7.723 0 0 0-7.722-7.723ZM886.654 772h-90.425c-4.301 0-7.788 3.52-7.788 7.861v91.278c0 4.341 3.487 7.861 7.788 7.861h90.425c4.301 0 7.787-3.52 7.787-7.861v-91.278c0-4.341-3.486-7.861-7.787-7.861ZM773.425 884h-87.967c-4.98 0-9.017 4.075-9.017 9.101v88.798c0 5.026 4.037 9.101 9.017 9.101h87.967c4.98 0 9.016-4.075 9.016-9.101v-88.798c0-5.026-4.036-9.101-9.016-9.101ZM886.654 884h-90.425c-4.301 0-7.788 3.52-7.788 7.861v91.278c0 4.341 3.487 7.861 7.788 7.861h90.425c4.301 0 7.787-3.52 7.787-7.861v-91.278c0-4.341-3.486-7.861-7.787-7.861ZM999.58 772h-91.278a7.86 7.86 0 0 0-7.861 7.861v91.278a7.86 7.86 0 0 0 7.861 7.861h91.278c4.34 0 7.86-3.52 7.86-7.861v-91.278a7.86 7.86 0 0 0-7.86-7.861ZM1112.58 772h-91.28c-4.34 0-7.86 3.52-7.86 7.861v91.278a7.86 7.86 0 0 0 7.86 7.861h91.28c4.34 0 7.86-3.52 7.86-7.861v-91.278a7.86 7.86 0 0 0-7.86-7.861ZM211.719 884h-91.555a7.723 7.723 0 0 0-7.723 7.723v91.554a7.723 7.723 0 0 0 7.723 7.723h91.555a7.723 7.723 0 0 0 7.722-7.723v-91.554a7.723 7.723 0 0 0-7.722-7.723ZM323.791 884h-90.699c-4.225 0-7.651 3.458-7.651 7.723v91.554c0 4.265 3.426 7.723 7.651 7.723h90.699c4.225 0 7.65-3.458 7.65-7.723v-91.554c0-4.265-3.425-7.723-7.65-7.723ZM436.719 884h-91.555a7.723 7.723 0 0 0-7.723 7.723v91.554a7.723 7.723 0 0 0 7.723 7.723h91.555a7.723 7.723 0 0 0 7.722-7.723v-91.554a7.723 7.723 0 0 0-7.722-7.723ZM547.425 884h-87.967c-4.98 0-9.017 4.075-9.017 9.101v88.798c0 5.026 4.037 9.101 9.017 9.101h87.967c4.98 0 9.016-4.075 9.016-9.101v-88.798c0-5.026-4.036-9.101-9.016-9.101ZM659.425 884h-87.967c-4.98 0-9.017 4.075-9.017 9.101v88.798c0 5.026 4.037 9.101 9.017 9.101h87.967c4.98 0 9.016-4.075 9.016-9.101v-88.798c0-5.026-4.036-9.101-9.016-9.101ZM999.58 884h-91.278a7.86 7.86 0 0 0-7.861 7.861v91.278a7.86 7.86 0 0 0 7.861 7.861h91.278c4.34 0 7.86-3.52 7.86-7.861v-91.278a7.86 7.86 0 0 0-7.86-7.861ZM1112.58 884h-91.28c-4.34 0-7.86 3.52-7.86 7.861v91.278a7.86 7.86 0 0 0 7.86 7.861h91.28c4.34 0 7.86-3.52 7.86-7.861v-91.278a7.86 7.86 0 0 0-7.86-7.861ZM97.79 550H7.093a7.65 7.65 0 0 0-7.65 7.651v90.698A7.65 7.65 0 0 0 7.091 656H97.79a7.65 7.65 0 0 0 7.65-7.651v-90.698a7.65 7.65 0 0 0-7.65-7.651ZM97.79 660H7.093c-4.225 0-7.65 3.49-7.65 7.795v92.41c0 4.305 3.425 7.795 7.65 7.795H97.79c4.225 0 7.65-3.49 7.65-7.795v-92.41c0-4.305-3.425-7.795-7.65-7.795ZM97.79 772H7.093c-4.225 0-7.65 3.458-7.65 7.723v91.554c0 4.265 3.425 7.723 7.65 7.723H97.79c4.225 0 7.65-3.458 7.65-7.723v-91.554c0-4.265-3.425-7.723-7.65-7.723ZM97.79 884H7.093c-4.225 0-7.65 3.458-7.65 7.723v91.554c0 4.265 3.425 7.723 7.65 7.723H97.79c4.225 0 7.65-3.458 7.65-7.723v-91.554c0-4.265-3.425-7.723-7.65-7.723ZM1341.79 551h-90.7a7.653 7.653 0 0 0-7.65 7.651v90.698a7.653 7.653 0 0 0 7.65 7.651h90.7c4.23 0 7.65-3.425 7.65-7.651v-90.698a7.647 7.647 0 0 0-7.65-7.651ZM1453.79 551h-90.7a7.653 7.653 0 0 0-7.65 7.651v90.698a7.653 7.653 0 0 0 7.65 7.651h90.7c4.23 0 7.65-3.425 7.65-7.651v-90.698a7.647 7.647 0 0 0-7.65-7.651ZM1567.65 551h-92.41c-4.31 0-7.8 3.425-7.8 7.651v90.698c0 4.226 3.49 7.651 7.8 7.651h92.41c4.3 0 7.79-3.425 7.79-7.651v-90.698c0-4.226-3.49-7.651-7.79-7.651ZM1453.79 662h-90.7c-4.22 0-7.65 3.49-7.65 7.795v92.41c0 4.305 3.43 7.795 7.65 7.795h90.7c4.23 0 7.65-3.49 7.65-7.795v-92.41c0-4.305-3.42-7.795-7.65-7.795ZM1567.65 662h-92.41c-4.31 0-7.8 3.49-7.8 7.795v92.41a7.796 7.796 0 0 0 7.8 7.795h92.41c4.3 0 7.79-3.49 7.79-7.795v-92.41c0-4.305-3.49-7.795-7.79-7.795ZM1680.69 551h-92.49a6.76 6.76 0 0 0-6.76 6.754v92.492a6.76 6.76 0 0 0 6.76 6.754h92.49a6.75 6.75 0 0 0 6.75-6.754v-92.492a6.75 6.75 0 0 0-6.75-6.754ZM1792.69 551h-92.49a6.76 6.76 0 0 0-6.76 6.754v92.492a6.76 6.76 0 0 0 6.76 6.754h92.49a6.75 6.75 0 0 0 6.75-6.754v-92.492a6.75 6.75 0 0 0-6.75-6.754ZM1905.69 551h-92.49a6.76 6.76 0 0 0-6.76 6.754v92.492a6.76 6.76 0 0 0 6.76 6.754h92.49a6.75 6.75 0 0 0 6.75-6.754v-92.492a6.75 6.75 0 0 0-6.75-6.754ZM1341.79 662h-90.7c-4.22 0-7.65 3.49-7.65 7.795v92.41c0 4.305 3.43 7.795 7.65 7.795h90.7c4.23 0 7.65-3.49 7.65-7.795v-92.41c0-4.305-3.42-7.795-7.65-7.795ZM1678.43 662h-87.97c-4.98 0-9.02 4.113-9.02 9.186v89.628c0 5.073 4.04 9.186 9.02 9.186h87.97c4.97 0 9.01-4.113 9.01-9.186v-89.628c0-5.073-4.04-9.186-9.01-9.186ZM1790.43 662h-87.97c-4.98 0-9.02 4.113-9.02 9.186v89.628c0 5.073 4.04 9.186 9.02 9.186h87.97c4.97 0 9.01-4.113 9.01-9.186v-89.628c0-5.073-4.04-9.186-9.01-9.186ZM1903.43 662h-87.97c-4.98 0-9.02 4.113-9.02 9.186v89.628c0 5.073 4.04 9.186 9.02 9.186h87.97c4.97 0 9.01-4.113 9.01-9.186v-89.628c0-5.073-4.04-9.186-9.01-9.186ZM1678.43 774h-87.97c-4.98 0-9.02 4.037-9.02 9.016v87.968c0 4.979 4.04 9.016 9.02 9.016h87.97c4.97 0 9.01-4.037 9.01-9.016v-87.968c0-4.979-4.04-9.016-9.01-9.016ZM1790.43 774h-87.97c-4.98 0-9.02 4.037-9.02 9.016v87.968c0 4.979 4.04 9.016 9.02 9.016h87.97c4.97 0 9.01-4.037 9.01-9.016v-87.968c0-4.979-4.04-9.016-9.01-9.016ZM1903.43 774h-87.97c-4.98 0-9.02 4.037-9.02 9.016v87.968c0 4.979 4.04 9.016 9.02 9.016h87.97c4.97 0 9.01-4.037 9.01-9.016v-87.968c0-4.979-4.04-9.016-9.01-9.016ZM1341.79 774h-90.7a7.653 7.653 0 0 0-7.65 7.651v90.698a7.653 7.653 0 0 0 7.65 7.651h90.7c4.23 0 7.65-3.425 7.65-7.651v-90.698a7.647 7.647 0 0 0-7.65-7.651ZM1453.79 774h-90.7a7.653 7.653 0 0 0-7.65 7.651v90.698a7.653 7.653 0 0 0 7.65 7.651h90.7c4.23 0 7.65-3.425 7.65-7.651v-90.698a7.647 7.647 0 0 0-7.65-7.651ZM1567.65 774h-92.41c-4.31 0-7.8 3.425-7.8 7.651v90.698c0 4.226 3.49 7.651 7.8 7.651h92.41c4.3 0 7.79-3.425 7.79-7.651v-90.698c0-4.226-3.49-7.651-7.79-7.651ZM1903.43 886h-87.97c-4.98 0-9.02 4.037-9.02 9.016v87.968c0 4.979 4.04 9.016 9.02 9.016h87.97c4.97 0 9.01-4.037 9.01-9.016v-87.968c0-4.979-4.04-9.016-9.01-9.016ZM1341.79 886h-90.7a7.653 7.653 0 0 0-7.65 7.651v90.698a7.653 7.653 0 0 0 7.65 7.651h90.7c4.23 0 7.65-3.425 7.65-7.651v-90.698a7.647 7.647 0 0 0-7.65-7.651ZM1453.79 886h-90.7a7.653 7.653 0 0 0-7.65 7.651v90.698a7.653 7.653 0 0 0 7.65 7.651h90.7c4.23 0 7.65-3.425 7.65-7.651v-90.698a7.647 7.647 0 0 0-7.65-7.651ZM1567.65 886h-92.41c-4.31 0-7.8 3.425-7.8 7.651v90.698c0 4.226 3.49 7.651 7.8 7.651h92.41c4.3 0 7.79-3.425 7.79-7.651v-90.698c0-4.226-3.49-7.651-7.79-7.651ZM1678.43 886h-87.97c-4.98 0-9.02 4.037-9.02 9.016v87.968c0 4.979 4.04 9.016 9.02 9.016h87.97c4.97 0 9.01-4.037 9.01-9.016v-87.968c0-4.979-4.04-9.016-9.01-9.016ZM1790.43 886h-87.97c-4.98 0-9.02 4.037-9.02 9.016v87.968c0 4.979 4.04 9.016 9.02 9.016h87.97c4.97 0 9.01-4.037 9.01-9.016v-87.968c0-4.979-4.04-9.016-9.01-9.016ZM1228.72 551h-91.56c-4.26 0-7.72 3.425-7.72 7.651v90.698c0 4.226 3.46 7.651 7.72 7.651h91.56c4.26 0 7.72-3.425 7.72-7.651v-90.698c0-4.226-3.46-7.651-7.72-7.651ZM1228.72 662h-91.56c-4.26 0-7.72 3.49-7.72 7.795v92.41c0 4.305 3.46 7.795 7.72 7.795h91.56c4.26 0 7.72-3.49 7.72-7.795v-92.41c0-4.305-3.46-7.795-7.72-7.795ZM1228.72 774h-91.56c-4.26 0-7.72 3.425-7.72 7.651v90.698c0 4.226 3.46 7.651 7.72 7.651h91.56c4.26 0 7.72-3.425 7.72-7.651v-90.698c0-4.226-3.46-7.651-7.72-7.651ZM1228.72 886h-91.56c-4.26 0-7.72 3.425-7.72 7.651v90.698c0 4.226 3.46 7.651 7.72 7.651h91.56c4.26 0 7.72-3.425 7.72-7.651v-90.698c0-4.226-3.46-7.651-7.72-7.651ZM1341.79-12h-90.7a7.653 7.653 0 0 0-7.65 7.65v90.7c0 4.225 3.43 7.65 7.65 7.65h90.7c4.23 0 7.65-3.425 7.65-7.65v-90.7c0-4.225-3.42-7.65-7.65-7.65ZM1453.79-12h-90.7a7.653 7.653 0 0 0-7.65 7.65v90.7c0 4.225 3.43 7.65 7.65 7.65h90.7c4.23 0 7.65-3.425 7.65-7.65v-90.7c0-4.225-3.42-7.65-7.65-7.65ZM1567.65-12h-92.41c-4.31 0-7.8 3.425-7.8 7.65v90.7c0 4.225 3.49 7.65 7.8 7.65h92.41c4.3 0 7.79-3.425 7.79-7.65v-90.7c0-4.225-3.49-7.65-7.79-7.65ZM1453.79 99h-90.7c-4.22 0-7.65 3.458-7.65 7.723v91.554c0 4.265 3.43 7.723 7.65 7.723h90.7c4.23 0 7.65-3.458 7.65-7.723v-91.554c0-4.265-3.42-7.723-7.65-7.723ZM1567.65 99h-92.41c-4.31 0-7.8 3.458-7.8 7.723v91.554c0 4.265 3.49 7.723 7.8 7.723h92.41c4.3 0 7.79-3.458 7.79-7.723v-91.554c0-4.265-3.49-7.723-7.79-7.723ZM1680.69-12h-92.49a6.76 6.76 0 0 0-6.76 6.754v92.492A6.76 6.76 0 0 0 1588.2 94h92.49a6.75 6.75 0 0 0 6.75-6.754V-5.246a6.75 6.75 0 0 0-6.75-6.754ZM1792.69-12h-92.49a6.76 6.76 0 0 0-6.76 6.754v92.492A6.76 6.76 0 0 0 1700.2 94h92.49a6.75 6.75 0 0 0 6.75-6.754V-5.246a6.75 6.75 0 0 0-6.75-6.754ZM1905.69-12h-92.49a6.76 6.76 0 0 0-6.76 6.754v92.492A6.76 6.76 0 0 0 1813.2 94h92.49a6.75 6.75 0 0 0 6.75-6.754V-5.246a6.75 6.75 0 0 0-6.75-6.754ZM1341.79 99h-90.7c-4.22 0-7.65 3.458-7.65 7.723v91.554c0 4.265 3.43 7.723 7.65 7.723h90.7c4.23 0 7.65-3.458 7.65-7.723v-91.554c0-4.265-3.42-7.723-7.65-7.723ZM1678.43 99h-87.97c-4.98 0-9.02 4.075-9.02 9.101v88.798c0 5.026 4.04 9.101 9.02 9.101h87.97c4.97 0 9.01-4.075 9.01-9.101v-88.798c0-5.026-4.04-9.101-9.01-9.101ZM1790.43 99h-87.97c-4.98 0-9.02 4.075-9.02 9.101v88.798c0 5.026 4.04 9.101 9.02 9.101h87.97c4.97 0 9.01-4.075 9.01-9.101v-88.798c0-5.026-4.04-9.101-9.01-9.101ZM1903.43 99h-87.97c-4.98 0-9.02 4.075-9.02 9.101v88.798c0 5.026 4.04 9.101 9.02 9.101h87.97c4.97 0 9.01-4.075 9.01-9.101v-88.798c0-5.026-4.04-9.101-9.01-9.101ZM1678.43 211h-87.97c-4.98 0-9.02 4.037-9.02 9.016v87.968c0 4.979 4.04 9.016 9.02 9.016h87.97c4.97 0 9.01-4.037 9.01-9.016v-87.968c0-4.979-4.04-9.016-9.01-9.016ZM1790.43 211h-87.97c-4.98 0-9.02 4.037-9.02 9.016v87.968c0 4.979 4.04 9.016 9.02 9.016h87.97c4.97 0 9.01-4.037 9.01-9.016v-87.968c0-4.979-4.04-9.016-9.01-9.016ZM1903.43 211h-87.97c-4.98 0-9.02 4.037-9.02 9.016v87.968c0 4.979 4.04 9.016 9.02 9.016h87.97c4.97 0 9.01-4.037 9.01-9.016v-87.968c0-4.979-4.04-9.016-9.01-9.016ZM1341.79 211h-90.7a7.653 7.653 0 0 0-7.65 7.651v90.698a7.653 7.653 0 0 0 7.65 7.651h90.7c4.23 0 7.65-3.425 7.65-7.651v-90.698a7.647 7.647 0 0 0-7.65-7.651ZM1453.79 211h-90.7a7.653 7.653 0 0 0-7.65 7.651v90.698a7.653 7.653 0 0 0 7.65 7.651h90.7c4.23 0 7.65-3.425 7.65-7.651v-90.698a7.647 7.647 0 0 0-7.65-7.651ZM1567.65 211h-92.41c-4.31 0-7.8 3.425-7.8 7.651v90.698c0 4.226 3.49 7.651 7.8 7.651h92.41c4.3 0 7.79-3.425 7.79-7.651v-90.698c0-4.226-3.49-7.651-7.79-7.651ZM1903.43 323h-87.97c-4.98 0-9.02 4.037-9.02 9.016v87.968c0 4.979 4.04 9.016 9.02 9.016h87.97c4.97 0 9.01-4.037 9.01-9.016v-87.968c0-4.979-4.04-9.016-9.01-9.016ZM1341.79 323h-90.7a7.653 7.653 0 0 0-7.65 7.651v90.698a7.653 7.653 0 0 0 7.65 7.651h90.7c4.23 0 7.65-3.425 7.65-7.651v-90.698a7.647 7.647 0 0 0-7.65-7.651ZM1453.79 323h-90.7a7.653 7.653 0 0 0-7.65 7.651v90.698a7.653 7.653 0 0 0 7.65 7.651h90.7c4.23 0 7.65-3.425 7.65-7.651v-90.698a7.647 7.647 0 0 0-7.65-7.651ZM1567.65 323h-92.41c-4.31 0-7.8 3.425-7.8 7.651v90.698c0 4.226 3.49 7.651 7.8 7.651h92.41c4.3 0 7.79-3.425 7.79-7.651v-90.698c0-4.226-3.49-7.651-7.79-7.651ZM1678.43 323h-87.97c-4.98 0-9.02 4.037-9.02 9.016v87.968c0 4.979 4.04 9.016 9.02 9.016h87.97c4.97 0 9.01-4.037 9.01-9.016v-87.968c0-4.979-4.04-9.016-9.01-9.016ZM1790.43 323h-87.97c-4.98 0-9.02 4.037-9.02 9.016v87.968c0 4.979 4.04 9.016 9.02 9.016h87.97c4.97 0 9.01-4.037 9.01-9.016v-87.968c0-4.979-4.04-9.016-9.01-9.016ZM1341.79 433h-90.7c-4.22 0-7.65 3.49-7.65 7.795v92.41c0 4.305 3.43 7.795 7.65 7.795h90.7c4.23 0 7.65-3.49 7.65-7.795v-92.41c0-4.305-3.42-7.795-7.65-7.795ZM1228.72-12h-91.56c-4.26 0-7.72 3.425-7.72 7.65v90.7c0 4.225 3.46 7.65 7.72 7.65h91.56c4.26 0 7.72-3.425 7.72-7.65v-90.7c0-4.225-3.46-7.65-7.72-7.65ZM1228.72 99h-91.56a7.724 7.724 0 0 0-7.72 7.723v91.554a7.724 7.724 0 0 0 7.72 7.723h91.56c4.26 0 7.72-3.458 7.72-7.723v-91.554a7.724 7.724 0 0 0-7.72-7.723ZM1228.72 211h-91.56c-4.26 0-7.72 3.425-7.72 7.651v90.698c0 4.226 3.46 7.651 7.72 7.651h91.56c4.26 0 7.72-3.425 7.72-7.651v-90.698c0-4.226-3.46-7.651-7.72-7.651ZM1228.72 323h-91.56c-4.26 0-7.72 3.425-7.72 7.651v90.698c0 4.226 3.46 7.651 7.72 7.651h91.56c4.26 0 7.72-3.425 7.72-7.651v-90.698c0-4.226-3.46-7.651-7.72-7.651ZM1228.72 433h-91.56c-4.26 0-7.72 3.49-7.72 7.795v92.41c0 4.305 3.46 7.795 7.72 7.795h91.56c4.26 0 7.72-3.49 7.72-7.795v-92.41c0-4.305-3.46-7.795-7.72-7.795ZM1453.79 433h-90.7c-4.22 0-7.65 3.49-7.65 7.795v92.41c0 4.305 3.43 7.795 7.65 7.795h90.7c4.23 0 7.65-3.49 7.65-7.795v-92.41c0-4.305-3.42-7.795-7.65-7.795ZM1567.65 433h-92.41c-4.31 0-7.8 3.49-7.8 7.795v92.41a7.796 7.796 0 0 0 7.8 7.795h92.41c4.3 0 7.79-3.49 7.79-7.795v-92.41c0-4.305-3.49-7.795-7.79-7.795ZM1681.89 433h-94.9c-3.06 0-5.55 2.533-5.55 5.657v96.686c0 3.124 2.49 5.657 5.55 5.657h94.9c3.07 0 5.55-2.533 5.55-5.657v-96.686c0-3.124-2.48-5.657-5.55-5.657ZM1793.89 433h-94.9c-3.06 0-5.55 2.533-5.55 5.657v96.686c0 3.124 2.49 5.657 5.55 5.657h94.9c3.07 0 5.55-2.533 5.55-5.657v-96.686c0-3.124-2.48-5.657-5.55-5.657ZM1906.89 433h-94.9c-3.06 0-5.55 2.533-5.55 5.657v96.686c0 3.124 2.49 5.657 5.55 5.657h94.9c3.07 0 5.55-2.533 5.55-5.657v-96.686c0-3.124-2.48-5.657-5.55-5.657Z"/><path fill="url(#b)" d="M-.559 0h1920v1001h-1920z"/></g><g opacity=".4"><g style="mix-blend-mode:luminosity"><circle cx="1630.85" cy="484.674" r="52.266" fill="#F6A4B2"/><circle cx="1630.85" cy="484.674" r="52.266" stroke="url(#c)" stroke-linecap="round" stroke-width="4"/></g><mask id="e" fill="#fff"><path d="M1597.44 466.291h2.99l4.56 7.934h.19l4.56-7.934h2.99l-6.33 10.602v6.852h-2.63v-6.852zm32.05 8.727q0 2.796-1.02 4.807c-.69 1.335-1.62 2.363-2.81 3.085-1.18.716-2.52 1.074-4.03 1.074q-2.265 0-4.05-1.074-1.77-1.083-2.79-3.094c-.69-1.341-1.03-2.94-1.03-4.798 0-1.864.34-3.463 1.03-4.798q1.02-2.012 2.79-3.086 1.785-1.082 4.05-1.082c1.51 0 2.85.361 4.03 1.082 1.19.716 2.12 1.745 2.81 3.086q1.02 2.002 1.02 4.798m-2.61 0q0-2.13-.69-3.588c-.46-.977-1.08-1.716-1.88-2.216-.79-.506-1.68-.759-2.68-.759-1.01 0-1.9.253-2.69.759-.79.5-1.42 1.239-1.88 2.216-.45.971-.68 2.168-.68 3.588s.23 2.619.68 3.597c.46.971 1.09 1.71 1.88 2.215.79.5 1.68.75 2.69.75 1 0 1.89-.25 2.68-.75.8-.505 1.42-1.244 1.88-2.215q.69-1.467.69-3.597m17.12-8.727h2.64v11.48c0 1.221-.29 2.304-.86 3.247-.58.937-1.38 1.676-2.42 2.216q-1.56.801-3.66.801c-1.39 0-2.61-.267-3.65-.801-1.04-.54-1.84-1.279-2.42-2.216-.57-.943-.86-2.026-.86-3.247v-11.48h2.63v11.267c0 .79.18 1.491.52 2.105.36.613.85 1.096 1.5 1.449q.96.52 2.28.52c.89 0 1.65-.174 2.29-.52a3.7 3.7 0 0 0 1.49-1.449c.34-.614.52-1.315.52-2.105zm6.47 17.454v-17.454h6.22q2.025 0 3.36.699c.9.465 1.57 1.11 2.02 1.934q.66 1.227.66 2.838c0 1.068-.22 2.009-.67 2.821q-.675 1.21-2.01 1.884c-.9.449-2.02.673-3.37.673h-4.71v-2.267h4.47c.85 0 1.55-.122 2.08-.366.54-.245.94-.6 1.19-1.066s.37-1.025.37-1.679c0-.659-.13-1.23-.38-1.713s-.65-.852-1.19-1.108q-.795-.392-2.1-.392h-3.31v15.196zm8.61-7.875 4.32 7.875h-3l-4.23-7.875zm-49 36.875h-2.79l6.28-17.454h3.04l6.28 17.454h-2.79l-4.94-14.284h-.14zm.47-6.835h9.07v2.216h-9.07zm14.86 6.835v-17.454h6.22c1.36 0 2.49.247 3.38.741s1.56 1.171 2 2.029c.44.852.67 1.812.67 2.88 0 1.074-.23 2.04-.68 2.898q-.66 1.278-2.01 2.028c-.89.495-2.01.742-3.37.742h-4.27v-2.233h4.04c.85 0 1.55-.148 2.08-.443.54-.301.93-.71 1.18-1.228.25-.517.38-1.105.38-1.764s-.13-1.244-.38-1.755a2.68 2.68 0 0 0-1.18-1.202c-.54-.29-1.24-.435-2.12-.435h-3.3v15.196zm15.35 0v-17.454h6.22c1.36 0 2.49.247 3.38.741s1.56 1.171 2 2.029c.45.852.67 1.812.67 2.88 0 1.074-.23 2.04-.68 2.898q-.66 1.278-2.01 2.028-1.335.742-3.36.742h-4.28v-2.233h4.04c.86 0 1.55-.148 2.09-.443q.795-.451 1.17-1.228c.25-.517.38-1.105.38-1.764s-.13-1.244-.38-1.755a2.68 2.68 0 0 0-1.18-1.202c-.54-.29-1.24-.435-2.12-.435h-3.3v15.196z"/></mask><path fill="#fff" d="M1597.44 466.291h2.99l4.56 7.934h.19l4.56-7.934h2.99l-6.33 10.602v6.852h-2.63v-6.852zm32.05 8.727q0 2.796-1.02 4.807c-.69 1.335-1.62 2.363-2.81 3.085-1.18.716-2.52 1.074-4.03 1.074q-2.265 0-4.05-1.074-1.77-1.083-2.79-3.094c-.69-1.341-1.03-2.94-1.03-4.798 0-1.864.34-3.463 1.03-4.798q1.02-2.012 2.79-3.086 1.785-1.082 4.05-1.082c1.51 0 2.85.361 4.03 1.082 1.19.716 2.12 1.745 2.81 3.086q1.02 2.002 1.02 4.798m-2.61 0q0-2.13-.69-3.588c-.46-.977-1.08-1.716-1.88-2.216-.79-.506-1.68-.759-2.68-.759-1.01 0-1.9.253-2.69.759-.79.5-1.42 1.239-1.88 2.216-.45.971-.68 2.168-.68 3.588s.23 2.619.68 3.597c.46.971 1.09 1.71 1.88 2.215.79.5 1.68.75 2.69.75 1 0 1.89-.25 2.68-.75.8-.505 1.42-1.244 1.88-2.215q.69-1.467.69-3.597m17.12-8.727h2.64v11.48c0 1.221-.29 2.304-.86 3.247-.58.937-1.38 1.676-2.42 2.216q-1.56.801-3.66.801c-1.39 0-2.61-.267-3.65-.801-1.04-.54-1.84-1.279-2.42-2.216-.57-.943-.86-2.026-.86-3.247v-11.48h2.63v11.267c0 .79.18 1.491.52 2.105.36.613.85 1.096 1.5 1.449q.96.52 2.28.52c.89 0 1.65-.174 2.29-.52a3.7 3.7 0 0 0 1.49-1.449c.34-.614.52-1.315.52-2.105zm6.47 17.454v-17.454h6.22q2.025 0 3.36.699c.9.465 1.57 1.11 2.02 1.934q.66 1.227.66 2.838c0 1.068-.22 2.009-.67 2.821q-.675 1.21-2.01 1.884c-.9.449-2.02.673-3.37.673h-4.71v-2.267h4.47c.85 0 1.55-.122 2.08-.366.54-.245.94-.6 1.19-1.066s.37-1.025.37-1.679c0-.659-.13-1.23-.38-1.713s-.65-.852-1.19-1.108q-.795-.392-2.1-.392h-3.31v15.196zm8.61-7.875 4.32 7.875h-3l-4.23-7.875zm-49 36.875h-2.79l6.28-17.454h3.04l6.28 17.454h-2.79l-4.94-14.284h-.14zm.47-6.835h9.07v2.216h-9.07zm14.86 6.835v-17.454h6.22c1.36 0 2.49.247 3.38.741s1.56 1.171 2 2.029c.44.852.67 1.812.67 2.88 0 1.074-.23 2.04-.68 2.898q-.66 1.278-2.01 2.028c-.89.495-2.01.742-3.37.742h-4.27v-2.233h4.04c.85 0 1.55-.148 2.08-.443.54-.301.93-.71 1.18-1.228.25-.517.38-1.105.38-1.764s-.13-1.244-.38-1.755a2.68 2.68 0 0 0-1.18-1.202c-.54-.29-1.24-.435-2.12-.435h-3.3v15.196zm15.35 0v-17.454h6.22c1.36 0 2.49.247 3.38.741s1.56 1.171 2 2.029c.45.852.67 1.812.67 2.88 0 1.074-.23 2.04-.68 2.898q-.66 1.278-2.01 2.028-1.335.742-3.36.742h-4.28v-2.233h4.04c.86 0 1.55-.148 2.09-.443q.795-.451 1.17-1.228c.25-.517.38-1.105.38-1.764s-.13-1.244-.38-1.755a2.68 2.68 0 0 0-1.18-1.202c-.54-.29-1.24-.435-2.12-.435h-3.3v15.196z"/><path fill="url(#d)" d="M1597.44 466.291v-4h-7.05l3.62 6.051zm2.99 0 3.47-1.993-1.15-2.007h-2.32zm4.56 7.934-3.47 1.993 1.16 2.007h2.31zm.19 0v4h2.31l1.16-2.007zm4.56-7.934v-4h-2.32l-1.15 2.007zm2.99 0 3.43 2.051 3.62-6.051h-7.05zm-6.33 10.602-3.44-2.051-.56.947v1.104zm0 6.852v4h4v-4zm-2.63 0h-4v4h4zm0-6.852h4v-1.104l-.56-.947zm-6.33-6.602h2.99v-8h-2.99zm-.48-2.007 4.56 7.934 6.94-3.986-4.56-7.934zm8.03 9.941h.19v-8h-.19zm3.66-2.007 4.56-7.934-6.94-3.986-4.56 7.934zm1.09-5.927h2.99v-8h-2.99zm-.44-6.051-6.34 10.602 6.87 4.102 6.33-10.602zm-6.9 12.653v6.852h8v-6.852zm4 2.852h-2.63v8h2.63zm1.37 4v-6.852h-8v6.852zm-.56-8.903-6.34-10.602-6.86 4.102 6.33 10.602zm21.26 4.983 3.56 1.819v-.006zm-2.81 3.085 2.07 3.421.01-.003zm-8.08 0-2.08 3.414.01.006.01.006zm-2.79-3.094 3.56-1.813zm0-9.596 3.56 1.819v-.006zm2.79-3.086 2.07 3.422.01-.003zm8.08 0-2.08 3.414.01.006.01.006zm2.81 3.086-3.57 1.813v.006zm-2.28 1.21-3.63 1.687.01.013v.012zm-1.88-2.216-2.15 3.369.01.009.02.009zm-5.37 0 2.14 3.38v-.006l.01-.005zm-1.88 2.216-3.62-1.704v.009zm0 7.185-3.63 1.686.01.013.01.013zm1.88 2.215-2.16 3.369.01.006.01.005zm5.37 0 2.14 3.38.01-.004zm1.88-2.215-3.62-1.705v.01zm-.7-3.597c0 1.381-.25 2.333-.59 2.994l7.13 3.626c1.03-2.021 1.46-4.274 1.46-6.62zm-.59 2.988c-.37.729-.81 1.18-1.32 1.486l4.16 6.836c1.87-1.137 3.3-2.743 4.29-4.684zm-1.31 1.483c-.5.303-1.12.495-1.96.495v8c2.17 0 4.24-.525 6.1-1.653zm-1.96.495c-.85 0-1.47-.193-1.98-.5l-4.13 6.852c1.86 1.125 3.94 1.648 6.11 1.648zm-1.96-.488c-.5-.302-.94-.753-1.32-1.493l-7.13 3.626c.99 1.943 2.41 3.554 4.28 4.695zm-1.32-1.493c-.34-.662-.59-1.612-.59-2.985h-8c0 2.343.43 4.592 1.46 6.611zm-.59-2.985c0-1.382.26-2.328.59-2.979l-7.13-3.638c-1.03 2.018-1.46 4.272-1.46 6.617zm.59-2.985c.38-.738.82-1.182 1.3-1.477l-4.14-6.843c-1.88 1.137-3.3 2.749-4.29 4.694zm1.31-1.48c.51-.308 1.12-.501 1.97-.501v-8c-2.18 0-4.26.529-6.13 1.664zm1.97-.501c.84 0 1.45.191 1.95.496l4.17-6.827c-1.87-1.139-3.95-1.669-6.12-1.669zm1.97.508c.49.297.93.74 1.3 1.473l7.13-3.626c-.99-1.95-2.42-3.563-4.3-4.698zm1.3 1.479c.34.651.59 1.597.59 2.979h8c0-2.345-.43-4.599-1.46-6.617zm5.98 2.979c0-1.831-.29-3.651-1.08-5.3l-7.23 3.424c.14.294.31.866.31 1.876zm-1.06-5.275c-.73-1.571-1.84-2.947-3.38-3.916l-4.25 6.774c.05.031.19.132.37.516zm-3.35-3.898c-1.48-.945-3.13-1.39-4.84-1.39v8c.29 0 .42.062.53.128zm-4.84-1.39c-1.71 0-3.37.442-4.85 1.39l4.31 6.738c.1-.064.24-.128.54-.128zm-4.83 1.379c-1.53.967-2.62 2.336-3.36 3.892l7.24 3.408c.19-.399.34-.507.4-.54zm-3.36 3.901c-.77 1.645-1.06 3.458-1.06 5.283h8c0-1.016.17-1.595.3-1.893zm-1.06 5.283c0 1.826.29 3.638 1.05 5.283l7.26-3.373c-.15-.309-.31-.895-.31-1.91zm1.07 5.309c.73 1.548 1.82 2.905 3.33 3.872l4.31-6.737c-.07-.045-.23-.165-.41-.56zm3.35 3.883c1.48.936 3.13 1.37 4.83 1.37v-8c-.31 0-.45-.065-.55-.129zm4.83 1.37c1.7 0 3.35-.436 4.82-1.37l-4.28-6.759c-.1.066-.24.129-.54.129zm4.83-1.374c1.52-.968 2.62-2.333 3.35-3.896l-7.24-3.39c-.18.379-.33.492-.4.535zm3.35-3.887c.78-1.651 1.07-3.469 1.07-5.301h-8c0 1.009-.17 1.588-.31 1.892zm14.19-14.028v-4h-4v4zm2.64 0h4v-4h-4zm-.86 14.727 3.41 2.088v-.009zm-2.42 2.216 1.82 3.558.01-.004.01-.004zm-7.31 0-1.84 3.55.01.004v.004zm-2.42-2.216-3.42 2.079.01.009zm-.86-14.727v-4h-4v4zm2.63 0h4v-4h-4zm.52 13.372-3.48 1.967.01.012.01.012zm1.5 1.449-1.93 3.507.01.006.02.007zm4.57 0 1.9 3.52.01-.006zm1.49-1.449-3.49-1.967v.012l-.01.012zm.52-9.372h2.64v-8H1644zm-1.36-4v11.48h8v-11.48zm0 11.48c0 .568-.13.917-.28 1.168l6.83 4.158c1-1.635 1.45-3.452 1.45-5.326zm-.27 1.159c-.17.275-.42.526-.86.754l3.69 7.1c1.64-.852 3.01-2.078 3.99-3.678zm-.84.746c-.38.192-.94.359-1.83.359v8c1.91 0 3.78-.367 5.48-1.243zm-1.83.359c-.88 0-1.44-.166-1.82-.359l-3.66 7.116c1.71.875 3.57 1.243 5.48 1.243zm-1.8-.351c-.44-.228-.69-.479-.86-.754l-6.82 4.176c.98 1.6 2.35 2.826 3.99 3.678zm-.85-.745c-.15-.251-.28-.6-.28-1.168h-8c0 1.874.45 3.691 1.44 5.326zm-.28-1.168v-11.48h-8v11.48zm-4-7.48h2.63v-8h-2.63zm-1.37-4v11.267h8v-11.267zm0 11.267c0 1.394.32 2.788 1.04 4.072l6.97-3.934c.01.017.01.029.01.021s-.02-.058-.02-.159zm1.06 4.096a7.77 7.77 0 0 0 3.03 2.965l3.85-7.014c-.01-.007-.02-.01-.01-.008 0 .003.01.009.02.019l.03.033c.01.011.01.019.01.022zm3.06 2.978c1.33.72 2.77 1 4.18 1v-8c-.35 0-.43-.068-.38-.04zm4.18 1c1.41 0 2.85-.278 4.19-1l-3.8-7.04c.06-.03-.03.04-.39.04zm4.2-1.006a7.65 7.65 0 0 0 3.07-3.021l-6.99-3.885a.4.4 0 0 1 .07-.096c.04-.032.05-.038.03-.026zm3.06-2.996c.72-1.284 1.04-2.678 1.04-4.072h-8c0 .101-.02.15-.02.159 0 .008 0-.004.01-.021zm1.04-4.072v-11.267h-8v11.267zm2.47 6.187h-4v4h4zm0-17.454v-4h-4v4zm9.58.699-1.85 3.545.01.005zm2.02 1.934-3.53 1.895.01.01zm-.01 5.659-3.5-1.934-.01.009zm-2.01 1.884-1.79-3.578-.01.005zm-8.08.673h-4v4h4zm0-2.267v-4h-4v4zm6.55-.366-1.65-3.644-.01.003v.003zm1.18-4.458-3.56 1.839.01.016.01.017zm-1.19-1.108-1.76 3.593.03.011.02.011zm-5.41-.392v-4h-4v4zm0 15.196v4h4v-4zm5.98-7.875 3.51-1.921-1.14-2.079h-2.37zm4.32 7.875v4h6.75l-3.25-5.921zm-3 0-3.53 1.892 1.13 2.108h2.4zm-4.23-7.875v-4h-6.69l3.16 5.892zm-1.7 7.875v-17.454h-8v17.454zm-4-13.454h6.22v-8h-6.22zm6.22 0c.92 0 1.35.161 1.51.244l3.71-7.091c-1.63-.849-3.44-1.153-5.22-1.153zm1.52.249c.25.127.3.221.33.279l7.05-3.79c-.86-1.59-2.14-2.785-3.69-3.59zm.34.289c.08.149.18.421.18.933h8c0-1.636-.34-3.255-1.15-4.743zm.18.933c0 .495-.1.751-.17.887l7 3.869c.82-1.489 1.17-3.114 1.17-4.756zm-.18.896c-.01.029-.05.111-.29.231l3.57 7.156c1.56-.778 2.86-1.952 3.73-3.536zm-.3.236c-.17.087-.63.246-1.57.246v8c1.77 0 3.55-.289 5.16-1.1zm-1.57.246h-4.71v8h4.71zm-.71 4v-2.267h-8v2.267zm-4 1.733h4.47v-8h-4.47zm4.47 0c1.19 0 2.51-.163 3.74-.729l-3.32-7.275c.09-.044.12-.04.05-.027a3 3 0 0 1-.47.031zm3.73-.722c1.24-.561 2.34-1.485 3.06-2.818l-7.05-3.783c.1-.176.22-.337.37-.467.14-.127.26-.193.32-.22zm3.06-2.818c.63-1.17.85-2.411.85-3.571h-8c0 .147-.03.025.1-.212zm.85-3.571c0-1.178-.23-2.417-.85-3.584l-7.07 3.743c-.05-.095-.07-.17-.08-.207-.01-.035 0-.024 0 .048zm-.83-3.552c-.69-1.337-1.78-2.292-3.03-2.884l-3.42 7.23a1.3 1.3 0 0 1-.32-.225 1.8 1.8 0 0 1-.34-.443zm-2.98-2.862c-1.27-.624-2.64-.799-3.86-.799v8c.24 0 .38.019.44.031.07.011.02.011-.1-.046zm-3.86-.799h-3.31v8h3.31zm-7.31 4v15.196h8v-15.196zm4 11.196h-2.63v8h2.63zm2.47-1.954 4.32 7.875 7.01-3.842-4.31-7.875zm7.83 1.954h-3v8h3zm.52 2.108-4.23-7.875-7.05 3.784 4.23 7.875zm-7.75-1.983h2.91v-8h-2.91zm-46.09 32.875v4h2.85l.93-2.692zm-2.79 0-3.77-1.354-1.92 5.354h5.69zm6.28-17.454v-4h-2.81l-.96 2.645zm3.04 0 3.76-1.355-.95-2.645h-2.81zm6.28 17.454v4h5.69l-1.93-5.354zm-2.79 0-3.79 1.306.94 2.694h2.85zm-4.94-14.284 3.78-1.306-.93-2.694h-2.85zm-.14 0v-4h-2.84l-.94 2.692zm-4.47 7.449v-4h-4v4zm9.07 0h4v-4h-4zm0 2.216v4h4v-4zm-9.07 0h-4v4h4zm-.47.619h-2.79v8h2.79zm.97 5.355 6.28-17.455-7.53-2.709-6.28 17.455zm2.52-14.809h3.04v-8h-3.04zm-.72-2.646 6.28 17.455 7.52-2.709-6.28-17.455zm10.04 12.1h-2.79v8h2.79zm.99 2.694-4.94-14.284-7.56 2.612 4.93 14.284zm-8.72-16.978h-.14v8h.14zm-3.92 2.692-4.94 14.284 7.56 2.616 4.94-14.284zm-.69 12.757h9.07v-8h-9.07zm5.07-4v2.216h8v-2.216zm4-1.784h-9.07v8h9.07zm-5.07 4v-2.216h-8v2.216zm10.86 4.619h-4v4h4zm0-17.454v-4h-4v4zm11.6 2.77-3.55 1.835v.01zm-.01 5.778-3.54-1.854-.01.009zm-2.01 2.028 1.94 3.499.01-.004zm-7.64.742h-4v4h4zm0-2.233v-4h-4v4zm6.12-.443 1.94 3.5.01-.008.02-.008zm0-5.949-1.91 3.516.01.004v.004zm-5.42-.435v-4h-4v4zm0 15.196v4h4v-4zm1.36 0v-17.454h-8v17.454zm-4-13.454h6.22v-8h-6.22zm6.22 0c.9 0 1.31.165 1.44.24l3.88-6.998c-1.65-.914-3.5-1.242-5.32-1.242zm1.44.24c.24.134.33.249.39.365l7.11-3.671c-.83-1.6-2.08-2.837-3.62-3.692zm.39.375c.12.221.22.536.22 1.035h8c0-1.637-.35-3.242-1.12-4.726zm.22 1.035c0 .5-.1.818-.22 1.044l7.09 3.708c.78-1.49 1.13-3.104 1.13-4.752zm-.23 1.053c-.05.108-.14.232-.41.379l3.9 6.989c1.53-.853 2.78-2.082 3.61-3.678zm-.4.375c-.13.075-.54.24-1.43.24v8c1.82 0 3.66-.33 5.31-1.243zm-1.43.24h-4.27v8h4.27zm-.27 4v-2.233h-8v2.233zm-4 1.767h4.04v-8h-4.04zm4.04 0c1.27 0 2.7-.214 4.02-.943l-3.87-7c.13-.073.2-.086.18-.081-.02.006-.13.024-.33.024zm4.05-.959a6.8 6.8 0 0 0 2.81-2.97l-7.2-3.483c.05-.113.13-.229.23-.332.1-.1.18-.157.23-.184zm2.81-2.97c.55-1.135.78-2.333.78-3.506h-8c0 .077-.01.108-.01.104 0-.002 0-.011.01-.026 0-.015.01-.034.02-.055zm.78-3.506c0-1.172-.23-2.374-.79-3.512l-7.18 3.513c-.02-.024-.02-.047-.03-.065s-.01-.03-.01-.033c0-.009.01.021.01.097zm-.79-3.512c-.64-1.323-1.66-2.315-2.88-2.969l-3.79 7.048a1.36 1.36 0 0 1-.51-.566zm-2.87-2.961c-1.32-.717-2.75-.919-4.02-.919v8c.22 0 .34.019.38.027.04.007-.04-.003-.17-.076zm-4.02-.919h-3.3v8h3.3zm-7.3 4v15.196h8v-15.196zm4 11.196h-2.64v8h2.64zm12.71 4h-4v4h4zm0-17.454v-4h-4v4zm11.6 2.77-3.55 1.835v.01zm-.01 5.778-3.54-1.854v.009zm-2.01 2.028 1.94 3.499.01-.004zm-7.64.742h-4v4h4zm0-2.233v-4h-4v4zm6.13-.443 1.93 3.5.02-.008.01-.008zm-.01-5.949-1.91 3.516.01.004.01.004zm-5.42-.435v-4h-4v4zm0 15.196v4h4v-4zm1.36 0v-17.454h-8v17.454zm-4-13.454h6.22v-8h-6.22zm6.22 0c.9 0 1.31.165 1.44.24l3.88-6.998c-1.65-.914-3.5-1.242-5.32-1.242zm1.44.24c.24.134.33.249.39.365l7.11-3.671c-.83-1.6-2.08-2.837-3.62-3.692zm.39.375c.12.221.22.536.22 1.035h8c0-1.637-.35-3.242-1.12-4.726zm.22 1.035c0 .5-.1.818-.22 1.044l7.09 3.708c.78-1.49 1.13-3.104 1.13-4.752zm-.22 1.053c-.06.108-.15.232-.41.379l3.89 6.989c1.53-.853 2.78-2.082 3.61-3.678zm-.41.375c-.13.075-.54.24-1.42.24v8c1.81 0 3.65-.33 5.3-1.243zm-1.42.24h-4.28v8h4.28zm-.28 4v-2.233h-8v2.233zm-4 1.767h4.04v-8h-4.04zm4.04 0c1.27 0 2.7-.214 4.02-.943l-3.87-7c.13-.073.21-.086.18-.081-.02.006-.13.024-.33.024zm4.05-.959a6.8 6.8 0 0 0 2.81-2.97l-7.2-3.483c.06-.113.13-.229.23-.332.1-.1.18-.157.23-.184zm2.81-2.97c.55-1.135.78-2.333.78-3.506h-8c0 .077-.01.108-.01.104 0-.002 0-.011.01-.026 0-.015.01-.034.02-.055zm.78-3.506c0-1.172-.23-2.374-.78-3.512l-7.19 3.513-.03-.065c0-.018-.01-.03-.01-.033 0-.009.01.021.01.097zm-.78-3.512a6.7 6.7 0 0 0-2.89-2.969l-3.78 7.048a1 1 0 0 1-.26-.198 1.4 1.4 0 0 1-.26-.368zm-2.88-2.961c-1.32-.717-2.75-.919-4.02-.919v8c.23 0 .35.019.38.027.04.007-.04-.003-.17-.076zm-4.02-.919h-3.3v8h3.3zm-7.3 4v15.196h8v-15.196zm4 11.196h-2.64v8h2.64z" mask="url(#e)"/><mask id="g" width="119" height="119" x="1683" y="199" maskUnits="userSpaceOnUse" style="mask-type:alpha"><circle cx="58.706" cy="58.706" r="58.706" fill="url(#f)" transform="matrix(-1 0 0 1 1801.09 199.9)"/></mask><g clip-path="url(#h)" mask="url(#g)"><path fill="#4285F4" d="M1729.91 292.514v-27.046l-8.39-7.674-7.52-4.258v34.205a4.77 4.77 0 0 0 4.77 4.773z"/><path fill="#34A853" d="M1768.09 292.514h11.14a4.77 4.77 0 0 0 4.77-4.773v-34.205l-8.52 4.878-7.39 7.054z"/><path fill="#EA4335" d="m1729.91 265.468-1.14-10.568 1.14-10.114 19.09 14.319 19.09-14.319 1.28 9.568-1.28 11.114-19.09 14.318z"/><path fill="#FBBC04" d="M1768.09 244.786v20.682l15.91-11.932v-6.363c0-5.903-6.74-9.267-11.46-5.728z"/><path fill="#C5221F" d="m1714 253.536 7.32 5.488 8.59 6.444v-20.682l-4.46-3.341c-4.72-3.539-11.45-.175-11.45 5.727z"/></g><mask id="j" width="118" height="118" x="1346" y="426" maskUnits="userSpaceOnUse" style="mask-type:alpha"><circle cx="58.706" cy="58.706" r="58.706" fill="url(#i)" transform="matrix(-1 0 0 1 1463.86 426.409)"/></mask><g clip-path="url(#k)" mask="url(#j)"><path fill="#FFBF00" d="m1396.63 443.484-37.26 15.45c-2.07.859-2.05 3.808.03 4.636l37.42 14.868a13.86 13.86 0 0 0 10.24 0l37.42-14.868c2.09-.828 2.11-3.777.04-4.636l-37.27-15.45a13.87 13.87 0 0 0-10.62 0"/><path fill="#26B5F8" d="M1405.26 486.557V523.7c0 1.767 1.78 2.976 3.42 2.326l41.7-16.217a2.5 2.5 0 0 0 1.57-2.325v-37.143c0-1.767-1.77-2.976-3.41-2.325l-41.7 16.216a2.5 2.5 0 0 0-1.15.92 2.5 2.5 0 0 0-.43 1.405"/><path fill="#ED3049" d="m1395.52 488.474-12.37 5.987-1.26.608-26.12 12.541c-1.66.8-3.77-.408-3.77-2.251v-34.863c0-.666.34-1.242.8-1.676q.285-.281.63-.475a2.66 2.66 0 0 1 2.27-.175l39.62 15.726c2.01.8 2.17 3.627.2 4.578"/><path fill="#000" fill-opacity=".25" d="m1395.52 488.474-12.37 5.987-30.35-25.64q.285-.282.63-.475a2.66 2.66 0 0 1 2.27-.175l39.62 15.725c2.01.801 2.17 3.627.2 4.578"/></g><mask id="m" width="102" height="103" x="1692" y="665" maskUnits="userSpaceOnUse" style="mask-type:alpha"><circle cx="1743.23" cy="716.359" r="50.647" fill="url(#l)"/></mask><g mask="url(#m)"><rect width="90" height="86.4" x="1701.5" y="669.8" fill="#FFE01B" rx="43.2"/><path fill="#000" d="M1759.73 711.433c.36-.09.72-.09 1.17 0 .09-.36.27-1.26.09-2.16-.27-1.26-.63-2.16-1.35-2.07s-.72.99-.54 2.43c0 .72.36 1.44.63 1.8m-6.57 1.08c.54.27.9.36.99.27.27-.27-.36-1.17-1.53-1.62-1.26-.54-2.7-.36-3.78.36-.36.27-.72.63-.72.9.09.36 1.26-.36 2.79-.36.99-.09 1.62.27 2.25.45m-1.17.63c-1.17.09-1.8.72-1.62 1.26.09 0 .09.09.63-.09q1.08-.405 2.43-.27c.36 0 .54.09.63-.09s-.81-.99-2.07-.81m6.75 2.16c.36-.9-1.35-1.8-1.8-.9-.36.9 1.44 1.71 1.8.9m1.89-2.61c-.99 0-.99 2.07 0 2.07s.99-2.07 0-2.07m-27.09 9.81c-.09 0-.72.09-.99-.27-.63-.99 1.35-2.52.36-4.41-1.17-2.16-3.51-1.62-4.32-.72-.99 1.26-.99 2.88-.63 2.88.54.09.54-.72.99-1.53.36-.72 1.53-.99 2.16-.36 1.53.99.09 2.16.27 3.51.09 2.16 2.25 2.07 2.7 1.17.09-.09 0-.09 0-.27-.18.09-.09-.18-.54 0m37.26-2.07c-.36-1.53-.36-1.17-.9-2.52.27-.36 1.89-2.88-.36-5.49-1.26-1.35-4.14-2.16-5.22-2.25-.09-1.35.63-7.38-2.7-10.26 2.7-2.7 4.14-5.67 4.14-8.28 0-4.95-5.94-6.3-13.32-3.33l-1.44.81s-2.79-2.79-2.88-2.79c-8.37-7.47-34.65 21.87-26.28 28.8l1.89 1.62c-.54 1.26-.72 2.79-.54 4.14.36 4.14 4.41 7.47 8.37 7.47 7.11 16.65 33.3 16.65 40.05.36.09-.54 1.17-3.06 1.17-5.22-.09-2.16-1.26-3.06-1.98-3.06m-39.33 6.03c-2.88-.09-5.94-2.7-6.21-5.67-.72-7.65 9.27-9.36 10.53-1.53.45 3.6-.63 7.29-4.32 7.2m-2.25-14.22c-1.89.36-3.51 1.35-4.59 2.88-.63-.54-1.8-1.53-1.89-1.8-1.62-3.06 1.8-9.09 4.05-12.42 5.85-8.37 14.94-14.67 19.26-13.5.72.09 3.06 2.79 3.06 2.79s-4.32 2.43-8.28 5.67c-5.31 3.96-9.36 9.9-11.61 16.38m29.61 12.51s-4.41.72-8.64-.9c.72-2.52 3.33.72 11.88-1.8 1.89-.54 4.32-1.62 6.3-3.15.36.99.72 2.07.9 3.06.36-.09 1.8-.09 1.35 2.25-.36 2.43-1.53 4.41-3.15 6.3-1.17 1.26-2.43 2.16-3.78 2.88-.72.36-1.62.72-2.52.99-6.57 2.16-13.41-.09-15.75-5.31-.09-.36-.36-.72-.36-1.26-.99-3.42-.09-7.38 2.43-9.99.09-.09.36-.36.36-.63 0-.09-.09-.36-.27-.54-.9-1.26-3.78-3.42-3.33-7.65.36-2.88 3.06-5.04 5.49-4.95h.63c.99.09 2.07.09 2.88.27 1.53.09 2.79-.09 4.32-1.35.54-.36.99-.72 1.62-.99.63-.09 1.26 0 1.62.27 1.26.72 1.35 2.79 1.53 4.32 0 .9.09 2.88.09 3.42.09 1.26.36 1.53 1.17 1.8.36.09.72.27 1.26.36 1.62.36 2.7.99 3.15 1.53.36.36.54.72.63 1.17.09 1.35-1.17 3.15-4.59 4.68-5.85 2.7-11.7 1.8-12.42 1.8-2.52-.36-3.96 2.88-2.43 5.22 2.79 4.14 15.21 2.52 18.9-2.7.09-.09 0-.09-.09-.09-5.22 3.51-12.06 4.68-15.93 3.15-.63-.27-1.8-.72-2.07-2.16 5.49 1.62 8.73.09 8.73.09s.36-.09.09-.09m-18.9-23.94c2.16-2.43 4.59-4.59 6.93-5.67h.09v.09c-.09.36-.54.99-.63 1.53 0 .09 0 .09.09.09 1.35-.99 3.96-2.07 6.12-2.16.09 0 .09 0 .09.09v.09c-.36.27-.72.63-.99.99v.09h.09c1.53 0 3.69.54 5.04 1.26.09.09 0 .27-.09.09-8.64-2.07-15.21 2.25-16.74 3.33.18.09.18.09 0 .18"/></g><mask id="o" width="118" height="118" x="1464" y="547" maskUnits="userSpaceOnUse" style="mask-type:alpha"><circle cx="1523.18" cy="605.711" r="58.706" fill="url(#n)"/></mask><g clip-path="url(#p)" mask="url(#o)"><path fill="#DE1C59" d="M1498.16 616.756c0 5.153-4.2 9.363-9.36 9.363-5.15 0-9.36-4.21-9.36-9.363 0-5.154 4.21-9.364 9.36-9.364h9.36zm4.72 0c0-5.154 4.21-9.364 9.36-9.364s9.36 4.209 9.36 9.364v23.438c0 5.154-4.2 9.364-9.36 9.364-5.15 0-9.36-4.21-9.36-9.364z"/><path fill="#35C5F0" d="M1512.24 579.164c-5.15 0-9.36-4.204-9.36-9.358s4.21-9.363 9.36-9.363 9.36 4.21 9.36 9.363v9.358zm0 4.717c5.15 0 9.36 4.21 9.36 9.363 0 5.154-4.2 9.364-9.36 9.364h-23.44c-5.15 0-9.36-4.209-9.36-9.364 0-5.153 4.21-9.363 9.36-9.363z"/><path fill="#2EB57D" d="M1549.84 593.244c0-5.153 4.2-9.363 9.36-9.363 5.15 0 9.36 4.21 9.36 9.363 0 5.154-4.21 9.364-9.36 9.364h-9.36zm-4.72 0c0 5.154-4.21 9.364-9.36 9.364-5.16 0-9.37-4.209-9.37-9.364v-23.438c0-5.154 4.21-9.363 9.37-9.363 5.15 0 9.36 4.21 9.36 9.363z"/><path fill="#EBB02E" d="M1535.76 630.836c5.15 0 9.36 4.204 9.36 9.358s-4.21 9.364-9.36 9.364c-5.16 0-9.37-4.21-9.37-9.364v-9.358zm0-4.717c-5.16 0-9.37-4.21-9.37-9.363 0-5.154 4.21-9.364 9.37-9.364h23.44c5.15 0 9.36 4.209 9.36 9.364 0 5.153-4.21 9.363-9.36 9.363z"/></g><mask id="r" width="119" height="119" x="1459" y="195" maskUnits="userSpaceOnUse" style="mask-type:alpha"><circle cx="1518.49" cy="254.606" r="58.706" fill="url(#q)"/></mask><g mask="url(#r)"><path fill="#2684FF" d="M1553.96 234.25h-32.5c0 8.1 6.56 14.659 14.66 14.659h5.98v5.784c0 8.1 6.55 14.658 14.65 14.658v-32.305c0-.741-.29-1.452-.82-1.976a2.78 2.78 0 0 0-1.97-.82"/><path fill="url(#s)" d="M1537.85 250.45h-32.49c0 8.099 6.55 14.658 14.65 14.658h5.98v5.784c0 8.1 6.56 14.659 14.66 14.659v-32.305a2.8 2.8 0 0 0-2.8-2.796"/><path fill="url(#t)" d="M1521.75 266.649h-32.5c0 8.102 6.56 14.658 14.66 14.658h5.98v5.787c0 8.1 6.55 14.656 14.65 14.656v-32.302c0-.742-.29-1.453-.82-1.977a2.78 2.78 0 0 0-1.97-.822"/></g></g><g opacity=".4"><g clip-path="url(#u)"><path fill="#0076B2" d="M315.361 438h-76.722c-1.74-.019-3.417.715-4.662 2.04s-1.956 3.134-1.977 5.029v83.878c.025 1.893.738 3.697 1.982 5.019 1.245 1.322 2.919 2.053 4.657 2.034h76.722c1.741.015 3.416-.721 4.66-2.047s1.956-3.135 1.979-5.03v-83.878c-.031-1.89-.746-3.69-1.989-5.009s-2.915-2.051-4.65-2.036"/><path fill="#fff" d="M251.877 478.018h10.562v33.985h-10.562zm5.284-16.914a6.123 6.123 0 1 1 .002 12.247 6.123 6.123 0 0 1-.002-12.247m11.904 16.914h10.125v4.666h.14c1.411-2.671 4.852-5.488 9.991-5.488 10.696-.024 12.679 7.016 12.679 16.144v18.663h-10.562v-16.535c0-3.937-.07-9.005-5.488-9.005s-6.34 4.293-6.34 8.749v16.791h-10.545z"/></g><mask id="w" width="118" height="119" x="103" y="208" maskUnits="userSpaceOnUse" style="mask-type:alpha"><circle cx="58.706" cy="58.706" r="58.706" fill="url(#v)" transform="matrix(-1 0 0 1 220.916 208.9)"/></mask><g clip-path="url(#x)" mask="url(#w)"><path fill="#4285F4" d="M146.909 292.627v-27.046l-8.388-7.673L131 253.65v34.204a4.77 4.77 0 0 0 4.773 4.773z"/><path fill="#34A853" d="M185.09 292.627h11.136a4.77 4.77 0 0 0 4.773-4.773V253.65l-8.519 4.877-7.39 7.054z"/><path fill="#EA4335" d="m146.911 265.581-1.141-10.567 1.141-10.114 19.091 14.318 19.091-14.318 1.276 9.568-1.276 11.113-19.091 14.319z"/><path fill="#FBBC04" d="M185.09 244.9v20.681l15.909-11.931v-6.364c0-5.902-6.738-9.267-11.454-5.727z"/><path fill="#C5221F" d="m131 253.65 7.317 5.487 8.592 6.444V244.9l-4.455-3.341c-4.725-3.54-11.454-.175-11.454 5.727z"/></g><mask id="z" width="119" height="118" x="448" y="427" maskUnits="userSpaceOnUse" style="mask-type:alpha"><circle cx="58.706" cy="58.706" r="58.706" fill="url(#y)" transform="matrix(-1 0 0 1 566.143 427.409)"/></mask><g clip-path="url(#A)" mask="url(#z)"><path fill="#fff" d="M527.681 464.316h-47.369v47.368h47.369z"/><path fill="#EA4335" d="m527.687 533 21.316-21.316-10.658-1.818-10.658 1.818-1.945 9.749z"/><path fill="#188038" d="M459 511.684v14.211a7.104 7.104 0 0 0 7.105 7.105h14.211l2.188-10.658-2.188-10.658-11.613-1.818z"/><path fill="#1967D2" d="M549.003 464.316v-14.211a7.103 7.103 0 0 0-7.105-7.105h-14.211q-1.945 7.929-1.945 11.67t1.945 9.646q7.072 2.025 10.658 2.025 3.587 0 10.658-2.025"/><path fill="#FBBC04" d="M549.003 464.316h-21.315v47.368h21.315z"/><path fill="#34A853" d="M527.681 511.684h-47.369V533h47.369z"/><path fill="#4285F4" d="M527.684 443h-61.579a7.104 7.104 0 0 0-7.105 7.105v61.579h21.316v-47.368h47.368z"/><path fill="#4285F4" d="M490.033 501.062c-1.771-1.196-2.997-2.943-3.666-5.252l4.11-1.694q.558 2.132 1.954 3.304c.923.782 2.048 1.167 3.363 1.167q2.016 0 3.463-1.226 1.45-1.227 1.451-3.12 0-1.937-1.527-3.162c-1.019-.817-2.298-1.226-3.825-1.226h-2.375v-4.067h2.132q1.971 0 3.321-1.066 1.35-1.065 1.35-2.919 0-1.651-1.207-2.635-1.206-.988-3.062-.989-1.812-.001-2.877.965a5.65 5.65 0 0 0-1.552 2.374l-4.067-1.693c.538-1.528 1.527-2.878 2.978-4.044 1.45-1.167 3.304-1.753 5.554-1.753q2.498-.001 4.488.965 1.99.97 3.12 2.677c.753 1.142 1.125 2.421 1.125 3.842q0 2.175-1.047 3.683-1.049 1.51-2.576 2.315v.243a7.8 7.8 0 0 1 3.304 2.576q1.289 1.73 1.291 4.145 0 2.417-1.226 4.31c-.817 1.261-1.948 2.256-3.381 2.978-1.439.723-3.055 1.09-4.849 1.09-2.079.006-3.997-.592-5.767-1.788m25.24-20.392-4.511 3.262-2.256-3.422 8.094-5.838h3.102v27.538h-4.429z"/></g><mask id="C" width="107" height="107" x="-1" y="551" maskUnits="userSpaceOnUse" style="mask-type:alpha"><circle cx="52.294" cy="604.706" r="53.294" fill="url(#B)"/></mask><g mask="url(#C)"><path fill="#006BFF" d="M82.245 612.642q1.609.003 3.164.244c0 .02-.02.039-.02.054a23 23 0 0 1-1.455 3.003l-4.657 8.046a23.84 23.84 0 0 1-20.673 11.946h-9.291a23.876 23.876 0 0 1-20.677-11.946l-4.653-8.046a23.88 23.88 0 0 1 0-23.886l4.653-8.046a23.84 23.84 0 0 1 20.677-11.946h9.291a23.878 23.878 0 0 1 20.673 11.946l4.657 8.046c.562.963 1.035 1.983 1.456 3.003 0 .015.019.034.019.054a21 21 0 0 1-3.164.244c-6.938 0-9.555-2.319-12.573-4.989-2.919-2.583-6.537-5.796-13.142-5.796h-3.932c-4.779 0-9.12 1.738-12.225 4.882-3.041 3.076-4.71 7.275-4.71 11.84v5.391c0 4.569 1.669 8.768 4.71 11.839 3.106 3.145 7.446 4.883 12.225 4.883h3.95c6.606 0 10.224-3.213 13.14-5.796 3.021-2.685 5.62-4.989 12.557-4.97m.02-12.367q2.293 0 4.504-.42a.1.1 0 0 1-.008-.054 24 24 0 0 0-1.333-4.653c2.74-.43 5.34-1.502 7.587-3.129 0-.015-.019-.05-.019-.069a40.5 40.5 0 0 0-5.688-11.576 41.6 41.6 0 0 0-8.906-9.15 40.65 40.65 0 0 0-24.558-8.168c-5.532 0-10.908 1.07-15.95 3.213a41.2 41.2 0 0 0-13.017 8.783c-3.76 3.76-6.728 8.134-8.78 13.017a40.9 40.9 0 0 0-3.216 15.95c0 5.532 1.073 10.908 3.217 15.947a41.1 41.1 0 0 0 8.779 13.016c3.76 3.76 8.134 6.728 13.016 8.783a41 41 0 0 0 15.95 3.214c8.94 0 17.426-2.828 24.559-8.165a41.3 41.3 0 0 0 8.906-9.154 41.3 41.3 0 0 0 5.688-11.576c0-.015.02-.053.02-.069a17.6 17.6 0 0 0-7.588-3.129 22.8 22.8 0 0 0 1.333-4.653c.02-.034.02-.053.02-.088 3.32.608 6.46 1.96 9.184 3.954 2.617 1.93 2.109 4.107 1.704 5.41-5.762 18.724-23.202 32.337-43.825 32.337-25.31 0-45.846-20.535-45.846-45.846s20.516-45.846 45.846-45.846c20.623 0 38.063 13.613 43.825 32.337.405 1.303.913 3.496-1.704 5.429a22.2 22.2 0 0 1-9.185 3.95c.49 2.736.49 5.54 0 8.275-1.488-.282-3-.422-4.516-.42-15.984 0-15.16 10.785-25.734 10.785h-3.932c-7.255 0-12.034-5.184-12.034-11.824v-5.391c0-6.64 4.78-11.82 12.034-11.82h3.95c10.576 0 9.75 10.785 25.716 10.8"/></g><mask id="E" width="103" height="102" x="339" y="663" maskUnits="userSpaceOnUse" style="mask-type:alpha"><circle cx="390.587" cy="713.997" r="50.998" fill="url(#D)"/></mask><g clip-path="url(#F)" mask="url(#E)"><path fill="#5865F2" d="M414.906 670h-47.812c-11.65 0-21.094 9.444-21.094 21.094v47.812c0 11.65 9.444 21.094 21.094 21.094h47.812c11.65 0 21.094-9.444 21.094-21.094v-47.812c0-11.65-9.444-21.094-21.094-21.094"/><mask id="G" width="72" height="56" x="355" y="687" maskUnits="userSpaceOnUse" style="mask-type:luminance"><path fill="#fff" d="M355.844 687.93h70.312v54.467h-70.312z"/></mask><g mask="url(#G)"><path fill="#fff" d="M415.366 692.78a58 58 0 0 0-14.312-4.439.218.218 0 0 0-.23.109 40 40 0 0 0-1.782 3.66c-5.404-.809-10.781-.809-16.074 0a37 37 0 0 0-1.81-3.66.22.22 0 0 0-.23-.109 57.9 57.9 0 0 0-14.312 4.439.2.2 0 0 0-.094.081c-9.116 13.618-11.613 26.902-10.388 40.021a.25.25 0 0 0 .092.164c6.014 4.417 11.839 7.098 17.557 8.875a.23.23 0 0 0 .247-.081 42 42 0 0 0 3.591-5.842.2.2 0 0 0 .024-.09.2.2 0 0 0-.015-.092.2.2 0 0 0-.052-.078.2.2 0 0 0-.079-.05 38 38 0 0 1-5.484-2.614.2.2 0 0 1-.078-.077.2.2 0 0 1-.033-.104.23.23 0 0 1 .089-.193q.554-.415 1.089-.853a.2.2 0 0 1 .109-.048q.061-.009.118.017c11.507 5.253 23.965 5.253 35.336 0a.21.21 0 0 1 .23.028q.536.442 1.092.856.046.034.069.085.024.05.021.107a.23.23 0 0 1-.109.182 36 36 0 0 1-5.488 2.612.224.224 0 0 0-.119.312 47 47 0 0 0 3.589 5.84.23.23 0 0 0 .11.081.22.22 0 0 0 .137.002c5.745-1.777 11.571-4.458 17.585-8.875a.23.23 0 0 0 .091-.162c1.466-15.166-2.455-28.341-10.396-40.02a.18.18 0 0 0-.091-.084m-36.026 32.114c-3.465 0-6.319-3.181-6.319-7.087s2.799-7.087 6.319-7.087c3.547 0 6.374 3.209 6.318 7.087 0 3.906-2.799 7.087-6.318 7.087m23.363 0c-3.464 0-6.319-3.181-6.319-7.087s2.799-7.087 6.319-7.087c3.548 0 6.374 3.209 6.319 7.087 0 3.906-2.771 7.087-6.319 7.087"/></g></g><mask id="I" width="118" height="117" x="331" y="199" maskUnits="userSpaceOnUse" style="mask-type:alpha"><circle cx="389.941" cy="257.5" r="58.352" fill="url(#H)"/></mask><g clip-path="url(#J)"><path fill="#34A853" d="M392.294 266.544h-9.656v-5.409h9.662v5.412zM401.956 231v17h17zm3.862 30.135h-9.662v5.412h9.662zm0 9.274h-9.662v5.411h9.662zm13.135-20.992v44.948a4.634 4.634 0 0 1-4.635 4.635h-40.183a4.64 4.64 0 0 1-3.277-1.358 4.63 4.63 0 0 1-1.358-3.277v-58.73a4.634 4.634 0 0 1 4.635-4.635h26.401v18.417zm-9.273 7.856h-30.909v22.409h30.911v-22.411zm-17.386 13.136h-9.656v5.411h9.662v-5.411z"/></g></g><defs><linearGradient id="c" x1="1630.85" x2="1630.85" y1="411.598" y2="566.22" gradientUnits="userSpaceOnUse"><stop stop-color="#fff" stop-opacity=".67"/><stop offset="1" stop-color="#fff"/></linearGradient><linearGradient id="d" x1="1630.44" x2="1630.44" y1="430.686" y2="554.476" gradientUnits="userSpaceOnUse"><stop stop-color="#fff" stop-opacity=".67"/><stop offset="1" stop-color="#fff"/></linearGradient><linearGradient id="f" x1="58.706" x2="58.706" y1="0" y2="117.412" gradientUnits="userSpaceOnUse"><stop stop-color="#737373" stop-opacity="0"/><stop offset="1" stop-color="#D9D9D9"/></linearGradient><linearGradient id="i" x1="107.432" x2="0" y1="49.313" y2="49.313" gradientUnits="userSpaceOnUse"><stop stop-color="#737373" stop-opacity="0"/><stop offset="1" stop-color="#D9D9D9" stop-opacity=".3"/></linearGradient><linearGradient id="l" x1="1714.37" x2="1760.45" y1="670.27" y2="767.005" gradientUnits="userSpaceOnUse"><stop stop-color="#D9D9D9" stop-opacity=".8"/><stop offset="1" stop-color="#737373" stop-opacity="0"/></linearGradient><linearGradient id="n" x1="1554.29" x2="1477.98" y1="537.025" y2="652.676" gradientUnits="userSpaceOnUse"><stop stop-color="#D9D9D9"/><stop offset="1" stop-color="#737373" stop-opacity="0"/></linearGradient><linearGradient id="q" x1="1485.02" x2="1538.45" y1="201.183" y2="313.312" gradientUnits="userSpaceOnUse"><stop stop-color="#737373" stop-opacity="0"/><stop offset="1" stop-color="#D9D9D9"/></linearGradient><linearGradient id="s" x1="1539.97" x2="1526.15" y1="250.487" y2="264.743" gradientUnits="userSpaceOnUse"><stop offset=".176" stop-color="#0052CC"/><stop offset="1" stop-color="#2684FF"/></linearGradient><linearGradient id="t" x1="1524.8" x2="1508.82" y1="266.774" y2="282.327" gradientUnits="userSpaceOnUse"><stop offset=".176" stop-color="#0052CC"/><stop offset="1" stop-color="#2684FF"/></linearGradient><linearGradient id="v" x1="58.706" x2="58.706" y1="0" y2="117.412" gradientUnits="userSpaceOnUse"><stop stop-color="#737373" stop-opacity="0"/><stop offset="1" stop-color="#D9D9D9"/></linearGradient><linearGradient id="y" x1="107.432" x2="0" y1="49.313" y2="49.313" gradientUnits="userSpaceOnUse"><stop stop-color="#737373" stop-opacity="0"/><stop offset="1" stop-color="#D9D9D9" stop-opacity=".3"/></linearGradient><linearGradient id="B" x1="21.916" x2="70.414" y1="556.208" y2="658" gradientUnits="userSpaceOnUse"><stop stop-color="#D9D9D9" stop-opacity=".8"/><stop offset="1" stop-color="#737373" stop-opacity="0"/></linearGradient><linearGradient id="D" x1="417.616" x2="351.319" y1="654.33" y2="754.795" gradientUnits="userSpaceOnUse"><stop stop-color="#D9D9D9"/><stop offset="1" stop-color="#737373" stop-opacity="0"/></linearGradient><linearGradient id="H" x1="356.681" x2="409.781" y1="204.4" y2="315.852" gradientUnits="userSpaceOnUse"><stop stop-color="#737373" stop-opacity="0"/><stop offset="1" stop-color="#D9D9D9"/></linearGradient><clipPath id="a"><path fill="#fff" d="M.441 0h1920v1001H.441z"/></clipPath><clipPath id="h"><path fill="#fff" d="M1714 240h70v52.773h-70z"/></clipPath><clipPath id="k"><path fill="#fff" d="M1352 442.427h100v84.146h-100z"/></clipPath><clipPath id="p"><path fill="#fff" d="M1479 560h90v90h-90z"/></clipPath><clipPath id="u"><rect width="90" height="90" x="232" y="442" fill="#fff" rx="45"/></clipPath><clipPath id="x"><path fill="#fff" d="M131 240.113h70v52.773h-70z"/></clipPath><clipPath id="A"><path fill="#fff" d="M459 443h90v90h-90z"/></clipPath><clipPath id="F"><rect width="90" height="90" x="346" y="670" fill="#fff" rx="45"/></clipPath><clipPath id="J"><path fill="#fff" d="M361 231h68v68h-68z"/></clipPath><radialGradient id="b" cx="0" cy="0" r="1" gradientTransform="matrix(1389.56 0 0 2712.86 959.441 500.72)" gradientUnits="userSpaceOnUse"><stop stop-color="#fff"/><stop offset=".366" stop-color="#fff" stop-opacity=".856"/><stop offset="1" stop-color="#fff" stop-opacity="0"/></radialGradient></defs></svg>