<svg width="565" height="223" viewBox="0 0 565 223" fill="none" xmlns="http://www.w3.org/2000/svg">
<path d="M28.9492 88.252V132.991C28.9492 137.61 32.6939 141.355 37.3132 141.355H81.0779H209.156C213.775 141.355 217.52 137.61 217.52 132.991V84.8777C217.52 80.2584 221.264 76.5137 225.884 76.5137H365.836C370.456 76.5137 374.2 80.2584 374.2 84.8777V171.15C374.2 175.769 377.945 179.514 382.564 179.514H421.457" stroke="#1C3693" stroke-width="1.6728" stroke-dasharray="6.69 6.69"/>
<g filter="url(#filter0_d_3791_12865)">
<rect x="65.1621" y="119.107" width="133.586" height="47.3657" rx="9.72462" fill="white"/>
<rect x="65.3163" y="119.262" width="133.278" height="47.0573" rx="9.57041" stroke="#EFF0F7" stroke-width="0.308417"/>
</g>
<rect x="115.488" y="133.91" width="70.6785" height="5.28064" rx="2.64032" fill="#EAE9E9"/>
<rect x="115.488" y="146.871" width="46.6688" height="4.80058" rx="2.40029" fill="#EAE9E9"/>
<rect x="71.8232" y="125.398" width="34.7842" height="34.7842" rx="5.71764" fill="#FFEFEA"/>
<g filter="url(#filter1_d_3791_12865)">
<circle cx="28.2494" cy="88.0385" r="20.2494" fill="#1C3693"/>
<circle cx="28.2494" cy="88.0385" r="19.2395" stroke="white" stroke-width="2.01987"/>
</g>
<path d="M28.3429 85.8224V90.4455M30.6545 88.134H26.0314M35.2777 88.134C35.2777 89.0446 35.0983 89.9464 34.7498 90.7878C34.4013 91.6291 33.8905 92.3936 33.2465 93.0375C32.6026 93.6815 31.8381 94.1923 30.9967 94.5408C30.1554 94.8893 29.2536 95.0687 28.3429 95.0687C27.4323 95.0687 26.5305 94.8893 25.6891 94.5408C24.8478 94.1923 24.0833 93.6815 23.4393 93.0375C22.7954 92.3936 22.2846 91.6291 21.9361 90.7878C21.5876 89.9464 21.4082 89.0446 21.4082 88.134C21.4082 86.2947 22.1388 84.5309 23.4393 83.2304C24.7399 81.9298 26.5037 81.1992 28.3429 81.1992C30.1821 81.1992 31.946 81.9298 33.2465 83.2304C34.547 84.5309 35.2777 86.2947 35.2777 88.134Z" stroke="white" stroke-width="1.41391" stroke-linecap="round" stroke-linejoin="round"/>
<path d="M419.157 84.4262C419.368 81.6411 421.568 79.4134 424.353 79.1648L429.888 78.6707C432.673 78.4221 435.233 80.2249 435.934 82.9286L437.092 87.3879C437.638 89.5032 439.382 91.0828 441.462 91.7443C443.552 92.3948 445.856 92.0769 447.515 90.6528L451.009 87.6512C452.037 86.7687 453.344 86.2794 454.699 86.2707C456.053 86.2619 457.367 86.7342 458.406 87.6034L462.67 91.173C464.821 92.9664 465.351 96.0477 463.933 98.4608L461.598 102.431C460.49 104.316 460.585 106.635 461.6 108.575C462.615 110.511 464.478 111.942 466.662 112.105L471.252 112.46C474.042 112.671 476.264 114.866 476.513 117.651L477.007 123.19C477.256 125.975 475.458 128.534 472.749 129.236L468.29 130.394C466.174 130.94 464.594 132.679 463.938 134.764C463.282 136.853 463.6 139.152 465.024 140.812L468.026 144.31C469.849 146.429 469.867 149.556 468.074 151.706L464.504 155.97C463.636 157.008 462.427 157.705 461.094 157.936C459.76 158.167 458.388 157.918 457.221 157.233L453.245 154.898C451.36 153.791 449.041 153.885 447.105 154.9C445.164 155.916 443.738 157.778 443.57 159.957L443.22 164.551C443.009 167.336 440.809 169.564 438.024 169.813L432.484 170.307C429.699 170.556 427.144 168.753 426.439 166.049L425.285 161.589C424.734 159.475 422.995 157.895 420.91 157.234C418.82 156.583 416.521 156.901 414.862 158.325L411.363 161.327C409.244 163.149 406.117 163.168 403.966 161.374L399.702 157.805C398.663 156.936 397.965 155.727 397.734 154.393C397.503 153.058 397.752 151.685 398.439 150.517L400.775 146.547C401.882 144.662 401.788 142.343 400.777 140.402C399.762 138.466 397.894 137.036 395.715 136.873L391.121 136.517C388.335 136.307 386.107 134.107 385.859 131.327L385.365 125.788C385.116 123.003 386.919 120.443 389.623 119.742L394.083 118.584C396.198 118.038 397.783 116.299 398.439 114.214C399.095 112.124 398.778 109.825 397.348 108.166L394.351 104.667C393.469 103.64 392.979 102.332 392.971 100.978C392.962 99.6234 393.434 98.3098 394.303 97.271L397.868 93.0075C398.737 91.968 399.946 91.2706 401.281 91.0393C402.615 90.808 403.989 91.0578 405.157 91.7444L409.127 94.0797C411.012 95.1873 413.336 95.0922 415.272 94.0772C417.208 93.0623 418.639 91.1992 418.802 89.0207L419.157 84.4262Z" stroke="#F4F4F4" stroke-width="5.31149" stroke-linecap="round" stroke-linejoin="round"/>
<path d="M446.382 123.132C446.742 127.161 445.486 131.168 442.892 134.271C440.297 137.374 436.576 139.319 432.547 139.679C428.518 140.038 424.511 138.783 421.408 136.189C418.305 133.594 416.359 129.873 416 125.845C415.64 121.816 416.896 117.809 419.49 114.706C422.085 111.603 425.806 109.658 429.835 109.298C433.864 108.939 437.871 110.194 440.974 112.788C444.077 115.383 446.023 119.104 446.382 123.132Z" stroke="#F4F4F4" stroke-width="5.31149" stroke-linecap="round" stroke-linejoin="round"/>
<path d="M168.851 85.1468C169.447 83.9438 170.828 83.3476 172.114 83.7388L174.67 84.5161C175.955 84.9072 176.771 86.1719 176.596 87.5029L176.309 89.6988C176.171 90.7398 176.663 91.758 177.471 92.4277C178.285 93.0941 179.369 93.3677 180.365 93.0321L182.463 92.3243C183.08 92.1162 183.751 92.1338 184.356 92.374C184.961 92.6143 185.461 93.0615 185.767 93.636L187.024 95.9951C187.659 97.1819 187.34 98.6505 186.274 99.4702L184.518 100.818C183.684 101.459 183.308 102.509 183.411 103.557C183.515 104.602 184.087 105.576 185.031 106.042L187.012 107.027C188.217 107.624 188.812 109.003 188.421 110.289L187.643 112.846C187.252 114.132 185.989 114.948 184.656 114.772L182.46 114.485C181.419 114.347 180.401 114.837 179.733 115.648C179.065 116.461 178.792 117.542 179.127 118.538L179.835 120.639C180.265 121.911 179.71 123.308 178.523 123.943L176.164 125.2C175.59 125.506 174.926 125.598 174.29 125.461C173.654 125.324 173.087 124.965 172.691 124.45L171.34 122.693C170.7 121.859 169.649 121.484 168.604 121.587C167.556 121.69 166.585 122.263 166.117 123.203L165.133 125.187C164.537 126.39 163.155 126.987 161.87 126.596L159.312 125.817C158.026 125.426 157.213 124.162 157.385 122.831L157.675 120.635C157.81 119.594 157.32 118.576 156.51 117.906C155.697 117.239 154.615 116.967 153.619 117.302L151.519 118.009C150.246 118.439 148.849 117.884 148.214 116.698L146.957 114.338C146.65 113.764 146.558 113.1 146.695 112.463C146.832 111.827 147.191 111.26 147.708 110.863L149.464 109.515C150.297 108.875 150.673 107.824 150.573 106.777C150.469 105.732 149.895 104.758 148.953 104.293L146.97 103.306C145.766 102.71 145.17 101.328 145.561 100.045L146.339 97.4875C146.73 96.2018 147.994 95.3861 149.326 95.5611L151.522 95.8486C152.563 95.9865 153.582 95.4973 154.25 94.6865C154.919 93.8734 155.192 92.7918 154.854 91.7951L154.149 89.6957C153.941 89.0788 153.959 88.4081 154.199 87.803C154.439 87.1978 154.886 86.6976 155.461 86.3914L157.818 85.134C158.392 84.8274 159.057 84.7345 159.693 84.872C160.33 85.0094 160.897 85.3683 161.293 85.8847L162.641 87.6408C163.282 88.4741 164.335 88.8506 165.38 88.7472C166.426 88.6438 167.399 88.0715 167.864 87.1301L168.851 85.1468Z" fill="#F4F4F4"/>
<path d="M174.007 107.302C173.441 109.162 172.16 110.721 170.444 111.636C168.729 112.551 166.72 112.747 164.86 112.181C163 111.616 161.44 110.334 160.525 108.619C159.61 106.903 159.414 104.895 159.979 103.035C160.545 101.175 161.827 99.6156 163.542 98.7005C165.258 97.7854 167.266 97.5891 169.127 98.155C170.987 98.7208 172.546 100.002 173.461 101.718C174.376 103.433 174.573 105.442 174.007 107.302Z" stroke="white" stroke-width="2.55306" stroke-linecap="round" stroke-linejoin="round"/>
<g filter="url(#filter2_d_3791_12865)">
<rect x="410.414" y="154.514" width="133.586" height="47.3657" rx="9.72462" fill="white"/>
<rect x="410.568" y="154.668" width="133.278" height="47.0573" rx="9.57041" stroke="#EFF0F7" stroke-width="0.308417"/>
</g>
<rect x="460.739" y="169.316" width="70.6785" height="5.28064" rx="2.64032" fill="#EAE9E9"/>
<rect x="460.739" y="182.277" width="46.6688" height="4.80058" rx="2.40029" fill="#EAE9E9"/>
<rect x="417.074" y="160.805" width="34.0441" height="34.0441" rx="5.71764" fill="#FFDE89" fill-opacity="0.7"/>
<g filter="url(#filter3_d_3791_12865)">
<rect x="228" y="15.1191" width="134" height="150" rx="9.72462" fill="white"/>
<rect x="228.154" y="15.2733" width="133.692" height="149.692" rx="9.57041" stroke="#EFF0F7" stroke-width="0.308417"/>
</g>
<rect x="285" y="118" width="19" height="19" rx="9.5" fill="#FF5252"/>
<path d="M284 36H305L301 111H288L284 36Z" fill="#FF5252"/>
<defs>
<filter id="filter0_d_3791_12865" x="50.7594" y="104.705" width="168.56" height="82.339" filterUnits="userSpaceOnUse" color-interpolation-filters="sRGB">
<feFlood flood-opacity="0" result="BackgroundImageFix"/>
<feColorMatrix in="SourceAlpha" type="matrix" values="0 0 0 0 0 0 0 0 0 0 0 0 0 0 0 0 0 0 127 0" result="hardAlpha"/>
<feMorphology radius="1.58972" operator="dilate" in="SourceAlpha" result="effect1_dropShadow_3791_12865"/>
<feOffset dx="3.08417" dy="3.08417"/>
<feGaussianBlur stdDeviation="7.94859"/>
<feColorMatrix type="matrix" values="0 0 0 0 0.55534 0 0 0 0 0.55534 0 0 0 0 0.55534 0 0 0 0.2 0"/>
<feBlend mode="normal" in2="BackgroundImageFix" result="effect1_dropShadow_3791_12865"/>
<feBlend mode="normal" in="SourceGraphic" in2="effect1_dropShadow_3791_12865" result="shape"/>
</filter>
<filter id="filter1_d_3791_12865" x="0.930468" y="61.7295" width="60.6977" height="60.6967" filterUnits="userSpaceOnUse" color-interpolation-filters="sRGB">
<feFlood flood-opacity="0" result="BackgroundImageFix"/>
<feColorMatrix in="SourceAlpha" type="matrix" values="0 0 0 0 0 0 0 0 0 0 0 0 0 0 0 0 0 0 127 0" result="hardAlpha"/>
<feOffset dx="3.0298" dy="4.03973"/>
<feGaussianBlur stdDeviation="5.04967"/>
<feComposite in2="hardAlpha" operator="out"/>
<feColorMatrix type="matrix" values="0 0 0 0 0.583231 0 0 0 0 0.583231 0 0 0 0 0.583231 0 0 0 0.7 0"/>
<feBlend mode="normal" in2="BackgroundImageFix" result="effect1_dropShadow_3791_12865"/>
<feBlend mode="normal" in="SourceGraphic" in2="effect1_dropShadow_3791_12865" result="shape"/>
</filter>
<filter id="filter2_d_3791_12865" x="396.011" y="140.111" width="168.56" height="82.339" filterUnits="userSpaceOnUse" color-interpolation-filters="sRGB">
<feFlood flood-opacity="0" result="BackgroundImageFix"/>
<feColorMatrix in="SourceAlpha" type="matrix" values="0 0 0 0 0 0 0 0 0 0 0 0 0 0 0 0 0 0 127 0" result="hardAlpha"/>
<feMorphology radius="1.58972" operator="dilate" in="SourceAlpha" result="effect1_dropShadow_3791_12865"/>
<feOffset dx="3.08417" dy="3.08417"/>
<feGaussianBlur stdDeviation="7.94859"/>
<feColorMatrix type="matrix" values="0 0 0 0 0.55534 0 0 0 0 0.55534 0 0 0 0 0.55534 0 0 0 0.2 0"/>
<feBlend mode="normal" in2="BackgroundImageFix" result="effect1_dropShadow_3791_12865"/>
<feBlend mode="normal" in="SourceGraphic" in2="effect1_dropShadow_3791_12865" result="shape"/>
</filter>
<filter id="filter3_d_3791_12865" x="213.597" y="0.716411" width="168.974" height="184.974" filterUnits="userSpaceOnUse" color-interpolation-filters="sRGB">
<feFlood flood-opacity="0" result="BackgroundImageFix"/>
<feColorMatrix in="SourceAlpha" type="matrix" values="0 0 0 0 0 0 0 0 0 0 0 0 0 0 0 0 0 0 127 0" result="hardAlpha"/>
<feMorphology radius="1.58972" operator="dilate" in="SourceAlpha" result="effect1_dropShadow_3791_12865"/>
<feOffset dx="3.08417" dy="3.08417"/>
<feGaussianBlur stdDeviation="7.94859"/>
<feColorMatrix type="matrix" values="0 0 0 0 0.55534 0 0 0 0 0.55534 0 0 0 0 0.55534 0 0 0 0.2 0"/>
<feBlend mode="normal" in2="BackgroundImageFix" result="effect1_dropShadow_3791_12865"/>
<feBlend mode="normal" in="SourceGraphic" in2="effect1_dropShadow_3791_12865" result="shape"/>
</filter>
</defs>
</svg>
